<?xml version="1.0" encoding="utf-8" standalone="no"?>
<!DOCTYPE svg PUBLIC "-//W3C//DTD SVG 1.1//EN"
  "http://www.w3.org/Graphics/SVG/1.1/DTD/svg11.dtd">
<!-- Created with matplotlib (http://matplotlib.org/) -->
<svg height="766pt" version="1.1" viewBox="0 0 1382 766" width="1382pt" xmlns="http://www.w3.org/2000/svg" xmlns:xlink="http://www.w3.org/1999/xlink">
 <defs>
  <style type="text/css">
*{stroke-linecap:butt;stroke-linejoin:round;}
  </style>
 </defs>
 <g id="figure_1">
  <g id="patch_1">
   <path d="M 0 766.8 
L 1382.4 766.8 
L 1382.4 0 
L 0 0 
z
" style="fill:#ffffff;"/>
  </g>
  <g id="axes_1">
   <g id="patch_2">
    <path d="M 172.8 682.452 
L 1244.16 682.452 
L 1244.16 92.016 
L 172.8 92.016 
z
" style="fill:#ffffff;"/>
   </g>
   <g id="patch_3">
    <path clip-path="url(#p75b130bf5c)" d="M 221.498182 682.452 
L 237.144184 682.452 
L 237.144184 120.132 
L 221.498182 120.132 
z
" style="fill:#0000ff;"/>
   </g>
   <g id="patch_4">
    <path clip-path="url(#p75b130bf5c)" d="M 241.055685 682.452 
L 256.701687 682.452 
L 256.701687 408.361306 
L 241.055685 408.361306 
z
" style="fill:#0000ff;"/>
   </g>
   <g id="patch_5">
    <path clip-path="url(#p75b130bf5c)" d="M 260.613187 682.452 
L 276.259189 682.452 
L 276.259189 438.881137 
L 260.613187 438.881137 
z
" style="fill:#0000ff;"/>
   </g>
   <g id="patch_6">
    <path clip-path="url(#p75b130bf5c)" d="M 280.17069 682.452 
L 295.816692 682.452 
L 295.816692 455.813407 
L 280.17069 455.813407 
z
" style="fill:#0000ff;"/>
   </g>
   <g id="patch_7">
    <path clip-path="url(#p75b130bf5c)" d="M 299.728193 682.452 
L 315.374195 682.452 
L 315.374195 503.222091 
L 299.728193 503.222091 
z
" style="fill:#0000ff;"/>
   </g>
   <g id="patch_8">
    <path clip-path="url(#p75b130bf5c)" d="M 319.285696 682.452 
L 334.931698 682.452 
L 334.931698 512.342807 
L 319.285696 512.342807 
z
" style="fill:#0000ff;"/>
   </g>
   <g id="patch_9">
    <path clip-path="url(#p75b130bf5c)" d="M 338.843198 682.452 
L 354.4892 682.452 
L 354.4892 521.366671 
L 338.843198 521.366671 
z
" style="fill:#0000ff;"/>
   </g>
   <g id="patch_10">
    <path clip-path="url(#p75b130bf5c)" d="M 358.400701 682.452 
L 374.046703 682.452 
L 374.046703 525.526265 
L 358.400701 525.526265 
z
" style="fill:#0000ff;"/>
   </g>
   <g id="patch_11">
    <path clip-path="url(#p75b130bf5c)" d="M 377.958204 682.452 
L 393.604206 682.452 
L 393.604206 555.531783 
L 377.958204 555.531783 
z
" style="fill:#0000ff;"/>
   </g>
   <g id="patch_12">
    <path clip-path="url(#p75b130bf5c)" d="M 397.515706 682.452 
L 413.161709 682.452 
L 413.161709 560.075442 
L 397.515706 560.075442 
z
" style="fill:#0000ff;"/>
   </g>
   <g id="patch_13">
    <path clip-path="url(#p75b130bf5c)" d="M 417.073209 682.452 
L 432.719211 682.452 
L 432.719211 601.950247 
L 417.073209 601.950247 
z
" style="fill:#0000ff;"/>
   </g>
   <g id="patch_14">
    <path clip-path="url(#p75b130bf5c)" d="M 436.630712 682.452 
L 452.276714 682.452 
L 452.276714 604.077635 
L 436.630712 604.077635 
z
" style="fill:#0000ff;"/>
   </g>
   <g id="patch_15">
    <path clip-path="url(#p75b130bf5c)" d="M 456.188215 682.452 
L 471.834217 682.452 
L 471.834217 608.400874 
L 456.188215 608.400874 
z
" style="fill:#0000ff;"/>
   </g>
   <g id="patch_16">
    <path clip-path="url(#p75b130bf5c)" d="M 475.745717 682.452 
L 491.39172 682.452 
L 491.39172 608.761561 
L 475.745717 608.761561 
z
" style="fill:#0000ff;"/>
   </g>
   <g id="patch_17">
    <path clip-path="url(#p75b130bf5c)" d="M 495.30322 682.452 
L 510.949222 682.452 
L 510.949222 608.900159 
L 495.30322 608.900159 
z
" style="fill:#0000ff;"/>
   </g>
   <g id="patch_18">
    <path clip-path="url(#p75b130bf5c)" d="M 514.860723 682.452 
L 530.506725 682.452 
L 530.506725 611.278024 
L 514.860723 611.278024 
z
" style="fill:#0000ff;"/>
   </g>
   <g id="patch_19">
    <path clip-path="url(#p75b130bf5c)" d="M 534.418226 682.452 
L 550.064228 682.452 
L 550.064228 615.392532 
L 534.418226 615.392532 
z
" style="fill:#0000ff;"/>
   </g>
   <g id="patch_20">
    <path clip-path="url(#p75b130bf5c)" d="M 553.975728 682.452 
L 569.621731 682.452 
L 569.621731 625.231282 
L 553.975728 625.231282 
z
" style="fill:#0000ff;"/>
   </g>
   <g id="patch_21">
    <path clip-path="url(#p75b130bf5c)" d="M 573.533231 682.452 
L 589.179233 682.452 
L 589.179233 625.339823 
L 573.533231 625.339823 
z
" style="fill:#0000ff;"/>
   </g>
   <g id="patch_22">
    <path clip-path="url(#p75b130bf5c)" d="M 593.090734 682.452 
L 608.736736 682.452 
L 608.736736 631.301184 
L 593.090734 631.301184 
z
" style="fill:#0000ff;"/>
   </g>
   <g id="patch_23">
    <path clip-path="url(#p75b130bf5c)" d="M 612.648237 682.452 
L 628.294239 682.452 
L 628.294239 632.096032 
L 612.648237 632.096032 
z
" style="fill:#0000ff;"/>
   </g>
   <g id="patch_24">
    <path clip-path="url(#p75b130bf5c)" d="M 632.205739 682.452 
L 647.851742 682.452 
L 647.851742 633.294983 
L 632.205739 633.294983 
z
" style="fill:#0000ff;"/>
   </g>
   <g id="patch_25">
    <path clip-path="url(#p75b130bf5c)" d="M 651.763242 682.452 
L 667.409244 682.452 
L 667.409244 633.398514 
L 651.763242 633.398514 
z
" style="fill:#0000ff;"/>
   </g>
   <g id="patch_26">
    <path clip-path="url(#p75b130bf5c)" d="M 671.320745 682.452 
L 686.966747 682.452 
L 686.966747 636.145416 
L 671.320745 636.145416 
z
" style="fill:#0000ff;"/>
   </g>
   <g id="patch_27">
    <path clip-path="url(#p75b130bf5c)" d="M 690.878248 682.452 
L 706.52425 682.452 
L 706.52425 637.437879 
L 690.878248 637.437879 
z
" style="fill:#0000ff;"/>
   </g>
   <g id="patch_28">
    <path clip-path="url(#p75b130bf5c)" d="M 710.43575 682.452 
L 726.081752 682.452 
L 726.081752 637.708395 
L 710.43575 637.708395 
z
" style="fill:#0000ff;"/>
   </g>
   <g id="patch_29">
    <path clip-path="url(#p75b130bf5c)" d="M 729.993253 682.452 
L 745.639255 682.452 
L 745.639255 642.40067 
L 729.993253 642.40067 
z
" style="fill:#0000ff;"/>
   </g>
   <g id="patch_30">
    <path clip-path="url(#p75b130bf5c)" d="M 749.550756 682.452 
L 765.196758 682.452 
L 765.196758 643.18383 
L 749.550756 643.18383 
z
" style="fill:#0000ff;"/>
   </g>
   <g id="patch_31">
    <path clip-path="url(#p75b130bf5c)" d="M 769.108258 682.452 
L 784.754261 682.452 
L 784.754261 644.187409 
L 769.108258 644.187409 
z
" style="fill:#0000ff;"/>
   </g>
   <g id="patch_32">
    <path clip-path="url(#p75b130bf5c)" d="M 788.665761 682.452 
L 804.311763 682.452 
L 804.311763 644.800243 
L 788.665761 644.800243 
z
" style="fill:#0000ff;"/>
   </g>
   <g id="patch_33">
    <path clip-path="url(#p75b130bf5c)" d="M 808.223264 682.452 
L 823.869266 682.452 
L 823.869266 646.443375 
L 808.223264 646.443375 
z
" style="fill:#0000ff;"/>
   </g>
   <g id="patch_34">
    <path clip-path="url(#p75b130bf5c)" d="M 827.780767 682.452 
L 843.426769 682.452 
L 843.426769 646.648766 
L 827.780767 646.648766 
z
" style="fill:#0000ff;"/>
   </g>
   <g id="patch_35">
    <path clip-path="url(#p75b130bf5c)" d="M 847.338269 682.452 
L 862.984272 682.452 
L 862.984272 648.028062 
L 847.338269 648.028062 
z
" style="fill:#0000ff;"/>
   </g>
   <g id="patch_36">
    <path clip-path="url(#p75b130bf5c)" d="M 866.895772 682.452 
L 882.541774 682.452 
L 882.541774 648.221764 
L 866.895772 648.221764 
z
" style="fill:#0000ff;"/>
   </g>
   <g id="patch_37">
    <path clip-path="url(#p75b130bf5c)" d="M 886.453275 682.452 
L 902.099277 682.452 
L 902.099277 648.585791 
L 886.453275 648.585791 
z
" style="fill:#0000ff;"/>
   </g>
   <g id="patch_38">
    <path clip-path="url(#p75b130bf5c)" d="M 906.010778 682.452 
L 921.65678 682.452 
L 921.65678 650.950298 
L 906.010778 650.950298 
z
" style="fill:#0000ff;"/>
   </g>
   <g id="patch_39">
    <path clip-path="url(#p75b130bf5c)" d="M 925.56828 682.452 
L 941.214283 682.452 
L 941.214283 651.686701 
L 925.56828 651.686701 
z
" style="fill:#0000ff;"/>
   </g>
   <g id="patch_40">
    <path clip-path="url(#p75b130bf5c)" d="M 945.125783 682.452 
L 960.771785 682.452 
L 960.771785 652.383028 
L 945.125783 652.383028 
z
" style="fill:#0000ff;"/>
   </g>
   <g id="patch_41">
    <path clip-path="url(#p75b130bf5c)" d="M 964.683286 682.452 
L 980.329288 682.452 
L 980.329288 652.772103 
L 964.683286 652.772103 
z
" style="fill:#0000ff;"/>
   </g>
   <g id="patch_42">
    <path clip-path="url(#p75b130bf5c)" d="M 984.240789 682.452 
L 999.886791 682.452 
L 999.886791 653.438373 
L 984.240789 653.438373 
z
" style="fill:#0000ff;"/>
   </g>
   <g id="patch_43">
    <path clip-path="url(#p75b130bf5c)" d="M 1003.798291 682.452 
L 1019.444294 682.452 
L 1019.444294 653.875873 
L 1003.798291 653.875873 
z
" style="fill:#0000ff;"/>
   </g>
   <g id="patch_44">
    <path clip-path="url(#p75b130bf5c)" d="M 1023.355794 682.452 
L 1039.001796 682.452 
L 1039.001796 654.383507 
L 1023.355794 654.383507 
z
" style="fill:#0000ff;"/>
   </g>
   <g id="patch_45">
    <path clip-path="url(#p75b130bf5c)" d="M 1042.913297 682.452 
L 1058.559299 682.452 
L 1058.559299 654.413564 
L 1042.913297 654.413564 
z
" style="fill:#0000ff;"/>
   </g>
   <g id="patch_46">
    <path clip-path="url(#p75b130bf5c)" d="M 1062.4708 682.452 
L 1078.116802 682.452 
L 1078.116802 655.45388 
L 1062.4708 655.45388 
z
" style="fill:#0000ff;"/>
   </g>
   <g id="patch_47">
    <path clip-path="url(#p75b130bf5c)" d="M 1082.028302 682.452 
L 1097.674304 682.452 
L 1097.674304 656.153547 
L 1082.028302 656.153547 
z
" style="fill:#0000ff;"/>
   </g>
   <g id="patch_48">
    <path clip-path="url(#p75b130bf5c)" d="M 1101.585805 682.452 
L 1117.231807 682.452 
L 1117.231807 657.158796 
L 1101.585805 657.158796 
z
" style="fill:#0000ff;"/>
   </g>
   <g id="patch_49">
    <path clip-path="url(#p75b130bf5c)" d="M 1121.143308 682.452 
L 1136.78931 682.452 
L 1136.78931 657.943625 
L 1121.143308 657.943625 
z
" style="fill:#0000ff;"/>
   </g>
   <g id="patch_50">
    <path clip-path="url(#p75b130bf5c)" d="M 1140.700811 682.452 
L 1156.346813 682.452 
L 1156.346813 658.653311 
L 1140.700811 658.653311 
z
" style="fill:#0000ff;"/>
   </g>
   <g id="patch_51">
    <path clip-path="url(#p75b130bf5c)" d="M 1160.258313 682.452 
L 1175.904315 682.452 
L 1175.904315 658.693388 
L 1160.258313 658.693388 
z
" style="fill:#0000ff;"/>
   </g>
   <g id="patch_52">
    <path clip-path="url(#p75b130bf5c)" d="M 1179.815816 682.452 
L 1195.461818 682.452 
L 1195.461818 658.766861 
L 1179.815816 658.766861 
z
" style="fill:#0000ff;"/>
   </g>
   <g id="matplotlib.axis_1">
    <g id="xtick_1">
     <g id="line2d_1">
      <defs>
       <path d="M 0 0 
L 0 3.5 
" id="m2dfc9419f6" style="stroke:#000000;stroke-width:0.8;"/>
      </defs>
      <g>
       <use style="stroke:#000000;stroke-width:0.8;" x="229.321183" xlink:href="#m2dfc9419f6" y="682.452"/>
      </g>
     </g>
     <g id="text_1">
      <!-- the -->
      <defs>
       <path d="M 18.3125 70.21875 
L 18.3125 54.6875 
L 36.8125 54.6875 
L 36.8125 47.703125 
L 18.3125 47.703125 
L 18.3125 18.015625 
Q 18.3125 11.328125 20.140625 9.421875 
Q 21.96875 7.515625 27.59375 7.515625 
L 36.8125 7.515625 
L 36.8125 0 
L 27.59375 0 
Q 17.1875 0 13.234375 3.875 
Q 9.28125 7.765625 9.28125 18.015625 
L 9.28125 47.703125 
L 2.6875 47.703125 
L 2.6875 54.6875 
L 9.28125 54.6875 
L 9.28125 70.21875 
z
" id="DejaVuSans-74"/>
       <path d="M 54.890625 33.015625 
L 54.890625 0 
L 45.90625 0 
L 45.90625 32.71875 
Q 45.90625 40.484375 42.875 44.328125 
Q 39.84375 48.1875 33.796875 48.1875 
Q 26.515625 48.1875 22.3125 43.546875 
Q 18.109375 38.921875 18.109375 30.90625 
L 18.109375 0 
L 9.078125 0 
L 9.078125 75.984375 
L 18.109375 75.984375 
L 18.109375 46.1875 
Q 21.34375 51.125 25.703125 53.5625 
Q 30.078125 56 35.796875 56 
Q 45.21875 56 50.046875 50.171875 
Q 54.890625 44.34375 54.890625 33.015625 
z
" id="DejaVuSans-68"/>
       <path d="M 56.203125 29.59375 
L 56.203125 25.203125 
L 14.890625 25.203125 
Q 15.484375 15.921875 20.484375 11.0625 
Q 25.484375 6.203125 34.421875 6.203125 
Q 39.59375 6.203125 44.453125 7.46875 
Q 49.3125 8.734375 54.109375 11.28125 
L 54.109375 2.78125 
Q 49.265625 0.734375 44.1875 -0.34375 
Q 39.109375 -1.421875 33.890625 -1.421875 
Q 20.796875 -1.421875 13.15625 6.1875 
Q 5.515625 13.8125 5.515625 26.8125 
Q 5.515625 40.234375 12.765625 48.109375 
Q 20.015625 56 32.328125 56 
Q 43.359375 56 49.78125 48.890625 
Q 56.203125 41.796875 56.203125 29.59375 
z
M 47.21875 32.234375 
Q 47.125 39.59375 43.09375 43.984375 
Q 39.0625 48.390625 32.421875 48.390625 
Q 24.90625 48.390625 20.390625 44.140625 
Q 15.875 39.890625 15.1875 32.171875 
z
" id="DejaVuSans-65"/>
      </defs>
      <g transform="translate(223.929825 713.220069)rotate(-45)scale(0.14 -0.14)">
       <use xlink:href="#DejaVuSans-74"/>
       <use x="39.208984" xlink:href="#DejaVuSans-68"/>
       <use x="102.587891" xlink:href="#DejaVuSans-65"/>
      </g>
     </g>
    </g>
    <g id="xtick_2">
     <g id="line2d_2">
      <g>
       <use style="stroke:#000000;stroke-width:0.8;" x="248.878686" xlink:href="#m2dfc9419f6" y="682.452"/>
      </g>
     </g>
     <g id="text_2">
      <!-- and -->
      <defs>
       <path d="M 34.28125 27.484375 
Q 23.390625 27.484375 19.1875 25 
Q 14.984375 22.515625 14.984375 16.5 
Q 14.984375 11.71875 18.140625 8.90625 
Q 21.296875 6.109375 26.703125 6.109375 
Q 34.1875 6.109375 38.703125 11.40625 
Q 43.21875 16.703125 43.21875 25.484375 
L 43.21875 27.484375 
z
M 52.203125 31.203125 
L 52.203125 0 
L 43.21875 0 
L 43.21875 8.296875 
Q 40.140625 3.328125 35.546875 0.953125 
Q 30.953125 -1.421875 24.3125 -1.421875 
Q 15.921875 -1.421875 10.953125 3.296875 
Q 6 8.015625 6 15.921875 
Q 6 25.140625 12.171875 29.828125 
Q 18.359375 34.515625 30.609375 34.515625 
L 43.21875 34.515625 
L 43.21875 35.40625 
Q 43.21875 41.609375 39.140625 45 
Q 35.0625 48.390625 27.6875 48.390625 
Q 23 48.390625 18.546875 47.265625 
Q 14.109375 46.140625 10.015625 43.890625 
L 10.015625 52.203125 
Q 14.9375 54.109375 19.578125 55.046875 
Q 24.21875 56 28.609375 56 
Q 40.484375 56 46.34375 49.84375 
Q 52.203125 43.703125 52.203125 31.203125 
z
" id="DejaVuSans-61"/>
       <path d="M 54.890625 33.015625 
L 54.890625 0 
L 45.90625 0 
L 45.90625 32.71875 
Q 45.90625 40.484375 42.875 44.328125 
Q 39.84375 48.1875 33.796875 48.1875 
Q 26.515625 48.1875 22.3125 43.546875 
Q 18.109375 38.921875 18.109375 30.90625 
L 18.109375 0 
L 9.078125 0 
L 9.078125 54.6875 
L 18.109375 54.6875 
L 18.109375 46.1875 
Q 21.34375 51.125 25.703125 53.5625 
Q 30.078125 56 35.796875 56 
Q 45.21875 56 50.046875 50.171875 
Q 54.890625 44.34375 54.890625 33.015625 
z
" id="DejaVuSans-6e"/>
       <path d="M 45.40625 46.390625 
L 45.40625 75.984375 
L 54.390625 75.984375 
L 54.390625 0 
L 45.40625 0 
L 45.40625 8.203125 
Q 42.578125 3.328125 38.25 0.953125 
Q 33.9375 -1.421875 27.875 -1.421875 
Q 17.96875 -1.421875 11.734375 6.484375 
Q 5.515625 14.40625 5.515625 27.296875 
Q 5.515625 40.1875 11.734375 48.09375 
Q 17.96875 56 27.875 56 
Q 33.9375 56 38.25 53.625 
Q 42.578125 51.265625 45.40625 46.390625 
z
M 14.796875 27.296875 
Q 14.796875 17.390625 18.875 11.75 
Q 22.953125 6.109375 30.078125 6.109375 
Q 37.203125 6.109375 41.296875 11.75 
Q 45.40625 17.390625 45.40625 27.296875 
Q 45.40625 37.203125 41.296875 42.84375 
Q 37.203125 48.484375 30.078125 48.484375 
Q 22.953125 48.484375 18.875 42.84375 
Q 14.796875 37.203125 14.796875 27.296875 
z
" id="DejaVuSans-64"/>
      </defs>
      <g transform="translate(242.297842 715.599041)rotate(-45)scale(0.14 -0.14)">
       <use xlink:href="#DejaVuSans-61"/>
       <use x="61.279297" xlink:href="#DejaVuSans-6e"/>
       <use x="124.658203" xlink:href="#DejaVuSans-64"/>
      </g>
     </g>
    </g>
    <g id="xtick_3">
     <g id="line2d_3">
      <g>
       <use style="stroke:#000000;stroke-width:0.8;" x="268.436188" xlink:href="#m2dfc9419f6" y="682.452"/>
      </g>
     </g>
     <g id="text_3">
      <!-- of -->
      <defs>
       <path d="M 30.609375 48.390625 
Q 23.390625 48.390625 19.1875 42.75 
Q 14.984375 37.109375 14.984375 27.296875 
Q 14.984375 17.484375 19.15625 11.84375 
Q 23.34375 6.203125 30.609375 6.203125 
Q 37.796875 6.203125 41.984375 11.859375 
Q 46.1875 17.53125 46.1875 27.296875 
Q 46.1875 37.015625 41.984375 42.703125 
Q 37.796875 48.390625 30.609375 48.390625 
z
M 30.609375 56 
Q 42.328125 56 49.015625 48.375 
Q 55.71875 40.765625 55.71875 27.296875 
Q 55.71875 13.875 49.015625 6.21875 
Q 42.328125 -1.421875 30.609375 -1.421875 
Q 18.84375 -1.421875 12.171875 6.21875 
Q 5.515625 13.875 5.515625 27.296875 
Q 5.515625 40.765625 12.171875 48.375 
Q 18.84375 56 30.609375 56 
z
" id="DejaVuSans-6f"/>
       <path d="M 37.109375 75.984375 
L 37.109375 68.5 
L 28.515625 68.5 
Q 23.6875 68.5 21.796875 66.546875 
Q 19.921875 64.59375 19.921875 59.515625 
L 19.921875 54.6875 
L 34.71875 54.6875 
L 34.71875 47.703125 
L 19.921875 47.703125 
L 19.921875 0 
L 10.890625 0 
L 10.890625 47.703125 
L 2.296875 47.703125 
L 2.296875 54.6875 
L 10.890625 54.6875 
L 10.890625 58.5 
Q 10.890625 67.625 15.140625 71.796875 
Q 19.390625 75.984375 28.609375 75.984375 
z
" id="DejaVuSans-66"/>
      </defs>
      <g transform="translate(266.396738 706.516254)rotate(-45)scale(0.14 -0.14)">
       <use xlink:href="#DejaVuSans-6f"/>
       <use x="61.181641" xlink:href="#DejaVuSans-66"/>
      </g>
     </g>
    </g>
    <g id="xtick_4">
     <g id="line2d_4">
      <g>
       <use style="stroke:#000000;stroke-width:0.8;" x="287.993691" xlink:href="#m2dfc9419f6" y="682.452"/>
      </g>
     </g>
     <g id="text_4">
      <!-- to -->
      <g transform="translate(285.756251 706.912234)rotate(-45)scale(0.14 -0.14)">
       <use xlink:href="#DejaVuSans-74"/>
       <use x="39.208984" xlink:href="#DejaVuSans-6f"/>
      </g>
     </g>
    </g>
    <g id="xtick_5">
     <g id="line2d_5">
      <g>
       <use style="stroke:#000000;stroke-width:0.8;" x="307.551194" xlink:href="#m2dfc9419f6" y="682.452"/>
      </g>
     </g>
     <g id="text_5">
      <!-- is -->
      <defs>
       <path d="M 9.421875 54.6875 
L 18.40625 54.6875 
L 18.40625 0 
L 9.421875 0 
z
M 9.421875 75.984375 
L 18.40625 75.984375 
L 18.40625 64.59375 
L 9.421875 64.59375 
z
" id="DejaVuSans-69"/>
       <path d="M 44.28125 53.078125 
L 44.28125 44.578125 
Q 40.484375 46.53125 36.375 47.5 
Q 32.28125 48.484375 27.875 48.484375 
Q 21.1875 48.484375 17.84375 46.4375 
Q 14.5 44.390625 14.5 40.28125 
Q 14.5 37.15625 16.890625 35.375 
Q 19.28125 33.59375 26.515625 31.984375 
L 29.59375 31.296875 
Q 39.15625 29.25 43.1875 25.515625 
Q 47.21875 21.78125 47.21875 15.09375 
Q 47.21875 7.46875 41.1875 3.015625 
Q 35.15625 -1.421875 24.609375 -1.421875 
Q 20.21875 -1.421875 15.453125 -0.5625 
Q 10.6875 0.296875 5.421875 2 
L 5.421875 11.28125 
Q 10.40625 8.6875 15.234375 7.390625 
Q 20.0625 6.109375 24.8125 6.109375 
Q 31.15625 6.109375 34.5625 8.28125 
Q 37.984375 10.453125 37.984375 14.40625 
Q 37.984375 18.0625 35.515625 20.015625 
Q 33.0625 21.96875 24.703125 23.78125 
L 21.578125 24.515625 
Q 13.234375 26.265625 9.515625 29.90625 
Q 5.8125 33.546875 5.8125 39.890625 
Q 5.8125 47.609375 11.28125 51.796875 
Q 16.75 56 26.8125 56 
Q 31.78125 56 36.171875 55.265625 
Q 40.578125 54.546875 44.28125 53.078125 
z
" id="DejaVuSans-73"/>
      </defs>
      <g transform="translate(306.329225 704.881291)rotate(-45)scale(0.14 -0.14)">
       <use xlink:href="#DejaVuSans-69"/>
       <use x="27.783203" xlink:href="#DejaVuSans-73"/>
      </g>
     </g>
    </g>
    <g id="xtick_6">
     <g id="line2d_6">
      <g>
       <use style="stroke:#000000;stroke-width:0.8;" x="327.108697" xlink:href="#m2dfc9419f6" y="682.452"/>
      </g>
     </g>
     <g id="text_6">
      <!-- br -->
      <defs>
       <path d="M 48.6875 27.296875 
Q 48.6875 37.203125 44.609375 42.84375 
Q 40.53125 48.484375 33.40625 48.484375 
Q 26.265625 48.484375 22.1875 42.84375 
Q 18.109375 37.203125 18.109375 27.296875 
Q 18.109375 17.390625 22.1875 11.75 
Q 26.265625 6.109375 33.40625 6.109375 
Q 40.53125 6.109375 44.609375 11.75 
Q 48.6875 17.390625 48.6875 27.296875 
z
M 18.109375 46.390625 
Q 20.953125 51.265625 25.265625 53.625 
Q 29.59375 56 35.59375 56 
Q 45.5625 56 51.78125 48.09375 
Q 58.015625 40.1875 58.015625 27.296875 
Q 58.015625 14.40625 51.78125 6.484375 
Q 45.5625 -1.421875 35.59375 -1.421875 
Q 29.59375 -1.421875 25.265625 0.953125 
Q 20.953125 3.328125 18.109375 8.203125 
L 18.109375 0 
L 9.078125 0 
L 9.078125 75.984375 
L 18.109375 75.984375 
z
" id="DejaVuSans-62"/>
       <path d="M 41.109375 46.296875 
Q 39.59375 47.171875 37.8125 47.578125 
Q 36.03125 48 33.890625 48 
Q 26.265625 48 22.1875 43.046875 
Q 18.109375 38.09375 18.109375 28.8125 
L 18.109375 0 
L 9.078125 0 
L 9.078125 54.6875 
L 18.109375 54.6875 
L 18.109375 46.1875 
Q 20.953125 51.171875 25.484375 53.578125 
Q 30.03125 56 36.53125 56 
Q 37.453125 56 38.578125 55.875 
Q 39.703125 55.765625 41.0625 55.515625 
z
" id="DejaVuSans-72"/>
      </defs>
      <g transform="translate(324.663212 707.328322)rotate(-45)scale(0.14 -0.14)">
       <use xlink:href="#DejaVuSans-62"/>
       <use x="63.476562" xlink:href="#DejaVuSans-72"/>
      </g>
     </g>
    </g>
    <g id="xtick_7">
     <g id="line2d_7">
      <g>
       <use style="stroke:#000000;stroke-width:0.8;" x="346.666199" xlink:href="#m2dfc9419f6" y="682.452"/>
      </g>
     </g>
     <g id="text_7">
      <!-- it -->
      <g transform="translate(346.082284 703.605184)rotate(-45)scale(0.14 -0.14)">
       <use xlink:href="#DejaVuSans-69"/>
       <use x="27.783203" xlink:href="#DejaVuSans-74"/>
      </g>
     </g>
    </g>
    <g id="xtick_8">
     <g id="line2d_8">
      <g>
       <use style="stroke:#000000;stroke-width:0.8;" x="366.223702" xlink:href="#m2dfc9419f6" y="682.452"/>
      </g>
     </g>
     <g id="text_8">
      <!-- in -->
      <g transform="translate(364.44334 705.998078)rotate(-45)scale(0.14 -0.14)">
       <use xlink:href="#DejaVuSans-69"/>
       <use x="27.783203" xlink:href="#DejaVuSans-6e"/>
      </g>
     </g>
    </g>
    <g id="xtick_9">
     <g id="line2d_9">
      <g>
       <use style="stroke:#000000;stroke-width:0.8;" x="385.781205" xlink:href="#m2dfc9419f6" y="682.452"/>
      </g>
     </g>
     <g id="text_9">
      <!-- this -->
      <g transform="translate(379.481878 715.036007)rotate(-45)scale(0.14 -0.14)">
       <use xlink:href="#DejaVuSans-74"/>
       <use x="39.208984" xlink:href="#DejaVuSans-68"/>
       <use x="102.587891" xlink:href="#DejaVuSans-69"/>
       <use x="130.371094" xlink:href="#DejaVuSans-73"/>
      </g>
     </g>
    </g>
    <g id="xtick_10">
     <g id="line2d_10">
      <g>
       <use style="stroke:#000000;stroke-width:0.8;" x="405.338708" xlink:href="#m2dfc9419f6" y="682.452"/>
      </g>
     </g>
     <g id="text_10">
      <!-- that -->
      <g transform="translate(398.019268 717.076231)rotate(-45)scale(0.14 -0.14)">
       <use xlink:href="#DejaVuSans-74"/>
       <use x="39.208984" xlink:href="#DejaVuSans-68"/>
       <use x="102.587891" xlink:href="#DejaVuSans-61"/>
       <use x="163.867188" xlink:href="#DejaVuSans-74"/>
      </g>
     </g>
    </g>
    <g id="xtick_11">
     <g id="line2d_11">
      <g>
       <use style="stroke:#000000;stroke-width:0.8;" x="424.89621" xlink:href="#m2dfc9419f6" y="682.452"/>
      </g>
     </g>
     <g id="text_11">
      <!-- was -->
      <defs>
       <path d="M 4.203125 54.6875 
L 13.1875 54.6875 
L 24.421875 12.015625 
L 35.59375 54.6875 
L 46.1875 54.6875 
L 57.421875 12.015625 
L 68.609375 54.6875 
L 77.59375 54.6875 
L 63.28125 0 
L 52.6875 0 
L 40.921875 44.828125 
L 29.109375 0 
L 18.5 0 
z
" id="DejaVuSans-77"/>
      </defs>
      <g transform="translate(417.968111 716.293552)rotate(-45)scale(0.14 -0.14)">
       <use xlink:href="#DejaVuSans-77"/>
       <use x="81.787109" xlink:href="#DejaVuSans-61"/>
       <use x="143.066406" xlink:href="#DejaVuSans-73"/>
      </g>
     </g>
    </g>
    <g id="xtick_12">
     <g id="line2d_12">
      <g>
       <use style="stroke:#000000;stroke-width:0.8;" x="444.453713" xlink:href="#m2dfc9419f6" y="682.452"/>
      </g>
     </g>
     <g id="text_12">
      <!-- as -->
      <g transform="translate(441.573579 708.197622)rotate(-45)scale(0.14 -0.14)">
       <use xlink:href="#DejaVuSans-61"/>
       <use x="61.279297" xlink:href="#DejaVuSans-73"/>
      </g>
     </g>
    </g>
    <g id="xtick_13">
     <g id="line2d_13">
      <g>
       <use style="stroke:#000000;stroke-width:0.8;" x="464.011216" xlink:href="#m2dfc9419f6" y="682.452"/>
      </g>
     </g>
     <g id="text_13">
      <!-- for -->
      <g transform="translate(459.936955 710.585875)rotate(-45)scale(0.14 -0.14)">
       <use xlink:href="#DejaVuSans-66"/>
       <use x="35.205078" xlink:href="#DejaVuSans-6f"/>
       <use x="96.386719" xlink:href="#DejaVuSans-72"/>
      </g>
     </g>
    </g>
    <g id="xtick_14">
     <g id="line2d_14">
      <g>
       <use style="stroke:#000000;stroke-width:0.8;" x="483.568719" xlink:href="#m2dfc9419f6" y="682.452"/>
      </g>
     </g>
     <g id="text_14">
      <!-- with -->
      <g transform="translate(475.799935 717.97492)rotate(-45)scale(0.14 -0.14)">
       <use xlink:href="#DejaVuSans-77"/>
       <use x="81.787109" xlink:href="#DejaVuSans-69"/>
       <use x="109.570312" xlink:href="#DejaVuSans-74"/>
       <use x="148.779297" xlink:href="#DejaVuSans-68"/>
      </g>
     </g>
    </g>
    <g id="xtick_15">
     <g id="line2d_15">
      <g>
       <use style="stroke:#000000;stroke-width:0.8;" x="503.126221" xlink:href="#m2dfc9419f6" y="682.452"/>
      </g>
     </g>
     <g id="text_15">
      <!-- movie -->
      <defs>
       <path d="M 52 44.1875 
Q 55.375 50.25 60.0625 53.125 
Q 64.75 56 71.09375 56 
Q 79.640625 56 84.28125 50.015625 
Q 88.921875 44.046875 88.921875 33.015625 
L 88.921875 0 
L 79.890625 0 
L 79.890625 32.71875 
Q 79.890625 40.578125 77.09375 44.375 
Q 74.3125 48.1875 68.609375 48.1875 
Q 61.625 48.1875 57.5625 43.546875 
Q 53.515625 38.921875 53.515625 30.90625 
L 53.515625 0 
L 44.484375 0 
L 44.484375 32.71875 
Q 44.484375 40.625 41.703125 44.40625 
Q 38.921875 48.1875 33.109375 48.1875 
Q 26.21875 48.1875 22.15625 43.53125 
Q 18.109375 38.875 18.109375 30.90625 
L 18.109375 0 
L 9.078125 0 
L 9.078125 54.6875 
L 18.109375 54.6875 
L 18.109375 46.1875 
Q 21.1875 51.21875 25.484375 53.609375 
Q 29.78125 56 35.6875 56 
Q 41.65625 56 45.828125 52.96875 
Q 50 49.953125 52 44.1875 
z
" id="DejaVuSans-6d"/>
       <path d="M 2.984375 54.6875 
L 12.5 54.6875 
L 29.59375 8.796875 
L 46.6875 54.6875 
L 56.203125 54.6875 
L 35.6875 0 
L 23.484375 0 
z
" id="DejaVuSans-76"/>
      </defs>
      <g transform="translate(490.657498 727.3748)rotate(-45)scale(0.14 -0.14)">
       <use xlink:href="#DejaVuSans-6d"/>
       <use x="97.412109" xlink:href="#DejaVuSans-6f"/>
       <use x="158.59375" xlink:href="#DejaVuSans-76"/>
       <use x="217.773438" xlink:href="#DejaVuSans-69"/>
       <use x="245.556641" xlink:href="#DejaVuSans-65"/>
      </g>
     </g>
    </g>
    <g id="xtick_16">
     <g id="line2d_16">
      <g>
       <use style="stroke:#000000;stroke-width:0.8;" x="522.683724" xlink:href="#m2dfc9419f6" y="682.452"/>
      </g>
     </g>
     <g id="text_16">
      <!-- but -->
      <defs>
       <path d="M 8.5 21.578125 
L 8.5 54.6875 
L 17.484375 54.6875 
L 17.484375 21.921875 
Q 17.484375 14.15625 20.5 10.265625 
Q 23.53125 6.390625 29.59375 6.390625 
Q 36.859375 6.390625 41.078125 11.03125 
Q 45.3125 15.671875 45.3125 23.6875 
L 45.3125 54.6875 
L 54.296875 54.6875 
L 54.296875 0 
L 45.3125 0 
L 45.3125 8.40625 
Q 42.046875 3.421875 37.71875 1 
Q 33.40625 -1.421875 27.6875 -1.421875 
Q 18.265625 -1.421875 13.375 4.4375 
Q 8.5 10.296875 8.5 21.578125 
z
M 31.109375 56 
z
" id="DejaVuSans-75"/>
      </defs>
      <g transform="translate(517.195691 713.413418)rotate(-45)scale(0.14 -0.14)">
       <use xlink:href="#DejaVuSans-62"/>
       <use x="63.476562" xlink:href="#DejaVuSans-75"/>
       <use x="126.855469" xlink:href="#DejaVuSans-74"/>
      </g>
     </g>
    </g>
    <g id="xtick_17">
     <g id="line2d_17">
      <g>
       <use style="stroke:#000000;stroke-width:0.8;" x="542.241227" xlink:href="#m2dfc9419f6" y="682.452"/>
      </g>
     </g>
     <g id="text_17">
      <!-- film -->
      <defs>
       <path d="M 9.421875 75.984375 
L 18.40625 75.984375 
L 18.40625 0 
L 9.421875 0 
z
" id="DejaVuSans-6c"/>
      </defs>
      <g transform="translate(535.658836 715.602135)rotate(-45)scale(0.14 -0.14)">
       <use xlink:href="#DejaVuSans-66"/>
       <use x="35.205078" xlink:href="#DejaVuSans-69"/>
       <use x="62.988281" xlink:href="#DejaVuSans-6c"/>
       <use x="90.771484" xlink:href="#DejaVuSans-6d"/>
      </g>
     </g>
    </g>
    <g id="xtick_18">
     <g id="line2d_18">
      <g>
       <use style="stroke:#000000;stroke-width:0.8;" x="561.798729" xlink:href="#m2dfc9419f6" y="682.452"/>
      </g>
     </g>
     <g id="text_18">
      <!-- you -->
      <defs>
       <path d="M 32.171875 -5.078125 
Q 28.375 -14.84375 24.75 -17.8125 
Q 21.140625 -20.796875 15.09375 -20.796875 
L 7.90625 -20.796875 
L 7.90625 -13.28125 
L 13.1875 -13.28125 
Q 16.890625 -13.28125 18.9375 -11.515625 
Q 21 -9.765625 23.484375 -3.21875 
L 25.09375 0.875 
L 2.984375 54.6875 
L 12.5 54.6875 
L 29.59375 11.921875 
L 46.6875 54.6875 
L 56.203125 54.6875 
z
" id="DejaVuSans-79"/>
      </defs>
      <g transform="translate(555.43521 715.164391)rotate(-45)scale(0.14 -0.14)">
       <use xlink:href="#DejaVuSans-79"/>
       <use x="59.179688" xlink:href="#DejaVuSans-6f"/>
       <use x="120.361328" xlink:href="#DejaVuSans-75"/>
      </g>
     </g>
    </g>
    <g id="xtick_19">
     <g id="line2d_19">
      <g>
       <use style="stroke:#000000;stroke-width:0.8;" x="581.356232" xlink:href="#m2dfc9419f6" y="682.452"/>
      </g>
     </g>
     <g id="text_19">
      <!-- on -->
      <g transform="translate(577.922345 709.305128)rotate(-45)scale(0.14 -0.14)">
       <use xlink:href="#DejaVuSans-6f"/>
       <use x="61.181641" xlink:href="#DejaVuSans-6e"/>
      </g>
     </g>
    </g>
    <g id="xtick_20">
     <g id="line2d_20">
      <g>
       <use style="stroke:#000000;stroke-width:0.8;" x="600.913735" xlink:href="#m2dfc9419f6" y="682.452"/>
      </g>
     </g>
     <g id="text_20">
      <!-- not -->
      <g transform="translate(595.539392 713.186039)rotate(-45)scale(0.14 -0.14)">
       <use xlink:href="#DejaVuSans-6e"/>
       <use x="63.378906" xlink:href="#DejaVuSans-6f"/>
       <use x="124.560547" xlink:href="#DejaVuSans-74"/>
      </g>
     </g>
    </g>
    <g id="xtick_21">
     <g id="line2d_21">
      <g>
       <use style="stroke:#000000;stroke-width:0.8;" x="620.471238" xlink:href="#m2dfc9419f6" y="682.452"/>
      </g>
     </g>
     <g id="text_21">
      <!-- he -->
      <g transform="translate(617.020336 709.339157)rotate(-45)scale(0.14 -0.14)">
       <use xlink:href="#DejaVuSans-68"/>
       <use x="63.378906" xlink:href="#DejaVuSans-65"/>
      </g>
     </g>
    </g>
    <g id="xtick_22">
     <g id="line2d_22">
      <g>
       <use style="stroke:#000000;stroke-width:0.8;" x="640.02874" xlink:href="#m2dfc9419f6" y="682.452"/>
      </g>
     </g>
     <g id="text_22">
      <!-- are -->
      <g transform="translate(634.64821 713.198413)rotate(-45)scale(0.14 -0.14)">
       <use xlink:href="#DejaVuSans-61"/>
       <use x="61.279297" xlink:href="#DejaVuSans-72"/>
       <use x="102.361328" xlink:href="#DejaVuSans-65"/>
      </g>
     </g>
    </g>
    <g id="xtick_23">
     <g id="line2d_23">
      <g>
       <use style="stroke:#000000;stroke-width:0.8;" x="659.586243" xlink:href="#m2dfc9419f6" y="682.452"/>
      </g>
     </g>
     <g id="text_23">
      <!-- his -->
      <g transform="translate(655.227372 711.155096)rotate(-45)scale(0.14 -0.14)">
       <use xlink:href="#DejaVuSans-68"/>
       <use x="63.378906" xlink:href="#DejaVuSans-69"/>
       <use x="91.162109" xlink:href="#DejaVuSans-73"/>
      </g>
     </g>
    </g>
    <g id="xtick_24">
     <g id="line2d_24">
      <g>
       <use style="stroke:#000000;stroke-width:0.8;" x="679.143746" xlink:href="#m2dfc9419f6" y="682.452"/>
      </g>
     </g>
     <g id="text_24">
      <!-- have -->
      <g transform="translate(669.729945 721.264955)rotate(-45)scale(0.14 -0.14)">
       <use xlink:href="#DejaVuSans-68"/>
       <use x="63.378906" xlink:href="#DejaVuSans-61"/>
       <use x="124.658203" xlink:href="#DejaVuSans-76"/>
       <use x="183.837891" xlink:href="#DejaVuSans-65"/>
      </g>
     </g>
    </g>
    <g id="xtick_25">
     <g id="line2d_25">
      <g>
       <use style="stroke:#000000;stroke-width:0.8;" x="698.701249" xlink:href="#m2dfc9419f6" y="682.452"/>
      </g>
     </g>
     <g id="text_25">
      <!-- be -->
      <g transform="translate(695.244933 709.349985)rotate(-45)scale(0.14 -0.14)">
       <use xlink:href="#DejaVuSans-62"/>
       <use x="63.476562" xlink:href="#DejaVuSans-65"/>
      </g>
     </g>
    </g>
    <g id="xtick_26">
     <g id="line2d_26">
      <g>
       <use style="stroke:#000000;stroke-width:0.8;" x="718.258751" xlink:href="#m2dfc9419f6" y="682.452"/>
      </g>
     </g>
     <g id="text_26">
      <!-- one -->
      <g transform="translate(711.779223 715.396411)rotate(-45)scale(0.14 -0.14)">
       <use xlink:href="#DejaVuSans-6f"/>
       <use x="61.181641" xlink:href="#DejaVuSans-6e"/>
       <use x="124.560547" xlink:href="#DejaVuSans-65"/>
      </g>
     </g>
    </g>
    <g id="xtick_27">
     <g id="line2d_27">
      <g>
       <use style="stroke:#000000;stroke-width:0.8;" x="737.816254" xlink:href="#m2dfc9419f6" y="682.452"/>
      </g>
     </g>
     <g id="text_27">
      <!-- all -->
      <g transform="translate(734.764425 708.54101)rotate(-45)scale(0.14 -0.14)">
       <use xlink:href="#DejaVuSans-61"/>
       <use x="61.279297" xlink:href="#DejaVuSans-6c"/>
       <use x="89.0625" xlink:href="#DejaVuSans-6c"/>
      </g>
     </g>
    </g>
    <g id="xtick_28">
     <g id="line2d_28">
      <g>
       <use style="stroke:#000000;stroke-width:0.8;" x="757.373757" xlink:href="#m2dfc9419f6" y="682.452"/>
      </g>
     </g>
     <g id="text_28">
      <!-- at -->
      <g transform="translate(755.131676 706.921515)rotate(-45)scale(0.14 -0.14)">
       <use xlink:href="#DejaVuSans-61"/>
       <use x="61.279297" xlink:href="#DejaVuSans-74"/>
      </g>
     </g>
    </g>
    <g id="xtick_29">
     <g id="line2d_29">
      <g>
       <use style="stroke:#000000;stroke-width:0.8;" x="776.93126" xlink:href="#m2dfc9419f6" y="682.452"/>
      </g>
     </g>
     <g id="text_29">
      <!-- they -->
      <g transform="translate(768.61027 719.079332)rotate(-45)scale(0.14 -0.14)">
       <use xlink:href="#DejaVuSans-74"/>
       <use x="39.208984" xlink:href="#DejaVuSans-68"/>
       <use x="102.587891" xlink:href="#DejaVuSans-65"/>
       <use x="164.111328" xlink:href="#DejaVuSans-79"/>
      </g>
     </g>
    </g>
    <g id="xtick_30">
     <g id="line2d_30">
      <g>
       <use style="stroke:#000000;stroke-width:0.8;" x="796.488762" xlink:href="#m2dfc9419f6" y="682.452"/>
      </g>
     </g>
     <g id="text_30">
      <!-- by -->
      <g transform="translate(793.148456 709.117965)rotate(-45)scale(0.14 -0.14)">
       <use xlink:href="#DejaVuSans-62"/>
       <use x="63.476562" xlink:href="#DejaVuSans-79"/>
      </g>
     </g>
    </g>
    <g id="xtick_31">
     <g id="line2d_31">
      <g>
       <use style="stroke:#000000;stroke-width:0.8;" x="816.046265" xlink:href="#m2dfc9419f6" y="682.452"/>
      </g>
     </g>
     <g id="text_31">
      <!-- an -->
      <g transform="translate(812.607737 709.314409)rotate(-45)scale(0.14 -0.14)">
       <use xlink:href="#DejaVuSans-61"/>
       <use x="61.279297" xlink:href="#DejaVuSans-6e"/>
      </g>
     </g>
    </g>
    <g id="xtick_32">
     <g id="line2d_32">
      <g>
       <use style="stroke:#000000;stroke-width:0.8;" x="835.603768" xlink:href="#m2dfc9419f6" y="682.452"/>
      </g>
     </g>
     <g id="text_32">
      <!-- who -->
      <g transform="translate(828.121915 717.401058)rotate(-45)scale(0.14 -0.14)">
       <use xlink:href="#DejaVuSans-77"/>
       <use x="81.787109" xlink:href="#DejaVuSans-68"/>
       <use x="145.166016" xlink:href="#DejaVuSans-6f"/>
      </g>
     </g>
    </g>
    <g id="xtick_33">
     <g id="line2d_33">
      <g>
       <use style="stroke:#000000;stroke-width:0.8;" x="855.161271" xlink:href="#m2dfc9419f6" y="682.452"/>
      </g>
     </g>
     <g id="text_33">
      <!-- so -->
      <g transform="translate(852.285777 708.188341)rotate(-45)scale(0.14 -0.14)">
       <use xlink:href="#DejaVuSans-73"/>
       <use x="52.099609" xlink:href="#DejaVuSans-6f"/>
      </g>
     </g>
    </g>
    <g id="xtick_34">
     <g id="line2d_34">
      <g>
       <use style="stroke:#000000;stroke-width:0.8;" x="874.718773" xlink:href="#m2dfc9419f6" y="682.452"/>
      </g>
     </g>
     <g id="text_34">
      <!-- from -->
      <g transform="translate(865.824696 720.225508)rotate(-45)scale(0.14 -0.14)">
       <use xlink:href="#DejaVuSans-66"/>
       <use x="35.205078" xlink:href="#DejaVuSans-72"/>
       <use x="76.287109" xlink:href="#DejaVuSans-6f"/>
       <use x="137.46875" xlink:href="#DejaVuSans-6d"/>
      </g>
     </g>
    </g>
    <g id="xtick_35">
     <g id="line2d_35">
      <g>
       <use style="stroke:#000000;stroke-width:0.8;" x="894.276276" xlink:href="#m2dfc9419f6" y="682.452"/>
      </g>
     </g>
     <g id="text_35">
      <!-- like -->
      <defs>
       <path d="M 9.078125 75.984375 
L 18.109375 75.984375 
L 18.109375 31.109375 
L 44.921875 54.6875 
L 56.390625 54.6875 
L 27.390625 29.109375 
L 57.625 0 
L 45.90625 0 
L 18.109375 26.703125 
L 18.109375 0 
L 9.078125 0 
z
" id="DejaVuSans-6b"/>
      </defs>
      <g transform="translate(888.34818 714.293545)rotate(-45)scale(0.14 -0.14)">
       <use xlink:href="#DejaVuSans-6c"/>
       <use x="27.783203" xlink:href="#DejaVuSans-69"/>
       <use x="55.566406" xlink:href="#DejaVuSans-6b"/>
       <use x="113.429688" xlink:href="#DejaVuSans-65"/>
      </g>
     </g>
    </g>
    <g id="xtick_36">
     <g id="line2d_36">
      <g>
       <use style="stroke:#000000;stroke-width:0.8;" x="913.833779" xlink:href="#m2dfc9419f6" y="682.452"/>
      </g>
     </g>
     <g id="text_36">
      <!-- there -->
      <g transform="translate(903.363516 723.377879)rotate(-45)scale(0.14 -0.14)">
       <use xlink:href="#DejaVuSans-74"/>
       <use x="39.208984" xlink:href="#DejaVuSans-68"/>
       <use x="102.587891" xlink:href="#DejaVuSans-65"/>
       <use x="164.111328" xlink:href="#DejaVuSans-72"/>
       <use x="205.193359" xlink:href="#DejaVuSans-65"/>
      </g>
     </g>
    </g>
    <g id="xtick_37">
     <g id="line2d_37">
      <g>
       <use style="stroke:#000000;stroke-width:0.8;" x="933.391281" xlink:href="#m2dfc9419f6" y="682.452"/>
      </g>
     </g>
     <g id="text_37">
      <!-- her -->
      <g transform="translate(927.905569 713.408778)rotate(-45)scale(0.14 -0.14)">
       <use xlink:href="#DejaVuSans-68"/>
       <use x="63.378906" xlink:href="#DejaVuSans-65"/>
       <use x="124.902344" xlink:href="#DejaVuSans-72"/>
      </g>
     </g>
    </g>
    <g id="xtick_38">
     <g id="line2d_38">
      <g>
       <use style="stroke:#000000;stroke-width:0.8;" x="952.948784" xlink:href="#m2dfc9419f6" y="682.452"/>
      </g>
     </g>
     <g id="text_38">
      <!-- or -->
      <g transform="translate(950.616989 707.100943)rotate(-45)scale(0.14 -0.14)">
       <use xlink:href="#DejaVuSans-6f"/>
       <use x="61.181641" xlink:href="#DejaVuSans-72"/>
      </g>
     </g>
    </g>
    <g id="xtick_39">
     <g id="line2d_39">
      <g>
       <use style="stroke:#000000;stroke-width:0.8;" x="972.506287" xlink:href="#m2dfc9419f6" y="682.452"/>
      </g>
     </g>
     <g id="text_39">
      <!-- just -->
      <defs>
       <path d="M 9.421875 54.6875 
L 18.40625 54.6875 
L 18.40625 -0.984375 
Q 18.40625 -11.421875 14.421875 -16.109375 
Q 10.453125 -20.796875 1.609375 -20.796875 
L -1.8125 -20.796875 
L -1.8125 -13.1875 
L 0.59375 -13.1875 
Q 5.71875 -13.1875 7.5625 -10.8125 
Q 9.421875 -8.453125 9.421875 -0.984375 
z
M 9.421875 75.984375 
L 18.40625 75.984375 
L 18.40625 64.59375 
L 9.421875 64.59375 
z
" id="DejaVuSans-6a"/>
      </defs>
      <g transform="translate(966.20696 715.036007)rotate(-45)scale(0.14 -0.14)">
       <use xlink:href="#DejaVuSans-6a"/>
       <use x="27.783203" xlink:href="#DejaVuSans-75"/>
       <use x="91.162109" xlink:href="#DejaVuSans-73"/>
       <use x="143.261719" xlink:href="#DejaVuSans-74"/>
      </g>
     </g>
    </g>
    <g id="xtick_40">
     <g id="line2d_40">
      <g>
       <use style="stroke:#000000;stroke-width:0.8;" x="992.06379" xlink:href="#m2dfc9419f6" y="682.452"/>
      </g>
     </g>
     <g id="text_40">
      <!-- about -->
      <g transform="translate(980.513863 725.537206)rotate(-45)scale(0.14 -0.14)">
       <use xlink:href="#DejaVuSans-61"/>
       <use x="61.279297" xlink:href="#DejaVuSans-62"/>
       <use x="124.755859" xlink:href="#DejaVuSans-6f"/>
       <use x="185.9375" xlink:href="#DejaVuSans-75"/>
       <use x="249.316406" xlink:href="#DejaVuSans-74"/>
      </g>
     </g>
    </g>
    <g id="xtick_41">
     <g id="line2d_41">
      <g>
       <use style="stroke:#000000;stroke-width:0.8;" x="1011.621292" xlink:href="#m2dfc9419f6" y="682.452"/>
      </g>
     </g>
     <g id="text_41">
      <!-- out -->
      <g transform="translate(1006.246949 713.186039)rotate(-45)scale(0.14 -0.14)">
       <use xlink:href="#DejaVuSans-6f"/>
       <use x="61.181641" xlink:href="#DejaVuSans-75"/>
       <use x="124.560547" xlink:href="#DejaVuSans-74"/>
      </g>
     </g>
    </g>
    <g id="xtick_42">
     <g id="line2d_42">
      <g>
       <use style="stroke:#000000;stroke-width:0.8;" x="1031.178795" xlink:href="#m2dfc9419f6" y="682.452"/>
      </g>
     </g>
     <g id="text_42">
      <!-- if -->
      <g transform="translate(1030.79287 703.209204)rotate(-45)scale(0.14 -0.14)">
       <use xlink:href="#DejaVuSans-69"/>
       <use x="27.783203" xlink:href="#DejaVuSans-66"/>
      </g>
     </g>
    </g>
    <g id="xtick_43">
     <g id="line2d_43">
      <g>
       <use style="stroke:#000000;stroke-width:0.8;" x="1050.736298" xlink:href="#m2dfc9419f6" y="682.452"/>
      </g>
     </g>
     <g id="text_43">
      <!-- has -->
      <g transform="translate(1044.719261 714.471427)rotate(-45)scale(0.14 -0.14)">
       <use xlink:href="#DejaVuSans-68"/>
       <use x="63.378906" xlink:href="#DejaVuSans-61"/>
       <use x="124.658203" xlink:href="#DejaVuSans-73"/>
      </g>
     </g>
    </g>
    <g id="xtick_44">
     <g id="line2d_44">
      <g>
       <use style="stroke:#000000;stroke-width:0.8;" x="1070.293801" xlink:href="#m2dfc9419f6" y="682.452"/>
      </g>
     </g>
     <g id="text_44">
      <!-- what -->
      <g transform="translate(1060.866852 721.291251)rotate(-45)scale(0.14 -0.14)">
       <use xlink:href="#DejaVuSans-77"/>
       <use x="81.787109" xlink:href="#DejaVuSans-68"/>
       <use x="145.166016" xlink:href="#DejaVuSans-61"/>
       <use x="206.445312" xlink:href="#DejaVuSans-74"/>
      </g>
     </g>
    </g>
    <g id="xtick_45">
     <g id="line2d_45">
      <g>
       <use style="stroke:#000000;stroke-width:0.8;" x="1089.851303" xlink:href="#m2dfc9419f6" y="682.452"/>
      </g>
     </g>
     <g id="text_45">
      <!-- some -->
      <g transform="translate(1079.108805 723.922351)rotate(-45)scale(0.14 -0.14)">
       <use xlink:href="#DejaVuSans-73"/>
       <use x="52.099609" xlink:href="#DejaVuSans-6f"/>
       <use x="113.28125" xlink:href="#DejaVuSans-6d"/>
       <use x="210.693359" xlink:href="#DejaVuSans-65"/>
      </g>
     </g>
    </g>
    <g id="xtick_46">
     <g id="line2d_46">
      <g>
       <use style="stroke:#000000;stroke-width:0.8;" x="1109.408806" xlink:href="#m2dfc9419f6" y="682.452"/>
      </g>
     </g>
     <g id="text_46">
      <!-- good -->
      <defs>
       <path d="M 45.40625 27.984375 
Q 45.40625 37.75 41.375 43.109375 
Q 37.359375 48.484375 30.078125 48.484375 
Q 22.859375 48.484375 18.828125 43.109375 
Q 14.796875 37.75 14.796875 27.984375 
Q 14.796875 18.265625 18.828125 12.890625 
Q 22.859375 7.515625 30.078125 7.515625 
Q 37.359375 7.515625 41.375 12.890625 
Q 45.40625 18.265625 45.40625 27.984375 
z
M 54.390625 6.78125 
Q 54.390625 -7.171875 48.1875 -13.984375 
Q 42 -20.796875 29.203125 -20.796875 
Q 24.46875 -20.796875 20.265625 -20.09375 
Q 16.0625 -19.390625 12.109375 -17.921875 
L 12.109375 -9.1875 
Q 16.0625 -11.328125 19.921875 -12.34375 
Q 23.78125 -13.375 27.78125 -13.375 
Q 36.625 -13.375 41.015625 -8.765625 
Q 45.40625 -4.15625 45.40625 5.171875 
L 45.40625 9.625 
Q 42.625 4.78125 38.28125 2.390625 
Q 33.9375 0 27.875 0 
Q 17.828125 0 11.671875 7.65625 
Q 5.515625 15.328125 5.515625 27.984375 
Q 5.515625 40.671875 11.671875 48.328125 
Q 17.828125 56 27.875 56 
Q 33.9375 56 38.28125 53.609375 
Q 42.625 51.21875 45.40625 46.390625 
L 45.40625 54.6875 
L 54.390625 54.6875 
z
" id="DejaVuSans-67"/>
      </defs>
      <g transform="translate(1099.798562 721.657841)rotate(-45)scale(0.14 -0.14)">
       <use xlink:href="#DejaVuSans-67"/>
       <use x="63.476562" xlink:href="#DejaVuSans-6f"/>
       <use x="124.658203" xlink:href="#DejaVuSans-6f"/>
       <use x="185.839844" xlink:href="#DejaVuSans-64"/>
      </g>
     </g>
    </g>
    <g id="xtick_47">
     <g id="line2d_47">
      <g>
       <use style="stroke:#000000;stroke-width:0.8;" x="1128.966309" xlink:href="#m2dfc9419f6" y="682.452"/>
      </g>
     </g>
     <g id="text_47">
      <!-- can -->
      <defs>
       <path d="M 48.78125 52.59375 
L 48.78125 44.1875 
Q 44.96875 46.296875 41.140625 47.34375 
Q 37.3125 48.390625 33.40625 48.390625 
Q 24.65625 48.390625 19.8125 42.84375 
Q 14.984375 37.3125 14.984375 27.296875 
Q 14.984375 17.28125 19.8125 11.734375 
Q 24.65625 6.203125 33.40625 6.203125 
Q 37.3125 6.203125 41.140625 7.25 
Q 44.96875 8.296875 48.78125 10.40625 
L 48.78125 2.09375 
Q 45.015625 0.34375 40.984375 -0.53125 
Q 36.96875 -1.421875 32.421875 -1.421875 
Q 20.0625 -1.421875 12.78125 6.34375 
Q 5.515625 14.109375 5.515625 27.296875 
Q 5.515625 40.671875 12.859375 48.328125 
Q 20.21875 56 33.015625 56 
Q 37.15625 56 41.109375 55.140625 
Q 45.0625 54.296875 48.78125 52.59375 
z
" id="DejaVuSans-63"/>
      </defs>
      <g transform="translate(1122.806193 714.757584)rotate(-45)scale(0.14 -0.14)">
       <use xlink:href="#DejaVuSans-63"/>
       <use x="54.980469" xlink:href="#DejaVuSans-61"/>
       <use x="116.259766" xlink:href="#DejaVuSans-6e"/>
      </g>
     </g>
    </g>
    <g id="xtick_48">
     <g id="line2d_48">
      <g>
       <use style="stroke:#000000;stroke-width:0.8;" x="1148.523812" xlink:href="#m2dfc9419f6" y="682.452"/>
      </g>
     </g>
     <g id="text_48">
      <!-- more -->
      <g transform="translate(1138.326558 722.831859)rotate(-45)scale(0.14 -0.14)">
       <use xlink:href="#DejaVuSans-6d"/>
       <use x="97.412109" xlink:href="#DejaVuSans-6f"/>
       <use x="158.59375" xlink:href="#DejaVuSans-72"/>
       <use x="199.675781" xlink:href="#DejaVuSans-65"/>
      </g>
     </g>
    </g>
    <g id="xtick_49">
     <g id="line2d_49">
      <g>
       <use style="stroke:#000000;stroke-width:0.8;" x="1168.081314" xlink:href="#m2dfc9419f6" y="682.452"/>
      </g>
     </g>
     <g id="text_49">
      <!-- she -->
      <g transform="translate(1162.051903 714.496175)rotate(-45)scale(0.14 -0.14)">
       <use xlink:href="#DejaVuSans-73"/>
       <use x="52.099609" xlink:href="#DejaVuSans-68"/>
       <use x="115.478516" xlink:href="#DejaVuSans-65"/>
      </g>
     </g>
    </g>
    <g id="xtick_50">
     <g id="line2d_50">
      <g>
       <use style="stroke:#000000;stroke-width:0.8;" x="1187.638817" xlink:href="#m2dfc9419f6" y="682.452"/>
      </g>
     </g>
     <g id="text_50">
      <!-- when -->
      <g transform="translate(1177.003047 723.708893)rotate(-45)scale(0.14 -0.14)">
       <use xlink:href="#DejaVuSans-77"/>
       <use x="81.787109" xlink:href="#DejaVuSans-68"/>
       <use x="145.166016" xlink:href="#DejaVuSans-65"/>
       <use x="206.689453" xlink:href="#DejaVuSans-6e"/>
      </g>
     </g>
    </g>
    <g id="text_51">
     <!-- N-grams -->
     <defs>
      <path d="M 9.8125 72.90625 
L 23.09375 72.90625 
L 55.421875 11.921875 
L 55.421875 72.90625 
L 64.984375 72.90625 
L 64.984375 0 
L 51.703125 0 
L 19.390625 60.984375 
L 19.390625 0 
L 9.8125 0 
z
" id="DejaVuSans-4e"/>
      <path d="M 4.890625 31.390625 
L 31.203125 31.390625 
L 31.203125 23.390625 
L 4.890625 23.390625 
z
" id="DejaVuSans-2d"/>
     </defs>
     <g transform="translate(678.641406 744.071398)scale(0.14 -0.14)">
      <use xlink:href="#DejaVuSans-4e"/>
      <use x="74.804688" xlink:href="#DejaVuSans-2d"/>
      <use x="110.888672" xlink:href="#DejaVuSans-67"/>
      <use x="174.365234" xlink:href="#DejaVuSans-72"/>
      <use x="215.478516" xlink:href="#DejaVuSans-61"/>
      <use x="276.757812" xlink:href="#DejaVuSans-6d"/>
      <use x="374.169922" xlink:href="#DejaVuSans-73"/>
     </g>
    </g>
   </g>
   <g id="matplotlib.axis_2">
    <g id="ytick_1">
     <g id="line2d_51">
      <defs>
       <path d="M 0 0 
L -3.5 0 
" id="mdb682ef992" style="stroke:#000000;stroke-width:0.8;"/>
      </defs>
      <g>
       <use style="stroke:#000000;stroke-width:0.8;" x="172.8" xlink:href="#mdb682ef992" y="682.452"/>
      </g>
     </g>
     <g id="text_52">
      <!-- 0 -->
      <defs>
       <path d="M 31.78125 66.40625 
Q 24.171875 66.40625 20.328125 58.90625 
Q 16.5 51.421875 16.5 36.375 
Q 16.5 21.390625 20.328125 13.890625 
Q 24.171875 6.390625 31.78125 6.390625 
Q 39.453125 6.390625 43.28125 13.890625 
Q 47.125 21.390625 47.125 36.375 
Q 47.125 51.421875 43.28125 58.90625 
Q 39.453125 66.40625 31.78125 66.40625 
z
M 31.78125 74.21875 
Q 44.046875 74.21875 50.515625 64.515625 
Q 56.984375 54.828125 56.984375 36.375 
Q 56.984375 17.96875 50.515625 8.265625 
Q 44.046875 -1.421875 31.78125 -1.421875 
Q 19.53125 -1.421875 13.0625 8.265625 
Q 6.59375 17.96875 6.59375 36.375 
Q 6.59375 54.828125 13.0625 64.515625 
Q 19.53125 74.21875 31.78125 74.21875 
z
" id="DejaVuSans-30"/>
      </defs>
      <g transform="translate(156.8925 687.770906)scale(0.14 -0.14)">
       <use xlink:href="#DejaVuSans-30"/>
      </g>
     </g>
    </g>
    <g id="ytick_2">
     <g id="line2d_52">
      <g>
       <use style="stroke:#000000;stroke-width:0.8;" x="172.8" xlink:href="#mdb682ef992" y="598.959547"/>
      </g>
     </g>
     <g id="text_53">
      <!-- 50000 -->
      <defs>
       <path d="M 10.796875 72.90625 
L 49.515625 72.90625 
L 49.515625 64.59375 
L 19.828125 64.59375 
L 19.828125 46.734375 
Q 21.96875 47.46875 24.109375 47.828125 
Q 26.265625 48.1875 28.421875 48.1875 
Q 40.625 48.1875 47.75 41.5 
Q 54.890625 34.8125 54.890625 23.390625 
Q 54.890625 11.625 47.5625 5.09375 
Q 40.234375 -1.421875 26.90625 -1.421875 
Q 22.3125 -1.421875 17.546875 -0.640625 
Q 12.796875 0.140625 7.71875 1.703125 
L 7.71875 11.625 
Q 12.109375 9.234375 16.796875 8.0625 
Q 21.484375 6.890625 26.703125 6.890625 
Q 35.15625 6.890625 40.078125 11.328125 
Q 45.015625 15.765625 45.015625 23.390625 
Q 45.015625 31 40.078125 35.4375 
Q 35.15625 39.890625 26.703125 39.890625 
Q 22.75 39.890625 18.8125 39.015625 
Q 14.890625 38.140625 10.796875 36.28125 
z
" id="DejaVuSans-35"/>
      </defs>
      <g transform="translate(121.2625 604.278453)scale(0.14 -0.14)">
       <use xlink:href="#DejaVuSans-35"/>
       <use x="63.623047" xlink:href="#DejaVuSans-30"/>
       <use x="127.246094" xlink:href="#DejaVuSans-30"/>
       <use x="190.869141" xlink:href="#DejaVuSans-30"/>
       <use x="254.492188" xlink:href="#DejaVuSans-30"/>
      </g>
     </g>
    </g>
    <g id="ytick_3">
     <g id="line2d_53">
      <g>
       <use style="stroke:#000000;stroke-width:0.8;" x="172.8" xlink:href="#mdb682ef992" y="515.467094"/>
      </g>
     </g>
     <g id="text_54">
      <!-- 100000 -->
      <defs>
       <path d="M 12.40625 8.296875 
L 28.515625 8.296875 
L 28.515625 63.921875 
L 10.984375 60.40625 
L 10.984375 69.390625 
L 28.421875 72.90625 
L 38.28125 72.90625 
L 38.28125 8.296875 
L 54.390625 8.296875 
L 54.390625 0 
L 12.40625 0 
z
" id="DejaVuSans-31"/>
      </defs>
      <g transform="translate(112.355 520.786001)scale(0.14 -0.14)">
       <use xlink:href="#DejaVuSans-31"/>
       <use x="63.623047" xlink:href="#DejaVuSans-30"/>
       <use x="127.246094" xlink:href="#DejaVuSans-30"/>
       <use x="190.869141" xlink:href="#DejaVuSans-30"/>
       <use x="254.492188" xlink:href="#DejaVuSans-30"/>
       <use x="318.115234" xlink:href="#DejaVuSans-30"/>
      </g>
     </g>
    </g>
    <g id="ytick_4">
     <g id="line2d_54">
      <g>
       <use style="stroke:#000000;stroke-width:0.8;" x="172.8" xlink:href="#mdb682ef992" y="431.974641"/>
      </g>
     </g>
     <g id="text_55">
      <!-- 150000 -->
      <g transform="translate(112.355 437.293548)scale(0.14 -0.14)">
       <use xlink:href="#DejaVuSans-31"/>
       <use x="63.623047" xlink:href="#DejaVuSans-35"/>
       <use x="127.246094" xlink:href="#DejaVuSans-30"/>
       <use x="190.869141" xlink:href="#DejaVuSans-30"/>
       <use x="254.492188" xlink:href="#DejaVuSans-30"/>
       <use x="318.115234" xlink:href="#DejaVuSans-30"/>
      </g>
     </g>
    </g>
    <g id="ytick_5">
     <g id="line2d_55">
      <g>
       <use style="stroke:#000000;stroke-width:0.8;" x="172.8" xlink:href="#mdb682ef992" y="348.482189"/>
      </g>
     </g>
     <g id="text_56">
      <!-- 200000 -->
      <defs>
       <path d="M 19.1875 8.296875 
L 53.609375 8.296875 
L 53.609375 0 
L 7.328125 0 
L 7.328125 8.296875 
Q 12.9375 14.109375 22.625 23.890625 
Q 32.328125 33.6875 34.8125 36.53125 
Q 39.546875 41.84375 41.421875 45.53125 
Q 43.3125 49.21875 43.3125 52.78125 
Q 43.3125 58.59375 39.234375 62.25 
Q 35.15625 65.921875 28.609375 65.921875 
Q 23.96875 65.921875 18.8125 64.3125 
Q 13.671875 62.703125 7.8125 59.421875 
L 7.8125 69.390625 
Q 13.765625 71.78125 18.9375 73 
Q 24.125 74.21875 28.421875 74.21875 
Q 39.75 74.21875 46.484375 68.546875 
Q 53.21875 62.890625 53.21875 53.421875 
Q 53.21875 48.921875 51.53125 44.890625 
Q 49.859375 40.875 45.40625 35.40625 
Q 44.1875 33.984375 37.640625 27.21875 
Q 31.109375 20.453125 19.1875 8.296875 
z
" id="DejaVuSans-32"/>
      </defs>
      <g transform="translate(112.355 353.801095)scale(0.14 -0.14)">
       <use xlink:href="#DejaVuSans-32"/>
       <use x="63.623047" xlink:href="#DejaVuSans-30"/>
       <use x="127.246094" xlink:href="#DejaVuSans-30"/>
       <use x="190.869141" xlink:href="#DejaVuSans-30"/>
       <use x="254.492188" xlink:href="#DejaVuSans-30"/>
       <use x="318.115234" xlink:href="#DejaVuSans-30"/>
      </g>
     </g>
    </g>
    <g id="ytick_6">
     <g id="line2d_56">
      <g>
       <use style="stroke:#000000;stroke-width:0.8;" x="172.8" xlink:href="#mdb682ef992" y="264.989736"/>
      </g>
     </g>
     <g id="text_57">
      <!-- 250000 -->
      <g transform="translate(112.355 270.308642)scale(0.14 -0.14)">
       <use xlink:href="#DejaVuSans-32"/>
       <use x="63.623047" xlink:href="#DejaVuSans-35"/>
       <use x="127.246094" xlink:href="#DejaVuSans-30"/>
       <use x="190.869141" xlink:href="#DejaVuSans-30"/>
       <use x="254.492188" xlink:href="#DejaVuSans-30"/>
       <use x="318.115234" xlink:href="#DejaVuSans-30"/>
      </g>
     </g>
    </g>
    <g id="ytick_7">
     <g id="line2d_57">
      <g>
       <use style="stroke:#000000;stroke-width:0.8;" x="172.8" xlink:href="#mdb682ef992" y="181.497283"/>
      </g>
     </g>
     <g id="text_58">
      <!-- 300000 -->
      <defs>
       <path d="M 40.578125 39.3125 
Q 47.65625 37.796875 51.625 33 
Q 55.609375 28.21875 55.609375 21.1875 
Q 55.609375 10.40625 48.1875 4.484375 
Q 40.765625 -1.421875 27.09375 -1.421875 
Q 22.515625 -1.421875 17.65625 -0.515625 
Q 12.796875 0.390625 7.625 2.203125 
L 7.625 11.71875 
Q 11.71875 9.328125 16.59375 8.109375 
Q 21.484375 6.890625 26.8125 6.890625 
Q 36.078125 6.890625 40.9375 10.546875 
Q 45.796875 14.203125 45.796875 21.1875 
Q 45.796875 27.640625 41.28125 31.265625 
Q 36.765625 34.90625 28.71875 34.90625 
L 20.21875 34.90625 
L 20.21875 43.015625 
L 29.109375 43.015625 
Q 36.375 43.015625 40.234375 45.921875 
Q 44.09375 48.828125 44.09375 54.296875 
Q 44.09375 59.90625 40.109375 62.90625 
Q 36.140625 65.921875 28.71875 65.921875 
Q 24.65625 65.921875 20.015625 65.03125 
Q 15.375 64.15625 9.8125 62.3125 
L 9.8125 71.09375 
Q 15.4375 72.65625 20.34375 73.4375 
Q 25.25 74.21875 29.59375 74.21875 
Q 40.828125 74.21875 47.359375 69.109375 
Q 53.90625 64.015625 53.90625 55.328125 
Q 53.90625 49.265625 50.4375 45.09375 
Q 46.96875 40.921875 40.578125 39.3125 
z
" id="DejaVuSans-33"/>
      </defs>
      <g transform="translate(112.355 186.816189)scale(0.14 -0.14)">
       <use xlink:href="#DejaVuSans-33"/>
       <use x="63.623047" xlink:href="#DejaVuSans-30"/>
       <use x="127.246094" xlink:href="#DejaVuSans-30"/>
       <use x="190.869141" xlink:href="#DejaVuSans-30"/>
       <use x="254.492188" xlink:href="#DejaVuSans-30"/>
       <use x="318.115234" xlink:href="#DejaVuSans-30"/>
      </g>
     </g>
    </g>
    <g id="ytick_8">
     <g id="line2d_58">
      <g>
       <use style="stroke:#000000;stroke-width:0.8;" x="172.8" xlink:href="#mdb682ef992" y="98.00483"/>
      </g>
     </g>
     <g id="text_59">
      <!-- 350000 -->
      <g transform="translate(112.355 103.323736)scale(0.14 -0.14)">
       <use xlink:href="#DejaVuSans-33"/>
       <use x="63.623047" xlink:href="#DejaVuSans-35"/>
       <use x="127.246094" xlink:href="#DejaVuSans-30"/>
       <use x="190.869141" xlink:href="#DejaVuSans-30"/>
       <use x="254.492188" xlink:href="#DejaVuSans-30"/>
       <use x="318.115234" xlink:href="#DejaVuSans-30"/>
      </g>
     </g>
    </g>
    <g id="text_60">
     <!-- Frequencies -->
     <defs>
      <path d="M 9.8125 72.90625 
L 51.703125 72.90625 
L 51.703125 64.59375 
L 19.671875 64.59375 
L 19.671875 43.109375 
L 48.578125 43.109375 
L 48.578125 34.8125 
L 19.671875 34.8125 
L 19.671875 0 
L 9.8125 0 
z
" id="DejaVuSans-46"/>
      <path d="M 14.796875 27.296875 
Q 14.796875 17.390625 18.875 11.75 
Q 22.953125 6.109375 30.078125 6.109375 
Q 37.203125 6.109375 41.296875 11.75 
Q 45.40625 17.390625 45.40625 27.296875 
Q 45.40625 37.203125 41.296875 42.84375 
Q 37.203125 48.484375 30.078125 48.484375 
Q 22.953125 48.484375 18.875 42.84375 
Q 14.796875 37.203125 14.796875 27.296875 
z
M 45.40625 8.203125 
Q 42.578125 3.328125 38.25 0.953125 
Q 33.9375 -1.421875 27.875 -1.421875 
Q 17.96875 -1.421875 11.734375 6.484375 
Q 5.515625 14.40625 5.515625 27.296875 
Q 5.515625 40.1875 11.734375 48.09375 
Q 17.96875 56 27.875 56 
Q 33.9375 56 38.25 53.625 
Q 42.578125 51.265625 45.40625 46.390625 
L 45.40625 54.6875 
L 54.390625 54.6875 
L 54.390625 -20.796875 
L 45.40625 -20.796875 
z
" id="DejaVuSans-71"/>
     </defs>
     <g transform="translate(105.443437 429.806031)rotate(-90)scale(0.14 -0.14)">
      <use xlink:href="#DejaVuSans-46"/>
      <use x="57.410156" xlink:href="#DejaVuSans-72"/>
      <use x="98.492188" xlink:href="#DejaVuSans-65"/>
      <use x="160.015625" xlink:href="#DejaVuSans-71"/>
      <use x="223.492188" xlink:href="#DejaVuSans-75"/>
      <use x="286.871094" xlink:href="#DejaVuSans-65"/>
      <use x="348.394531" xlink:href="#DejaVuSans-6e"/>
      <use x="411.773438" xlink:href="#DejaVuSans-63"/>
      <use x="466.753906" xlink:href="#DejaVuSans-69"/>
      <use x="494.537109" xlink:href="#DejaVuSans-65"/>
      <use x="556.060547" xlink:href="#DejaVuSans-73"/>
     </g>
    </g>
   </g>
   <g id="patch_53">
    <path d="M 172.8 682.452 
L 172.8 92.016 
" style="fill:none;stroke:#000000;stroke-linecap:square;stroke-linejoin:miter;stroke-width:0.8;"/>
   </g>
   <g id="patch_54">
    <path d="M 1244.16 682.452 
L 1244.16 92.016 
" style="fill:none;stroke:#000000;stroke-linecap:square;stroke-linejoin:miter;stroke-width:0.8;"/>
   </g>
   <g id="patch_55">
    <path d="M 172.8 682.452 
L 1244.16 682.452 
" style="fill:none;stroke:#000000;stroke-linecap:square;stroke-linejoin:miter;stroke-width:0.8;"/>
   </g>
   <g id="patch_56">
    <path d="M 172.8 92.016 
L 1244.16 92.016 
" style="fill:none;stroke:#000000;stroke-linecap:square;stroke-linejoin:miter;stroke-width:0.8;"/>
   </g>
   <g id="text_61">
    <!-- Frequency distribution of n-grams -->
    <defs>
     <path id="DejaVuSans-20"/>
    </defs>
    <g transform="translate(565.4805 86.016)scale(0.168 -0.168)">
     <use xlink:href="#DejaVuSans-46"/>
     <use x="57.410156" xlink:href="#DejaVuSans-72"/>
     <use x="98.492188" xlink:href="#DejaVuSans-65"/>
     <use x="160.015625" xlink:href="#DejaVuSans-71"/>
     <use x="223.492188" xlink:href="#DejaVuSans-75"/>
     <use x="286.871094" xlink:href="#DejaVuSans-65"/>
     <use x="348.394531" xlink:href="#DejaVuSans-6e"/>
     <use x="411.773438" xlink:href="#DejaVuSans-63"/>
     <use x="466.753906" xlink:href="#DejaVuSans-79"/>
     <use x="525.933594" xlink:href="#DejaVuSans-20"/>
     <use x="557.720703" xlink:href="#DejaVuSans-64"/>
     <use x="621.197266" xlink:href="#DejaVuSans-69"/>
     <use x="648.980469" xlink:href="#DejaVuSans-73"/>
     <use x="701.080078" xlink:href="#DejaVuSans-74"/>
     <use x="740.289062" xlink:href="#DejaVuSans-72"/>
     <use x="781.402344" xlink:href="#DejaVuSans-69"/>
     <use x="809.185547" xlink:href="#DejaVuSans-62"/>
     <use x="872.662109" xlink:href="#DejaVuSans-75"/>
     <use x="936.041016" xlink:href="#DejaVuSans-74"/>
     <use x="975.25" xlink:href="#DejaVuSans-69"/>
     <use x="1003.033203" xlink:href="#DejaVuSans-6f"/>
     <use x="1064.214844" xlink:href="#DejaVuSans-6e"/>
     <use x="1127.59375" xlink:href="#DejaVuSans-20"/>
     <use x="1159.380859" xlink:href="#DejaVuSans-6f"/>
     <use x="1220.5625" xlink:href="#DejaVuSans-66"/>
     <use x="1255.767578" xlink:href="#DejaVuSans-20"/>
     <use x="1287.554688" xlink:href="#DejaVuSans-6e"/>
     <use x="1350.933594" xlink:href="#DejaVuSans-2d"/>
     <use x="1387.017578" xlink:href="#DejaVuSans-67"/>
     <use x="1450.494141" xlink:href="#DejaVuSans-72"/>
     <use x="1491.607422" xlink:href="#DejaVuSans-61"/>
     <use x="1552.886719" xlink:href="#DejaVuSans-6d"/>
     <use x="1650.298828" xlink:href="#DejaVuSans-73"/>
    </g>
   </g>
  </g>
 </g>
 <defs>
  <clipPath id="p75b130bf5c">
   <rect height="590.436" width="1071.36" x="172.8" y="92.016"/>
  </clipPath>
 </defs>
</svg>
