<?xml version="1.0" encoding="utf-8" standalone="no"?>
<!DOCTYPE svg PUBLIC "-//W3C//DTD SVG 1.1//EN"
  "http://www.w3.org/Graphics/SVG/1.1/DTD/svg11.dtd">
<!-- Created with matplotlib (http://matplotlib.org/) -->
<svg height="766pt" version="1.1" viewBox="0 0 1382 766" width="1382pt" xmlns="http://www.w3.org/2000/svg" xmlns:xlink="http://www.w3.org/1999/xlink">
 <defs>
  <style type="text/css">
*{stroke-linecap:butt;stroke-linejoin:round;}
  </style>
 </defs>
 <g id="figure_1">
  <g id="patch_1">
   <path d="M 0 766.8 
L 1382.4 766.8 
L 1382.4 0 
L 0 0 
z
" style="fill:#ffffff;"/>
  </g>
  <g id="axes_1">
   <g id="patch_2">
    <path d="M 172.8 682.452 
L 1244.16 682.452 
L 1244.16 92.016 
L 172.8 92.016 
z
" style="fill:#ffffff;"/>
   </g>
   <g id="matplotlib.axis_1">
    <g id="xtick_1">
     <g id="line2d_1">
      <defs>
       <path d="M 0 0 
L 0 3.5 
" id="m9c8859f8f6" style="stroke:#000000;stroke-width:0.8;"/>
      </defs>
      <g>
       <use style="stroke:#000000;stroke-width:0.8;" x="221.389952" xlink:href="#m9c8859f8f6" y="682.452"/>
      </g>
     </g>
     <g id="text_1">
      <!-- 0 -->
      <defs>
       <path d="M 31.78125 66.40625 
Q 24.171875 66.40625 20.328125 58.90625 
Q 16.5 51.421875 16.5 36.375 
Q 16.5 21.390625 20.328125 13.890625 
Q 24.171875 6.390625 31.78125 6.390625 
Q 39.453125 6.390625 43.28125 13.890625 
Q 47.125 21.390625 47.125 36.375 
Q 47.125 51.421875 43.28125 58.90625 
Q 39.453125 66.40625 31.78125 66.40625 
z
M 31.78125 74.21875 
Q 44.046875 74.21875 50.515625 64.515625 
Q 56.984375 54.828125 56.984375 36.375 
Q 56.984375 17.96875 50.515625 8.265625 
Q 44.046875 -1.421875 31.78125 -1.421875 
Q 19.53125 -1.421875 13.0625 8.265625 
Q 6.59375 17.96875 6.59375 36.375 
Q 6.59375 54.828125 13.0625 64.515625 
Q 19.53125 74.21875 31.78125 74.21875 
z
" id="DejaVuSans-30"/>
      </defs>
      <g transform="translate(216.936202 700.089813)scale(0.14 -0.14)">
       <use xlink:href="#DejaVuSans-30"/>
      </g>
     </g>
    </g>
    <g id="xtick_2">
     <g id="line2d_2">
      <g>
       <use style="stroke:#000000;stroke-width:0.8;" x="437.850366" xlink:href="#m9c8859f8f6" y="682.452"/>
      </g>
     </g>
     <g id="text_2">
      <!-- 20000 -->
      <defs>
       <path d="M 19.1875 8.296875 
L 53.609375 8.296875 
L 53.609375 0 
L 7.328125 0 
L 7.328125 8.296875 
Q 12.9375 14.109375 22.625 23.890625 
Q 32.328125 33.6875 34.8125 36.53125 
Q 39.546875 41.84375 41.421875 45.53125 
Q 43.3125 49.21875 43.3125 52.78125 
Q 43.3125 58.59375 39.234375 62.25 
Q 35.15625 65.921875 28.609375 65.921875 
Q 23.96875 65.921875 18.8125 64.3125 
Q 13.671875 62.703125 7.8125 59.421875 
L 7.8125 69.390625 
Q 13.765625 71.78125 18.9375 73 
Q 24.125 74.21875 28.421875 74.21875 
Q 39.75 74.21875 46.484375 68.546875 
Q 53.21875 62.890625 53.21875 53.421875 
Q 53.21875 48.921875 51.53125 44.890625 
Q 49.859375 40.875 45.40625 35.40625 
Q 44.1875 33.984375 37.640625 27.21875 
Q 31.109375 20.453125 19.1875 8.296875 
z
" id="DejaVuSans-32"/>
      </defs>
      <g transform="translate(415.581616 700.089813)scale(0.14 -0.14)">
       <use xlink:href="#DejaVuSans-32"/>
       <use x="63.623047" xlink:href="#DejaVuSans-30"/>
       <use x="127.246094" xlink:href="#DejaVuSans-30"/>
       <use x="190.869141" xlink:href="#DejaVuSans-30"/>
       <use x="254.492188" xlink:href="#DejaVuSans-30"/>
      </g>
     </g>
    </g>
    <g id="xtick_3">
     <g id="line2d_3">
      <g>
       <use style="stroke:#000000;stroke-width:0.8;" x="654.310781" xlink:href="#m9c8859f8f6" y="682.452"/>
      </g>
     </g>
     <g id="text_3">
      <!-- 40000 -->
      <defs>
       <path d="M 37.796875 64.3125 
L 12.890625 25.390625 
L 37.796875 25.390625 
z
M 35.203125 72.90625 
L 47.609375 72.90625 
L 47.609375 25.390625 
L 58.015625 25.390625 
L 58.015625 17.1875 
L 47.609375 17.1875 
L 47.609375 0 
L 37.796875 0 
L 37.796875 17.1875 
L 4.890625 17.1875 
L 4.890625 26.703125 
z
" id="DejaVuSans-34"/>
      </defs>
      <g transform="translate(632.042031 700.089813)scale(0.14 -0.14)">
       <use xlink:href="#DejaVuSans-34"/>
       <use x="63.623047" xlink:href="#DejaVuSans-30"/>
       <use x="127.246094" xlink:href="#DejaVuSans-30"/>
       <use x="190.869141" xlink:href="#DejaVuSans-30"/>
       <use x="254.492188" xlink:href="#DejaVuSans-30"/>
      </g>
     </g>
    </g>
    <g id="xtick_4">
     <g id="line2d_4">
      <g>
       <use style="stroke:#000000;stroke-width:0.8;" x="870.771196" xlink:href="#m9c8859f8f6" y="682.452"/>
      </g>
     </g>
     <g id="text_4">
      <!-- 60000 -->
      <defs>
       <path d="M 33.015625 40.375 
Q 26.375 40.375 22.484375 35.828125 
Q 18.609375 31.296875 18.609375 23.390625 
Q 18.609375 15.53125 22.484375 10.953125 
Q 26.375 6.390625 33.015625 6.390625 
Q 39.65625 6.390625 43.53125 10.953125 
Q 47.40625 15.53125 47.40625 23.390625 
Q 47.40625 31.296875 43.53125 35.828125 
Q 39.65625 40.375 33.015625 40.375 
z
M 52.59375 71.296875 
L 52.59375 62.3125 
Q 48.875 64.0625 45.09375 64.984375 
Q 41.3125 65.921875 37.59375 65.921875 
Q 27.828125 65.921875 22.671875 59.328125 
Q 17.53125 52.734375 16.796875 39.40625 
Q 19.671875 43.65625 24.015625 45.921875 
Q 28.375 48.1875 33.59375 48.1875 
Q 44.578125 48.1875 50.953125 41.515625 
Q 57.328125 34.859375 57.328125 23.390625 
Q 57.328125 12.15625 50.6875 5.359375 
Q 44.046875 -1.421875 33.015625 -1.421875 
Q 20.359375 -1.421875 13.671875 8.265625 
Q 6.984375 17.96875 6.984375 36.375 
Q 6.984375 53.65625 15.1875 63.9375 
Q 23.390625 74.21875 37.203125 74.21875 
Q 40.921875 74.21875 44.703125 73.484375 
Q 48.484375 72.75 52.59375 71.296875 
z
" id="DejaVuSans-36"/>
      </defs>
      <g transform="translate(848.502446 700.089813)scale(0.14 -0.14)">
       <use xlink:href="#DejaVuSans-36"/>
       <use x="63.623047" xlink:href="#DejaVuSans-30"/>
       <use x="127.246094" xlink:href="#DejaVuSans-30"/>
       <use x="190.869141" xlink:href="#DejaVuSans-30"/>
       <use x="254.492188" xlink:href="#DejaVuSans-30"/>
      </g>
     </g>
    </g>
    <g id="xtick_5">
     <g id="line2d_5">
      <g>
       <use style="stroke:#000000;stroke-width:0.8;" x="1087.231611" xlink:href="#m9c8859f8f6" y="682.452"/>
      </g>
     </g>
     <g id="text_5">
      <!-- 80000 -->
      <defs>
       <path d="M 31.78125 34.625 
Q 24.75 34.625 20.71875 30.859375 
Q 16.703125 27.09375 16.703125 20.515625 
Q 16.703125 13.921875 20.71875 10.15625 
Q 24.75 6.390625 31.78125 6.390625 
Q 38.8125 6.390625 42.859375 10.171875 
Q 46.921875 13.96875 46.921875 20.515625 
Q 46.921875 27.09375 42.890625 30.859375 
Q 38.875 34.625 31.78125 34.625 
z
M 21.921875 38.8125 
Q 15.578125 40.375 12.03125 44.71875 
Q 8.5 49.078125 8.5 55.328125 
Q 8.5 64.0625 14.71875 69.140625 
Q 20.953125 74.21875 31.78125 74.21875 
Q 42.671875 74.21875 48.875 69.140625 
Q 55.078125 64.0625 55.078125 55.328125 
Q 55.078125 49.078125 51.53125 44.71875 
Q 48 40.375 41.703125 38.8125 
Q 48.828125 37.15625 52.796875 32.3125 
Q 56.78125 27.484375 56.78125 20.515625 
Q 56.78125 9.90625 50.3125 4.234375 
Q 43.84375 -1.421875 31.78125 -1.421875 
Q 19.734375 -1.421875 13.25 4.234375 
Q 6.78125 9.90625 6.78125 20.515625 
Q 6.78125 27.484375 10.78125 32.3125 
Q 14.796875 37.15625 21.921875 38.8125 
z
M 18.3125 54.390625 
Q 18.3125 48.734375 21.84375 45.5625 
Q 25.390625 42.390625 31.78125 42.390625 
Q 38.140625 42.390625 41.71875 45.5625 
Q 45.3125 48.734375 45.3125 54.390625 
Q 45.3125 60.0625 41.71875 63.234375 
Q 38.140625 66.40625 31.78125 66.40625 
Q 25.390625 66.40625 21.84375 63.234375 
Q 18.3125 60.0625 18.3125 54.390625 
z
" id="DejaVuSans-38"/>
      </defs>
      <g transform="translate(1064.962861 700.089813)scale(0.14 -0.14)">
       <use xlink:href="#DejaVuSans-38"/>
       <use x="63.623047" xlink:href="#DejaVuSans-30"/>
       <use x="127.246094" xlink:href="#DejaVuSans-30"/>
       <use x="190.869141" xlink:href="#DejaVuSans-30"/>
       <use x="254.492188" xlink:href="#DejaVuSans-30"/>
      </g>
     </g>
    </g>
    <g id="text_6">
     <!-- Top K -->
     <defs>
      <path d="M -0.296875 72.90625 
L 61.375 72.90625 
L 61.375 64.59375 
L 35.5 64.59375 
L 35.5 0 
L 25.59375 0 
L 25.59375 64.59375 
L -0.296875 64.59375 
z
" id="DejaVuSans-54"/>
      <path d="M 30.609375 48.390625 
Q 23.390625 48.390625 19.1875 42.75 
Q 14.984375 37.109375 14.984375 27.296875 
Q 14.984375 17.484375 19.15625 11.84375 
Q 23.34375 6.203125 30.609375 6.203125 
Q 37.796875 6.203125 41.984375 11.859375 
Q 46.1875 17.53125 46.1875 27.296875 
Q 46.1875 37.015625 41.984375 42.703125 
Q 37.796875 48.390625 30.609375 48.390625 
z
M 30.609375 56 
Q 42.328125 56 49.015625 48.375 
Q 55.71875 40.765625 55.71875 27.296875 
Q 55.71875 13.875 49.015625 6.21875 
Q 42.328125 -1.421875 30.609375 -1.421875 
Q 18.84375 -1.421875 12.171875 6.21875 
Q 5.515625 13.875 5.515625 27.296875 
Q 5.515625 40.765625 12.171875 48.375 
Q 18.84375 56 30.609375 56 
z
" id="DejaVuSans-6f"/>
      <path d="M 18.109375 8.203125 
L 18.109375 -20.796875 
L 9.078125 -20.796875 
L 9.078125 54.6875 
L 18.109375 54.6875 
L 18.109375 46.390625 
Q 20.953125 51.265625 25.265625 53.625 
Q 29.59375 56 35.59375 56 
Q 45.5625 56 51.78125 48.09375 
Q 58.015625 40.1875 58.015625 27.296875 
Q 58.015625 14.40625 51.78125 6.484375 
Q 45.5625 -1.421875 35.59375 -1.421875 
Q 29.59375 -1.421875 25.265625 0.953125 
Q 20.953125 3.328125 18.109375 8.203125 
z
M 48.6875 27.296875 
Q 48.6875 37.203125 44.609375 42.84375 
Q 40.53125 48.484375 33.40625 48.484375 
Q 26.265625 48.484375 22.1875 42.84375 
Q 18.109375 37.203125 18.109375 27.296875 
Q 18.109375 17.390625 22.1875 11.75 
Q 26.265625 6.109375 33.40625 6.109375 
Q 40.53125 6.109375 44.609375 11.75 
Q 48.6875 17.390625 48.6875 27.296875 
z
" id="DejaVuSans-70"/>
      <path id="DejaVuSans-20"/>
      <path d="M 9.8125 72.90625 
L 19.671875 72.90625 
L 19.671875 42.09375 
L 52.390625 72.90625 
L 65.09375 72.90625 
L 28.90625 38.921875 
L 67.671875 0 
L 54.6875 0 
L 19.671875 35.109375 
L 19.671875 0 
L 9.8125 0 
z
" id="DejaVuSans-4b"/>
     </defs>
     <g transform="translate(688.680937 717.639188)scale(0.14 -0.14)">
      <use xlink:href="#DejaVuSans-54"/>
      <use x="60.818359" xlink:href="#DejaVuSans-6f"/>
      <use x="122" xlink:href="#DejaVuSans-70"/>
      <use x="185.476562" xlink:href="#DejaVuSans-20"/>
      <use x="217.263672" xlink:href="#DejaVuSans-4b"/>
     </g>
    </g>
   </g>
   <g id="matplotlib.axis_2">
    <g id="ytick_1">
     <g id="line2d_6">
      <defs>
       <path d="M 0 0 
L -3.5 0 
" id="mc37735ed43" style="stroke:#000000;stroke-width:0.8;"/>
      </defs>
      <g>
       <use style="stroke:#000000;stroke-width:0.8;" x="172.8" xlink:href="#mc37735ed43" y="670.642347"/>
      </g>
     </g>
     <g id="text_7">
      <!-- 20 -->
      <g transform="translate(147.985 675.961253)scale(0.14 -0.14)">
       <use xlink:href="#DejaVuSans-32"/>
       <use x="63.623047" xlink:href="#DejaVuSans-30"/>
      </g>
     </g>
    </g>
    <g id="ytick_2">
     <g id="line2d_7">
      <g>
       <use style="stroke:#000000;stroke-width:0.8;" x="172.8" xlink:href="#mc37735ed43" y="600.596858"/>
      </g>
     </g>
     <g id="text_8">
      <!-- 30 -->
      <defs>
       <path d="M 40.578125 39.3125 
Q 47.65625 37.796875 51.625 33 
Q 55.609375 28.21875 55.609375 21.1875 
Q 55.609375 10.40625 48.1875 4.484375 
Q 40.765625 -1.421875 27.09375 -1.421875 
Q 22.515625 -1.421875 17.65625 -0.515625 
Q 12.796875 0.390625 7.625 2.203125 
L 7.625 11.71875 
Q 11.71875 9.328125 16.59375 8.109375 
Q 21.484375 6.890625 26.8125 6.890625 
Q 36.078125 6.890625 40.9375 10.546875 
Q 45.796875 14.203125 45.796875 21.1875 
Q 45.796875 27.640625 41.28125 31.265625 
Q 36.765625 34.90625 28.71875 34.90625 
L 20.21875 34.90625 
L 20.21875 43.015625 
L 29.109375 43.015625 
Q 36.375 43.015625 40.234375 45.921875 
Q 44.09375 48.828125 44.09375 54.296875 
Q 44.09375 59.90625 40.109375 62.90625 
Q 36.140625 65.921875 28.71875 65.921875 
Q 24.65625 65.921875 20.015625 65.03125 
Q 15.375 64.15625 9.8125 62.3125 
L 9.8125 71.09375 
Q 15.4375 72.65625 20.34375 73.4375 
Q 25.25 74.21875 29.59375 74.21875 
Q 40.828125 74.21875 47.359375 69.109375 
Q 53.90625 64.015625 53.90625 55.328125 
Q 53.90625 49.265625 50.4375 45.09375 
Q 46.96875 40.921875 40.578125 39.3125 
z
" id="DejaVuSans-33"/>
      </defs>
      <g transform="translate(147.985 605.915764)scale(0.14 -0.14)">
       <use xlink:href="#DejaVuSans-33"/>
       <use x="63.623047" xlink:href="#DejaVuSans-30"/>
      </g>
     </g>
    </g>
    <g id="ytick_3">
     <g id="line2d_8">
      <g>
       <use style="stroke:#000000;stroke-width:0.8;" x="172.8" xlink:href="#mc37735ed43" y="530.551368"/>
      </g>
     </g>
     <g id="text_9">
      <!-- 40 -->
      <g transform="translate(147.985 535.870274)scale(0.14 -0.14)">
       <use xlink:href="#DejaVuSans-34"/>
       <use x="63.623047" xlink:href="#DejaVuSans-30"/>
      </g>
     </g>
    </g>
    <g id="ytick_4">
     <g id="line2d_9">
      <g>
       <use style="stroke:#000000;stroke-width:0.8;" x="172.8" xlink:href="#mc37735ed43" y="460.505879"/>
      </g>
     </g>
     <g id="text_10">
      <!-- 50 -->
      <defs>
       <path d="M 10.796875 72.90625 
L 49.515625 72.90625 
L 49.515625 64.59375 
L 19.828125 64.59375 
L 19.828125 46.734375 
Q 21.96875 47.46875 24.109375 47.828125 
Q 26.265625 48.1875 28.421875 48.1875 
Q 40.625 48.1875 47.75 41.5 
Q 54.890625 34.8125 54.890625 23.390625 
Q 54.890625 11.625 47.5625 5.09375 
Q 40.234375 -1.421875 26.90625 -1.421875 
Q 22.3125 -1.421875 17.546875 -0.640625 
Q 12.796875 0.140625 7.71875 1.703125 
L 7.71875 11.625 
Q 12.109375 9.234375 16.796875 8.0625 
Q 21.484375 6.890625 26.703125 6.890625 
Q 35.15625 6.890625 40.078125 11.328125 
Q 45.015625 15.765625 45.015625 23.390625 
Q 45.015625 31 40.078125 35.4375 
Q 35.15625 39.890625 26.703125 39.890625 
Q 22.75 39.890625 18.8125 39.015625 
Q 14.890625 38.140625 10.796875 36.28125 
z
" id="DejaVuSans-35"/>
      </defs>
      <g transform="translate(147.985 465.824785)scale(0.14 -0.14)">
       <use xlink:href="#DejaVuSans-35"/>
       <use x="63.623047" xlink:href="#DejaVuSans-30"/>
      </g>
     </g>
    </g>
    <g id="ytick_5">
     <g id="line2d_10">
      <g>
       <use style="stroke:#000000;stroke-width:0.8;" x="172.8" xlink:href="#mc37735ed43" y="390.460389"/>
      </g>
     </g>
     <g id="text_11">
      <!-- 60 -->
      <g transform="translate(147.985 395.779295)scale(0.14 -0.14)">
       <use xlink:href="#DejaVuSans-36"/>
       <use x="63.623047" xlink:href="#DejaVuSans-30"/>
      </g>
     </g>
    </g>
    <g id="ytick_6">
     <g id="line2d_11">
      <g>
       <use style="stroke:#000000;stroke-width:0.8;" x="172.8" xlink:href="#mc37735ed43" y="320.414899"/>
      </g>
     </g>
     <g id="text_12">
      <!-- 70 -->
      <defs>
       <path d="M 8.203125 72.90625 
L 55.078125 72.90625 
L 55.078125 68.703125 
L 28.609375 0 
L 18.3125 0 
L 43.21875 64.59375 
L 8.203125 64.59375 
z
" id="DejaVuSans-37"/>
      </defs>
      <g transform="translate(147.985 325.733806)scale(0.14 -0.14)">
       <use xlink:href="#DejaVuSans-37"/>
       <use x="63.623047" xlink:href="#DejaVuSans-30"/>
      </g>
     </g>
    </g>
    <g id="ytick_7">
     <g id="line2d_12">
      <g>
       <use style="stroke:#000000;stroke-width:0.8;" x="172.8" xlink:href="#mc37735ed43" y="250.36941"/>
      </g>
     </g>
     <g id="text_13">
      <!-- 80 -->
      <g transform="translate(147.985 255.688316)scale(0.14 -0.14)">
       <use xlink:href="#DejaVuSans-38"/>
       <use x="63.623047" xlink:href="#DejaVuSans-30"/>
      </g>
     </g>
    </g>
    <g id="ytick_8">
     <g id="line2d_13">
      <g>
       <use style="stroke:#000000;stroke-width:0.8;" x="172.8" xlink:href="#mc37735ed43" y="180.32392"/>
      </g>
     </g>
     <g id="text_14">
      <!-- 90 -->
      <defs>
       <path d="M 10.984375 1.515625 
L 10.984375 10.5 
Q 14.703125 8.734375 18.5 7.8125 
Q 22.3125 6.890625 25.984375 6.890625 
Q 35.75 6.890625 40.890625 13.453125 
Q 46.046875 20.015625 46.78125 33.40625 
Q 43.953125 29.203125 39.59375 26.953125 
Q 35.25 24.703125 29.984375 24.703125 
Q 19.046875 24.703125 12.671875 31.3125 
Q 6.296875 37.9375 6.296875 49.421875 
Q 6.296875 60.640625 12.9375 67.421875 
Q 19.578125 74.21875 30.609375 74.21875 
Q 43.265625 74.21875 49.921875 64.515625 
Q 56.59375 54.828125 56.59375 36.375 
Q 56.59375 19.140625 48.40625 8.859375 
Q 40.234375 -1.421875 26.421875 -1.421875 
Q 22.703125 -1.421875 18.890625 -0.6875 
Q 15.09375 0.046875 10.984375 1.515625 
z
M 30.609375 32.421875 
Q 37.25 32.421875 41.125 36.953125 
Q 45.015625 41.5 45.015625 49.421875 
Q 45.015625 57.28125 41.125 61.84375 
Q 37.25 66.40625 30.609375 66.40625 
Q 23.96875 66.40625 20.09375 61.84375 
Q 16.21875 57.28125 16.21875 49.421875 
Q 16.21875 41.5 20.09375 36.953125 
Q 23.96875 32.421875 30.609375 32.421875 
z
" id="DejaVuSans-39"/>
      </defs>
      <g transform="translate(147.985 185.642827)scale(0.14 -0.14)">
       <use xlink:href="#DejaVuSans-39"/>
       <use x="63.623047" xlink:href="#DejaVuSans-30"/>
      </g>
     </g>
    </g>
    <g id="ytick_9">
     <g id="line2d_14">
      <g>
       <use style="stroke:#000000;stroke-width:0.8;" x="172.8" xlink:href="#mc37735ed43" y="110.278431"/>
      </g>
     </g>
     <g id="text_15">
      <!-- 100 -->
      <defs>
       <path d="M 12.40625 8.296875 
L 28.515625 8.296875 
L 28.515625 63.921875 
L 10.984375 60.40625 
L 10.984375 69.390625 
L 28.421875 72.90625 
L 38.28125 72.90625 
L 38.28125 8.296875 
L 54.390625 8.296875 
L 54.390625 0 
L 12.40625 0 
z
" id="DejaVuSans-31"/>
      </defs>
      <g transform="translate(139.0775 115.597337)scale(0.14 -0.14)">
       <use xlink:href="#DejaVuSans-31"/>
       <use x="63.623047" xlink:href="#DejaVuSans-30"/>
       <use x="127.246094" xlink:href="#DejaVuSans-30"/>
      </g>
     </g>
    </g>
    <g id="text_16">
     <!-- Accuracy (%) -->
     <defs>
      <path d="M 34.1875 63.1875 
L 20.796875 26.90625 
L 47.609375 26.90625 
z
M 28.609375 72.90625 
L 39.796875 72.90625 
L 67.578125 0 
L 57.328125 0 
L 50.6875 18.703125 
L 17.828125 18.703125 
L 11.1875 0 
L 0.78125 0 
z
" id="DejaVuSans-41"/>
      <path d="M 48.78125 52.59375 
L 48.78125 44.1875 
Q 44.96875 46.296875 41.140625 47.34375 
Q 37.3125 48.390625 33.40625 48.390625 
Q 24.65625 48.390625 19.8125 42.84375 
Q 14.984375 37.3125 14.984375 27.296875 
Q 14.984375 17.28125 19.8125 11.734375 
Q 24.65625 6.203125 33.40625 6.203125 
Q 37.3125 6.203125 41.140625 7.25 
Q 44.96875 8.296875 48.78125 10.40625 
L 48.78125 2.09375 
Q 45.015625 0.34375 40.984375 -0.53125 
Q 36.96875 -1.421875 32.421875 -1.421875 
Q 20.0625 -1.421875 12.78125 6.34375 
Q 5.515625 14.109375 5.515625 27.296875 
Q 5.515625 40.671875 12.859375 48.328125 
Q 20.21875 56 33.015625 56 
Q 37.15625 56 41.109375 55.140625 
Q 45.0625 54.296875 48.78125 52.59375 
z
" id="DejaVuSans-63"/>
      <path d="M 8.5 21.578125 
L 8.5 54.6875 
L 17.484375 54.6875 
L 17.484375 21.921875 
Q 17.484375 14.15625 20.5 10.265625 
Q 23.53125 6.390625 29.59375 6.390625 
Q 36.859375 6.390625 41.078125 11.03125 
Q 45.3125 15.671875 45.3125 23.6875 
L 45.3125 54.6875 
L 54.296875 54.6875 
L 54.296875 0 
L 45.3125 0 
L 45.3125 8.40625 
Q 42.046875 3.421875 37.71875 1 
Q 33.40625 -1.421875 27.6875 -1.421875 
Q 18.265625 -1.421875 13.375 4.4375 
Q 8.5 10.296875 8.5 21.578125 
z
M 31.109375 56 
z
" id="DejaVuSans-75"/>
      <path d="M 41.109375 46.296875 
Q 39.59375 47.171875 37.8125 47.578125 
Q 36.03125 48 33.890625 48 
Q 26.265625 48 22.1875 43.046875 
Q 18.109375 38.09375 18.109375 28.8125 
L 18.109375 0 
L 9.078125 0 
L 9.078125 54.6875 
L 18.109375 54.6875 
L 18.109375 46.1875 
Q 20.953125 51.171875 25.484375 53.578125 
Q 30.03125 56 36.53125 56 
Q 37.453125 56 38.578125 55.875 
Q 39.703125 55.765625 41.0625 55.515625 
z
" id="DejaVuSans-72"/>
      <path d="M 34.28125 27.484375 
Q 23.390625 27.484375 19.1875 25 
Q 14.984375 22.515625 14.984375 16.5 
Q 14.984375 11.71875 18.140625 8.90625 
Q 21.296875 6.109375 26.703125 6.109375 
Q 34.1875 6.109375 38.703125 11.40625 
Q 43.21875 16.703125 43.21875 25.484375 
L 43.21875 27.484375 
z
M 52.203125 31.203125 
L 52.203125 0 
L 43.21875 0 
L 43.21875 8.296875 
Q 40.140625 3.328125 35.546875 0.953125 
Q 30.953125 -1.421875 24.3125 -1.421875 
Q 15.921875 -1.421875 10.953125 3.296875 
Q 6 8.015625 6 15.921875 
Q 6 25.140625 12.171875 29.828125 
Q 18.359375 34.515625 30.609375 34.515625 
L 43.21875 34.515625 
L 43.21875 35.40625 
Q 43.21875 41.609375 39.140625 45 
Q 35.0625 48.390625 27.6875 48.390625 
Q 23 48.390625 18.546875 47.265625 
Q 14.109375 46.140625 10.015625 43.890625 
L 10.015625 52.203125 
Q 14.9375 54.109375 19.578125 55.046875 
Q 24.21875 56 28.609375 56 
Q 40.484375 56 46.34375 49.84375 
Q 52.203125 43.703125 52.203125 31.203125 
z
" id="DejaVuSans-61"/>
      <path d="M 32.171875 -5.078125 
Q 28.375 -14.84375 24.75 -17.8125 
Q 21.140625 -20.796875 15.09375 -20.796875 
L 7.90625 -20.796875 
L 7.90625 -13.28125 
L 13.1875 -13.28125 
Q 16.890625 -13.28125 18.9375 -11.515625 
Q 21 -9.765625 23.484375 -3.21875 
L 25.09375 0.875 
L 2.984375 54.6875 
L 12.5 54.6875 
L 29.59375 11.921875 
L 46.6875 54.6875 
L 56.203125 54.6875 
z
" id="DejaVuSans-79"/>
      <path d="M 31 75.875 
Q 24.46875 64.65625 21.28125 53.65625 
Q 18.109375 42.671875 18.109375 31.390625 
Q 18.109375 20.125 21.3125 9.0625 
Q 24.515625 -2 31 -13.1875 
L 23.1875 -13.1875 
Q 15.875 -1.703125 12.234375 9.375 
Q 8.59375 20.453125 8.59375 31.390625 
Q 8.59375 42.28125 12.203125 53.3125 
Q 15.828125 64.359375 23.1875 75.875 
z
" id="DejaVuSans-28"/>
      <path d="M 72.703125 32.078125 
Q 68.453125 32.078125 66.03125 28.46875 
Q 63.625 24.859375 63.625 18.40625 
Q 63.625 12.0625 66.03125 8.421875 
Q 68.453125 4.78125 72.703125 4.78125 
Q 76.859375 4.78125 79.265625 8.421875 
Q 81.6875 12.0625 81.6875 18.40625 
Q 81.6875 24.8125 79.265625 28.4375 
Q 76.859375 32.078125 72.703125 32.078125 
z
M 72.703125 38.28125 
Q 80.421875 38.28125 84.953125 32.90625 
Q 89.5 27.546875 89.5 18.40625 
Q 89.5 9.28125 84.9375 3.921875 
Q 80.375 -1.421875 72.703125 -1.421875 
Q 64.890625 -1.421875 60.34375 3.921875 
Q 55.8125 9.28125 55.8125 18.40625 
Q 55.8125 27.59375 60.375 32.9375 
Q 64.9375 38.28125 72.703125 38.28125 
z
M 22.3125 68.015625 
Q 18.109375 68.015625 15.6875 64.375 
Q 13.28125 60.75 13.28125 54.390625 
Q 13.28125 47.953125 15.671875 44.328125 
Q 18.0625 40.71875 22.3125 40.71875 
Q 26.5625 40.71875 28.96875 44.328125 
Q 31.390625 47.953125 31.390625 54.390625 
Q 31.390625 60.6875 28.953125 64.34375 
Q 26.515625 68.015625 22.3125 68.015625 
z
M 66.40625 74.21875 
L 74.21875 74.21875 
L 28.609375 -1.421875 
L 20.796875 -1.421875 
z
M 22.3125 74.21875 
Q 30.03125 74.21875 34.609375 68.875 
Q 39.203125 63.53125 39.203125 54.390625 
Q 39.203125 45.171875 34.640625 39.84375 
Q 30.078125 34.515625 22.3125 34.515625 
Q 14.546875 34.515625 10.03125 39.859375 
Q 5.515625 45.21875 5.515625 54.390625 
Q 5.515625 63.484375 10.046875 68.84375 
Q 14.59375 74.21875 22.3125 74.21875 
z
" id="DejaVuSans-25"/>
      <path d="M 8.015625 75.875 
L 15.828125 75.875 
Q 23.140625 64.359375 26.78125 53.3125 
Q 30.421875 42.28125 30.421875 31.390625 
Q 30.421875 20.453125 26.78125 9.375 
Q 23.140625 -1.703125 15.828125 -13.1875 
L 8.015625 -13.1875 
Q 14.5 -2 17.703125 9.0625 
Q 20.90625 20.125 20.90625 31.390625 
Q 20.90625 42.671875 17.703125 53.65625 
Q 14.5 64.65625 8.015625 75.875 
z
" id="DejaVuSans-29"/>
     </defs>
     <g transform="translate(132.165937 433.65275)rotate(-90)scale(0.14 -0.14)">
      <use xlink:href="#DejaVuSans-41"/>
      <use x="68.392578" xlink:href="#DejaVuSans-63"/>
      <use x="123.373047" xlink:href="#DejaVuSans-63"/>
      <use x="178.353516" xlink:href="#DejaVuSans-75"/>
      <use x="241.732422" xlink:href="#DejaVuSans-72"/>
      <use x="282.845703" xlink:href="#DejaVuSans-61"/>
      <use x="344.125" xlink:href="#DejaVuSans-63"/>
      <use x="399.105469" xlink:href="#DejaVuSans-79"/>
      <use x="458.285156" xlink:href="#DejaVuSans-20"/>
      <use x="490.072266" xlink:href="#DejaVuSans-28"/>
      <use x="529.085938" xlink:href="#DejaVuSans-25"/>
      <use x="624.105469" xlink:href="#DejaVuSans-29"/>
     </g>
    </g>
   </g>
   <g id="line2d_15">
    <path clip-path="url(#p359a21b695)" d="M 221.498182 335.868925 
L 221.931103 318.405396 
L 222.201678 311.587445 
L 222.472254 302.018387 
L 223.013405 292.210107 
L 223.554556 289.578617 
L 224.095707 283.239118 
L 226.801462 272.234704 
L 229.507217 266.014818 
L 232.212972 256.445761 
L 275.505055 242.331403 
L 329.620159 242.331403 
L 383.735263 237.307649 
L 437.850366 240.537204 
L 491.96547 242.690243 
L 546.080574 242.331403 
L 600.195677 240.656818 
L 654.310781 238.862619 
L 708.425885 238.982233 
L 762.540989 238.862619 
L 870.771196 238.982233 
L 979.001403 239.101846 
L 1087.231611 238.862619 
L 1195.461818 238.982233 
" style="fill:none;stroke:#ff0000;stroke-linecap:square;stroke-width:1.5;"/>
    <defs>
     <path d="M 0 1.5 
C 0.397805 1.5 0.77937 1.341951 1.06066 1.06066 
C 1.341951 0.77937 1.5 0.397805 1.5 0 
C 1.5 -0.397805 1.341951 -0.77937 1.06066 -1.06066 
C 0.77937 -1.341951 0.397805 -1.5 0 -1.5 
C -0.397805 -1.5 -0.77937 -1.341951 -1.06066 -1.06066 
C -1.341951 -0.77937 -1.5 -0.397805 -1.5 0 
C -1.5 0.397805 -1.341951 0.77937 -1.06066 1.06066 
C -0.77937 1.341951 -0.397805 1.5 0 1.5 
z
" id="m0d4fced489" style="stroke:#ff0000;"/>
    </defs>
    <g clip-path="url(#p359a21b695)">
     <use style="fill:#ff0000;stroke:#ff0000;" x="221.498182" xlink:href="#m0d4fced489" y="335.868925"/>
     <use style="fill:#ff0000;stroke:#ff0000;" x="221.931103" xlink:href="#m0d4fced489" y="318.405396"/>
     <use style="fill:#ff0000;stroke:#ff0000;" x="222.201678" xlink:href="#m0d4fced489" y="311.587445"/>
     <use style="fill:#ff0000;stroke:#ff0000;" x="222.472254" xlink:href="#m0d4fced489" y="302.018387"/>
     <use style="fill:#ff0000;stroke:#ff0000;" x="223.013405" xlink:href="#m0d4fced489" y="292.210107"/>
     <use style="fill:#ff0000;stroke:#ff0000;" x="223.554556" xlink:href="#m0d4fced489" y="289.578617"/>
     <use style="fill:#ff0000;stroke:#ff0000;" x="224.095707" xlink:href="#m0d4fced489" y="283.239118"/>
     <use style="fill:#ff0000;stroke:#ff0000;" x="226.801462" xlink:href="#m0d4fced489" y="272.234704"/>
     <use style="fill:#ff0000;stroke:#ff0000;" x="229.507217" xlink:href="#m0d4fced489" y="266.014818"/>
     <use style="fill:#ff0000;stroke:#ff0000;" x="232.212972" xlink:href="#m0d4fced489" y="256.445761"/>
     <use style="fill:#ff0000;stroke:#ff0000;" x="275.505055" xlink:href="#m0d4fced489" y="242.331403"/>
     <use style="fill:#ff0000;stroke:#ff0000;" x="329.620159" xlink:href="#m0d4fced489" y="242.331403"/>
     <use style="fill:#ff0000;stroke:#ff0000;" x="383.735263" xlink:href="#m0d4fced489" y="237.307649"/>
     <use style="fill:#ff0000;stroke:#ff0000;" x="437.850366" xlink:href="#m0d4fced489" y="240.537204"/>
     <use style="fill:#ff0000;stroke:#ff0000;" x="491.96547" xlink:href="#m0d4fced489" y="242.690243"/>
     <use style="fill:#ff0000;stroke:#ff0000;" x="546.080574" xlink:href="#m0d4fced489" y="242.331403"/>
     <use style="fill:#ff0000;stroke:#ff0000;" x="600.195677" xlink:href="#m0d4fced489" y="240.656818"/>
     <use style="fill:#ff0000;stroke:#ff0000;" x="654.310781" xlink:href="#m0d4fced489" y="238.862619"/>
     <use style="fill:#ff0000;stroke:#ff0000;" x="708.425885" xlink:href="#m0d4fced489" y="238.982233"/>
     <use style="fill:#ff0000;stroke:#ff0000;" x="762.540989" xlink:href="#m0d4fced489" y="238.862619"/>
     <use style="fill:#ff0000;stroke:#ff0000;" x="870.771196" xlink:href="#m0d4fced489" y="238.982233"/>
     <use style="fill:#ff0000;stroke:#ff0000;" x="979.001403" xlink:href="#m0d4fced489" y="239.101846"/>
     <use style="fill:#ff0000;stroke:#ff0000;" x="1087.231611" xlink:href="#m0d4fced489" y="238.862619"/>
     <use style="fill:#ff0000;stroke:#ff0000;" x="1195.461818" xlink:href="#m0d4fced489" y="238.982233"/>
    </g>
   </g>
   <g id="line2d_16">
    <path clip-path="url(#p359a21b695)" d="M 221.498182 277.222546 
L 221.931103 260.646535 
L 222.201678 257.331332 
L 222.472254 257.804933 
L 223.013405 255.673731 
L 223.554556 254.726531 
L 224.095707 248.569726 
L 226.801462 245.728124 
L 229.507217 242.886524 
L 232.212972 231.046516 
L 275.505055 231.520116 
L 329.620159 232.940918 
L 383.735263 232.940918 
L 437.850366 233.888119 
L 491.96547 232.467317 
L 546.080574 232.467317 
L 600.195677 231.993717 
L 654.310781 231.993717 
L 708.425885 230.099315 
L 762.540989 231.520116 
L 870.771196 231.046516 
L 979.001403 229.625715 
L 1087.231611 231.046516 
L 1195.461818 229.152115 
" style="fill:none;stroke:#0000ff;stroke-linecap:square;stroke-width:1.5;"/>
    <defs>
     <path d="M 0 1.5 
C 0.397805 1.5 0.77937 1.341951 1.06066 1.06066 
C 1.341951 0.77937 1.5 0.397805 1.5 0 
C 1.5 -0.397805 1.341951 -0.77937 1.06066 -1.06066 
C 0.77937 -1.341951 0.397805 -1.5 0 -1.5 
C -0.397805 -1.5 -0.77937 -1.341951 -1.06066 -1.06066 
C -1.341951 -0.77937 -1.5 -0.397805 -1.5 0 
C -1.5 0.397805 -1.341951 0.77937 -1.06066 1.06066 
C -0.77937 1.341951 -0.397805 1.5 0 1.5 
z
" id="m0982e84a94" style="stroke:#0000ff;"/>
    </defs>
    <g clip-path="url(#p359a21b695)">
     <use style="fill:#0000ff;stroke:#0000ff;" x="221.498182" xlink:href="#m0982e84a94" y="277.222546"/>
     <use style="fill:#0000ff;stroke:#0000ff;" x="221.931103" xlink:href="#m0982e84a94" y="260.646535"/>
     <use style="fill:#0000ff;stroke:#0000ff;" x="222.201678" xlink:href="#m0982e84a94" y="257.331332"/>
     <use style="fill:#0000ff;stroke:#0000ff;" x="222.472254" xlink:href="#m0982e84a94" y="257.804933"/>
     <use style="fill:#0000ff;stroke:#0000ff;" x="223.013405" xlink:href="#m0982e84a94" y="255.673731"/>
     <use style="fill:#0000ff;stroke:#0000ff;" x="223.554556" xlink:href="#m0982e84a94" y="254.726531"/>
     <use style="fill:#0000ff;stroke:#0000ff;" x="224.095707" xlink:href="#m0982e84a94" y="248.569726"/>
     <use style="fill:#0000ff;stroke:#0000ff;" x="226.801462" xlink:href="#m0982e84a94" y="245.728124"/>
     <use style="fill:#0000ff;stroke:#0000ff;" x="229.507217" xlink:href="#m0982e84a94" y="242.886524"/>
     <use style="fill:#0000ff;stroke:#0000ff;" x="232.212972" xlink:href="#m0982e84a94" y="231.046516"/>
     <use style="fill:#0000ff;stroke:#0000ff;" x="275.505055" xlink:href="#m0982e84a94" y="231.520116"/>
     <use style="fill:#0000ff;stroke:#0000ff;" x="329.620159" xlink:href="#m0982e84a94" y="232.940918"/>
     <use style="fill:#0000ff;stroke:#0000ff;" x="383.735263" xlink:href="#m0982e84a94" y="232.940918"/>
     <use style="fill:#0000ff;stroke:#0000ff;" x="437.850366" xlink:href="#m0982e84a94" y="233.888119"/>
     <use style="fill:#0000ff;stroke:#0000ff;" x="491.96547" xlink:href="#m0982e84a94" y="232.467317"/>
     <use style="fill:#0000ff;stroke:#0000ff;" x="546.080574" xlink:href="#m0982e84a94" y="232.467317"/>
     <use style="fill:#0000ff;stroke:#0000ff;" x="600.195677" xlink:href="#m0982e84a94" y="231.993717"/>
     <use style="fill:#0000ff;stroke:#0000ff;" x="654.310781" xlink:href="#m0982e84a94" y="231.993717"/>
     <use style="fill:#0000ff;stroke:#0000ff;" x="708.425885" xlink:href="#m0982e84a94" y="230.099315"/>
     <use style="fill:#0000ff;stroke:#0000ff;" x="762.540989" xlink:href="#m0982e84a94" y="231.520116"/>
     <use style="fill:#0000ff;stroke:#0000ff;" x="870.771196" xlink:href="#m0982e84a94" y="231.046516"/>
     <use style="fill:#0000ff;stroke:#0000ff;" x="979.001403" xlink:href="#m0982e84a94" y="229.625715"/>
     <use style="fill:#0000ff;stroke:#0000ff;" x="1087.231611" xlink:href="#m0982e84a94" y="231.046516"/>
     <use style="fill:#0000ff;stroke:#0000ff;" x="1195.461818" xlink:href="#m0982e84a94" y="229.152115"/>
    </g>
   </g>
   <g id="line2d_17">
    <path clip-path="url(#p359a21b695)" d="M 221.498182 400.052892 
L 221.931103 270.160967 
L 222.201678 261.511989 
L 222.472254 260.343816 
L 223.013405 257.423382 
L 223.554556 251.3354 
L 224.095707 252.323855 
L 226.801462 245.539461 
L 229.507217 239.788453 
L 232.212972 233.902654 
L 275.505055 227.028402 
L 329.620159 225.50079 
L 383.735263 225.321071 
L 437.850366 226.33199 
L 491.96547 228.039321 
L 546.080574 228.443689 
L 600.195677 228.398759 
L 654.310781 229.319819 
L 708.425885 229.566933 
L 762.540989 229.274889 
L 870.771196 229.18503 
L 979.001403 229.364749 
L 1087.231611 229.611863 
L 1195.461818 229.791582 
" style="fill:none;stroke:#008000;stroke-linecap:square;stroke-width:1.5;"/>
    <defs>
     <path d="M 0 1.5 
C 0.397805 1.5 0.77937 1.341951 1.06066 1.06066 
C 1.341951 0.77937 1.5 0.397805 1.5 0 
C 1.5 -0.397805 1.341951 -0.77937 1.06066 -1.06066 
C 0.77937 -1.341951 0.397805 -1.5 0 -1.5 
C -0.397805 -1.5 -0.77937 -1.341951 -1.06066 -1.06066 
C -1.341951 -0.77937 -1.5 -0.397805 -1.5 0 
C -1.5 0.397805 -1.341951 0.77937 -1.06066 1.06066 
C -0.77937 1.341951 -0.397805 1.5 0 1.5 
z
" id="m006f6d944f" style="stroke:#008000;"/>
    </defs>
    <g clip-path="url(#p359a21b695)">
     <use style="fill:#008000;stroke:#008000;" x="221.498182" xlink:href="#m006f6d944f" y="400.052892"/>
     <use style="fill:#008000;stroke:#008000;" x="221.931103" xlink:href="#m006f6d944f" y="270.160967"/>
     <use style="fill:#008000;stroke:#008000;" x="222.201678" xlink:href="#m006f6d944f" y="261.511989"/>
     <use style="fill:#008000;stroke:#008000;" x="222.472254" xlink:href="#m006f6d944f" y="260.343816"/>
     <use style="fill:#008000;stroke:#008000;" x="223.013405" xlink:href="#m006f6d944f" y="257.423382"/>
     <use style="fill:#008000;stroke:#008000;" x="223.554556" xlink:href="#m006f6d944f" y="251.3354"/>
     <use style="fill:#008000;stroke:#008000;" x="224.095707" xlink:href="#m006f6d944f" y="252.323855"/>
     <use style="fill:#008000;stroke:#008000;" x="226.801462" xlink:href="#m006f6d944f" y="245.539461"/>
     <use style="fill:#008000;stroke:#008000;" x="229.507217" xlink:href="#m006f6d944f" y="239.788453"/>
     <use style="fill:#008000;stroke:#008000;" x="232.212972" xlink:href="#m006f6d944f" y="233.902654"/>
     <use style="fill:#008000;stroke:#008000;" x="275.505055" xlink:href="#m006f6d944f" y="227.028402"/>
     <use style="fill:#008000;stroke:#008000;" x="329.620159" xlink:href="#m006f6d944f" y="225.50079"/>
     <use style="fill:#008000;stroke:#008000;" x="383.735263" xlink:href="#m006f6d944f" y="225.321071"/>
     <use style="fill:#008000;stroke:#008000;" x="437.850366" xlink:href="#m006f6d944f" y="226.33199"/>
     <use style="fill:#008000;stroke:#008000;" x="491.96547" xlink:href="#m006f6d944f" y="228.039321"/>
     <use style="fill:#008000;stroke:#008000;" x="546.080574" xlink:href="#m006f6d944f" y="228.443689"/>
     <use style="fill:#008000;stroke:#008000;" x="600.195677" xlink:href="#m006f6d944f" y="228.398759"/>
     <use style="fill:#008000;stroke:#008000;" x="654.310781" xlink:href="#m006f6d944f" y="229.319819"/>
     <use style="fill:#008000;stroke:#008000;" x="708.425885" xlink:href="#m006f6d944f" y="229.566933"/>
     <use style="fill:#008000;stroke:#008000;" x="762.540989" xlink:href="#m006f6d944f" y="229.274889"/>
     <use style="fill:#008000;stroke:#008000;" x="870.771196" xlink:href="#m006f6d944f" y="229.18503"/>
     <use style="fill:#008000;stroke:#008000;" x="979.001403" xlink:href="#m006f6d944f" y="229.364749"/>
     <use style="fill:#008000;stroke:#008000;" x="1087.231611" xlink:href="#m006f6d944f" y="229.611863"/>
     <use style="fill:#008000;stroke:#008000;" x="1195.461818" xlink:href="#m006f6d944f" y="229.791582"/>
    </g>
   </g>
   <g id="line2d_18">
    <path clip-path="url(#p359a21b695)" d="M 221.498182 451.64135 
L 221.931103 442.058681 
L 222.201678 438.198683 
L 222.472254 435.976941 
L 223.013405 429.491247 
L 223.554556 426.326947 
L 224.095707 424.127646 
L 226.801462 413.063816 
L 229.507217 409.877074 
L 232.212972 389.735517 
L 275.505055 366.508207 
L 329.620159 359.113619 
L 383.735263 356.611353 
L 437.850366 353.895889 
L 491.96547 355.208737 
L 546.080574 353.447052 
L 600.195677 353.626587 
L 654.310781 353.110425 
L 708.425885 352.32496 
L 762.540989 350.877461 
L 870.771196 349.373858 
L 979.001403 348.880137 
L 1087.231611 349.03723 
L 1195.461818 349.16066 
" style="fill:none;stroke:#ff9033;stroke-linecap:square;stroke-width:1.5;"/>
    <defs>
     <path d="M 0 1.5 
C 0.397805 1.5 0.77937 1.341951 1.06066 1.06066 
C 1.341951 0.77937 1.5 0.397805 1.5 0 
C 1.5 -0.397805 1.341951 -0.77937 1.06066 -1.06066 
C 0.77937 -1.341951 0.397805 -1.5 0 -1.5 
C -0.397805 -1.5 -0.77937 -1.341951 -1.06066 -1.06066 
C -1.341951 -0.77937 -1.5 -0.397805 -1.5 0 
C -1.5 0.397805 -1.341951 0.77937 -1.06066 1.06066 
C -0.77937 1.341951 -0.397805 1.5 0 1.5 
z
" id="m882e825187" style="stroke:#ff9033;"/>
    </defs>
    <g clip-path="url(#p359a21b695)">
     <use style="fill:#ff9033;stroke:#ff9033;" x="221.498182" xlink:href="#m882e825187" y="451.64135"/>
     <use style="fill:#ff9033;stroke:#ff9033;" x="221.931103" xlink:href="#m882e825187" y="442.058681"/>
     <use style="fill:#ff9033;stroke:#ff9033;" x="222.201678" xlink:href="#m882e825187" y="438.198683"/>
     <use style="fill:#ff9033;stroke:#ff9033;" x="222.472254" xlink:href="#m882e825187" y="435.976941"/>
     <use style="fill:#ff9033;stroke:#ff9033;" x="223.013405" xlink:href="#m882e825187" y="429.491247"/>
     <use style="fill:#ff9033;stroke:#ff9033;" x="223.554556" xlink:href="#m882e825187" y="426.326947"/>
     <use style="fill:#ff9033;stroke:#ff9033;" x="224.095707" xlink:href="#m882e825187" y="424.127646"/>
     <use style="fill:#ff9033;stroke:#ff9033;" x="226.801462" xlink:href="#m882e825187" y="413.063816"/>
     <use style="fill:#ff9033;stroke:#ff9033;" x="229.507217" xlink:href="#m882e825187" y="409.877074"/>
     <use style="fill:#ff9033;stroke:#ff9033;" x="232.212972" xlink:href="#m882e825187" y="389.735517"/>
     <use style="fill:#ff9033;stroke:#ff9033;" x="275.505055" xlink:href="#m882e825187" y="366.508207"/>
     <use style="fill:#ff9033;stroke:#ff9033;" x="329.620159" xlink:href="#m882e825187" y="359.113619"/>
     <use style="fill:#ff9033;stroke:#ff9033;" x="383.735263" xlink:href="#m882e825187" y="356.611353"/>
     <use style="fill:#ff9033;stroke:#ff9033;" x="437.850366" xlink:href="#m882e825187" y="353.895889"/>
     <use style="fill:#ff9033;stroke:#ff9033;" x="491.96547" xlink:href="#m882e825187" y="355.208737"/>
     <use style="fill:#ff9033;stroke:#ff9033;" x="546.080574" xlink:href="#m882e825187" y="353.447052"/>
     <use style="fill:#ff9033;stroke:#ff9033;" x="600.195677" xlink:href="#m882e825187" y="353.626587"/>
     <use style="fill:#ff9033;stroke:#ff9033;" x="654.310781" xlink:href="#m882e825187" y="353.110425"/>
     <use style="fill:#ff9033;stroke:#ff9033;" x="708.425885" xlink:href="#m882e825187" y="352.32496"/>
     <use style="fill:#ff9033;stroke:#ff9033;" x="762.540989" xlink:href="#m882e825187" y="350.877461"/>
     <use style="fill:#ff9033;stroke:#ff9033;" x="870.771196" xlink:href="#m882e825187" y="349.373858"/>
     <use style="fill:#ff9033;stroke:#ff9033;" x="979.001403" xlink:href="#m882e825187" y="348.880137"/>
     <use style="fill:#ff9033;stroke:#ff9033;" x="1087.231611" xlink:href="#m882e825187" y="349.03723"/>
     <use style="fill:#ff9033;stroke:#ff9033;" x="1195.461818" xlink:href="#m882e825187" y="349.16066"/>
    </g>
   </g>
   <g id="line2d_19">
    <path clip-path="url(#p359a21b695)" d="M 221.498182 306.181656 
L 221.931103 250.705628 
L 222.201678 239.330241 
L 222.472254 233.502456 
L 223.013405 225.321143 
L 223.554556 217.195866 
L 224.095707 210.639608 
L 226.801462 198.33962 
L 229.507217 193.436436 
L 232.212972 188.449197 
L 275.505055 176.373355 
L 329.620159 175.098527 
L 383.735263 174.033835 
L 437.850366 173.207299 
L 491.96547 173.781672 
L 546.080574 173.795681 
L 600.195677 173.711626 
L 654.310781 173.33338 
L 708.425885 172.899098 
L 762.540989 173.221308 
L 870.771196 172.422789 
L 979.001403 172.815044 
L 1087.231611 172.114589 
L 1195.461818 172.478826 
" style="fill:none;stroke:#bfbf00;stroke-linecap:square;stroke-width:1.5;"/>
    <defs>
     <path d="M 0 1.5 
C 0.397805 1.5 0.77937 1.341951 1.06066 1.06066 
C 1.341951 0.77937 1.5 0.397805 1.5 0 
C 1.5 -0.397805 1.341951 -0.77937 1.06066 -1.06066 
C 0.77937 -1.341951 0.397805 -1.5 0 -1.5 
C -0.397805 -1.5 -0.77937 -1.341951 -1.06066 -1.06066 
C -1.341951 -0.77937 -1.5 -0.397805 -1.5 0 
C -1.5 0.397805 -1.341951 0.77937 -1.06066 1.06066 
C -0.77937 1.341951 -0.397805 1.5 0 1.5 
z
" id="me55451c391" style="stroke:#bfbf00;"/>
    </defs>
    <g clip-path="url(#p359a21b695)">
     <use style="fill:#bfbf00;stroke:#bfbf00;" x="221.498182" xlink:href="#me55451c391" y="306.181656"/>
     <use style="fill:#bfbf00;stroke:#bfbf00;" x="221.931103" xlink:href="#me55451c391" y="250.705628"/>
     <use style="fill:#bfbf00;stroke:#bfbf00;" x="222.201678" xlink:href="#me55451c391" y="239.330241"/>
     <use style="fill:#bfbf00;stroke:#bfbf00;" x="222.472254" xlink:href="#me55451c391" y="233.502456"/>
     <use style="fill:#bfbf00;stroke:#bfbf00;" x="223.013405" xlink:href="#me55451c391" y="225.321143"/>
     <use style="fill:#bfbf00;stroke:#bfbf00;" x="223.554556" xlink:href="#me55451c391" y="217.195866"/>
     <use style="fill:#bfbf00;stroke:#bfbf00;" x="224.095707" xlink:href="#me55451c391" y="210.639608"/>
     <use style="fill:#bfbf00;stroke:#bfbf00;" x="226.801462" xlink:href="#me55451c391" y="198.33962"/>
     <use style="fill:#bfbf00;stroke:#bfbf00;" x="229.507217" xlink:href="#me55451c391" y="193.436436"/>
     <use style="fill:#bfbf00;stroke:#bfbf00;" x="232.212972" xlink:href="#me55451c391" y="188.449197"/>
     <use style="fill:#bfbf00;stroke:#bfbf00;" x="275.505055" xlink:href="#me55451c391" y="176.373355"/>
     <use style="fill:#bfbf00;stroke:#bfbf00;" x="329.620159" xlink:href="#me55451c391" y="175.098527"/>
     <use style="fill:#bfbf00;stroke:#bfbf00;" x="383.735263" xlink:href="#me55451c391" y="174.033835"/>
     <use style="fill:#bfbf00;stroke:#bfbf00;" x="437.850366" xlink:href="#me55451c391" y="173.207299"/>
     <use style="fill:#bfbf00;stroke:#bfbf00;" x="491.96547" xlink:href="#me55451c391" y="173.781672"/>
     <use style="fill:#bfbf00;stroke:#bfbf00;" x="546.080574" xlink:href="#me55451c391" y="173.795681"/>
     <use style="fill:#bfbf00;stroke:#bfbf00;" x="600.195677" xlink:href="#me55451c391" y="173.711626"/>
     <use style="fill:#bfbf00;stroke:#bfbf00;" x="654.310781" xlink:href="#me55451c391" y="173.33338"/>
     <use style="fill:#bfbf00;stroke:#bfbf00;" x="708.425885" xlink:href="#me55451c391" y="172.899098"/>
     <use style="fill:#bfbf00;stroke:#bfbf00;" x="762.540989" xlink:href="#me55451c391" y="173.221308"/>
     <use style="fill:#bfbf00;stroke:#bfbf00;" x="870.771196" xlink:href="#me55451c391" y="172.422789"/>
     <use style="fill:#bfbf00;stroke:#bfbf00;" x="979.001403" xlink:href="#me55451c391" y="172.815044"/>
     <use style="fill:#bfbf00;stroke:#bfbf00;" x="1087.231611" xlink:href="#me55451c391" y="172.114589"/>
     <use style="fill:#bfbf00;stroke:#bfbf00;" x="1195.461818" xlink:href="#me55451c391" y="172.478826"/>
    </g>
   </g>
   <g id="line2d_20">
    <path clip-path="url(#p359a21b695)" d="M 221.498182 655.614 
L 221.931103 503.563581 
L 222.201678 483.615682 
L 222.472254 481.337251 
L 223.013405 432.978708 
L 223.554556 419.168624 
L 224.095707 398.290753 
L 226.801462 351.885151 
L 229.507217 330.449297 
L 232.212972 290.553499 
L 275.505055 241.776469 
L 329.620159 233.081231 
L 383.735263 228.338374 
L 437.850366 227.361903 
L 491.96547 226.524928 
L 546.080574 226.245937 
L 600.195677 227.315404 
L 654.310781 227.12941 
L 708.425885 225.780951 
L 762.540989 224.850979 
L 870.771196 225.873948 
L 979.001403 226.617925 
L 1087.231611 224.850979 
L 1195.461818 224.525489 
" style="fill:none;stroke:#00bfbf;stroke-linecap:square;stroke-width:1.5;"/>
    <defs>
     <path d="M 0 1.5 
C 0.397805 1.5 0.77937 1.341951 1.06066 1.06066 
C 1.341951 0.77937 1.5 0.397805 1.5 0 
C 1.5 -0.397805 1.341951 -0.77937 1.06066 -1.06066 
C 0.77937 -1.341951 0.397805 -1.5 0 -1.5 
C -0.397805 -1.5 -0.77937 -1.341951 -1.06066 -1.06066 
C -1.341951 -0.77937 -1.5 -0.397805 -1.5 0 
C -1.5 0.397805 -1.341951 0.77937 -1.06066 1.06066 
C -0.77937 1.341951 -0.397805 1.5 0 1.5 
z
" id="ma48fb7ed09" style="stroke:#00bfbf;"/>
    </defs>
    <g clip-path="url(#p359a21b695)">
     <use style="fill:#00bfbf;stroke:#00bfbf;" x="221.498182" xlink:href="#ma48fb7ed09" y="655.614"/>
     <use style="fill:#00bfbf;stroke:#00bfbf;" x="221.931103" xlink:href="#ma48fb7ed09" y="503.563581"/>
     <use style="fill:#00bfbf;stroke:#00bfbf;" x="222.201678" xlink:href="#ma48fb7ed09" y="483.615682"/>
     <use style="fill:#00bfbf;stroke:#00bfbf;" x="222.472254" xlink:href="#ma48fb7ed09" y="481.337251"/>
     <use style="fill:#00bfbf;stroke:#00bfbf;" x="223.013405" xlink:href="#ma48fb7ed09" y="432.978708"/>
     <use style="fill:#00bfbf;stroke:#00bfbf;" x="223.554556" xlink:href="#ma48fb7ed09" y="419.168624"/>
     <use style="fill:#00bfbf;stroke:#00bfbf;" x="224.095707" xlink:href="#ma48fb7ed09" y="398.290753"/>
     <use style="fill:#00bfbf;stroke:#00bfbf;" x="226.801462" xlink:href="#ma48fb7ed09" y="351.885151"/>
     <use style="fill:#00bfbf;stroke:#00bfbf;" x="229.507217" xlink:href="#ma48fb7ed09" y="330.449297"/>
     <use style="fill:#00bfbf;stroke:#00bfbf;" x="232.212972" xlink:href="#ma48fb7ed09" y="290.553499"/>
     <use style="fill:#00bfbf;stroke:#00bfbf;" x="275.505055" xlink:href="#ma48fb7ed09" y="241.776469"/>
     <use style="fill:#00bfbf;stroke:#00bfbf;" x="329.620159" xlink:href="#ma48fb7ed09" y="233.081231"/>
     <use style="fill:#00bfbf;stroke:#00bfbf;" x="383.735263" xlink:href="#ma48fb7ed09" y="228.338374"/>
     <use style="fill:#00bfbf;stroke:#00bfbf;" x="437.850366" xlink:href="#ma48fb7ed09" y="227.361903"/>
     <use style="fill:#00bfbf;stroke:#00bfbf;" x="491.96547" xlink:href="#ma48fb7ed09" y="226.524928"/>
     <use style="fill:#00bfbf;stroke:#00bfbf;" x="546.080574" xlink:href="#ma48fb7ed09" y="226.245937"/>
     <use style="fill:#00bfbf;stroke:#00bfbf;" x="600.195677" xlink:href="#ma48fb7ed09" y="227.315404"/>
     <use style="fill:#00bfbf;stroke:#00bfbf;" x="654.310781" xlink:href="#ma48fb7ed09" y="227.12941"/>
     <use style="fill:#00bfbf;stroke:#00bfbf;" x="708.425885" xlink:href="#ma48fb7ed09" y="225.780951"/>
     <use style="fill:#00bfbf;stroke:#00bfbf;" x="762.540989" xlink:href="#ma48fb7ed09" y="224.850979"/>
     <use style="fill:#00bfbf;stroke:#00bfbf;" x="870.771196" xlink:href="#ma48fb7ed09" y="225.873948"/>
     <use style="fill:#00bfbf;stroke:#00bfbf;" x="979.001403" xlink:href="#ma48fb7ed09" y="226.617925"/>
     <use style="fill:#00bfbf;stroke:#00bfbf;" x="1087.231611" xlink:href="#ma48fb7ed09" y="224.850979"/>
     <use style="fill:#00bfbf;stroke:#00bfbf;" x="1195.461818" xlink:href="#ma48fb7ed09" y="224.525489"/>
    </g>
   </g>
   <g id="line2d_21">
    <path clip-path="url(#p359a21b695)" d="M 221.498182 370.088887 
L 221.931103 277.826649 
L 222.201678 251.993229 
L 222.472254 248.302739 
L 223.013405 225.790753 
L 223.554556 217.302625 
L 224.095707 201.433506 
L 226.801462 170.802474 
L 229.507217 163.052437 
L 232.212972 159.730988 
L 275.505055 151.611913 
L 329.620159 151.796437 
L 383.735263 151.242863 
L 437.850366 151.427389 
L 491.96547 150.873814 
L 546.080574 150.135717 
L 600.195677 150.320241 
L 654.310781 151.058339 
L 708.425885 150.504765 
L 762.540989 151.242864 
L 870.771196 151.058339 
L 979.001403 151.611912 
L 1087.231611 149.582143 
L 1195.461818 149.582143 
" style="fill:none;stroke:#bf00bf;stroke-linecap:square;stroke-width:1.5;"/>
    <defs>
     <path d="M 0 1.5 
C 0.397805 1.5 0.77937 1.341951 1.06066 1.06066 
C 1.341951 0.77937 1.5 0.397805 1.5 0 
C 1.5 -0.397805 1.341951 -0.77937 1.06066 -1.06066 
C 0.77937 -1.341951 0.397805 -1.5 0 -1.5 
C -0.397805 -1.5 -0.77937 -1.341951 -1.06066 -1.06066 
C -1.341951 -0.77937 -1.5 -0.397805 -1.5 0 
C -1.5 0.397805 -1.341951 0.77937 -1.06066 1.06066 
C -0.77937 1.341951 -0.397805 1.5 0 1.5 
z
" id="md4cf1f6c57" style="stroke:#bf00bf;"/>
    </defs>
    <g clip-path="url(#p359a21b695)">
     <use style="fill:#bf00bf;stroke:#bf00bf;" x="221.498182" xlink:href="#md4cf1f6c57" y="370.088887"/>
     <use style="fill:#bf00bf;stroke:#bf00bf;" x="221.931103" xlink:href="#md4cf1f6c57" y="277.826649"/>
     <use style="fill:#bf00bf;stroke:#bf00bf;" x="222.201678" xlink:href="#md4cf1f6c57" y="251.993229"/>
     <use style="fill:#bf00bf;stroke:#bf00bf;" x="222.472254" xlink:href="#md4cf1f6c57" y="248.302739"/>
     <use style="fill:#bf00bf;stroke:#bf00bf;" x="223.013405" xlink:href="#md4cf1f6c57" y="225.790753"/>
     <use style="fill:#bf00bf;stroke:#bf00bf;" x="223.554556" xlink:href="#md4cf1f6c57" y="217.302625"/>
     <use style="fill:#bf00bf;stroke:#bf00bf;" x="224.095707" xlink:href="#md4cf1f6c57" y="201.433506"/>
     <use style="fill:#bf00bf;stroke:#bf00bf;" x="226.801462" xlink:href="#md4cf1f6c57" y="170.802474"/>
     <use style="fill:#bf00bf;stroke:#bf00bf;" x="229.507217" xlink:href="#md4cf1f6c57" y="163.052437"/>
     <use style="fill:#bf00bf;stroke:#bf00bf;" x="232.212972" xlink:href="#md4cf1f6c57" y="159.730988"/>
     <use style="fill:#bf00bf;stroke:#bf00bf;" x="275.505055" xlink:href="#md4cf1f6c57" y="151.611913"/>
     <use style="fill:#bf00bf;stroke:#bf00bf;" x="329.620159" xlink:href="#md4cf1f6c57" y="151.796437"/>
     <use style="fill:#bf00bf;stroke:#bf00bf;" x="383.735263" xlink:href="#md4cf1f6c57" y="151.242863"/>
     <use style="fill:#bf00bf;stroke:#bf00bf;" x="437.850366" xlink:href="#md4cf1f6c57" y="151.427389"/>
     <use style="fill:#bf00bf;stroke:#bf00bf;" x="491.96547" xlink:href="#md4cf1f6c57" y="150.873814"/>
     <use style="fill:#bf00bf;stroke:#bf00bf;" x="546.080574" xlink:href="#md4cf1f6c57" y="150.135717"/>
     <use style="fill:#bf00bf;stroke:#bf00bf;" x="600.195677" xlink:href="#md4cf1f6c57" y="150.320241"/>
     <use style="fill:#bf00bf;stroke:#bf00bf;" x="654.310781" xlink:href="#md4cf1f6c57" y="151.058339"/>
     <use style="fill:#bf00bf;stroke:#bf00bf;" x="708.425885" xlink:href="#md4cf1f6c57" y="150.504765"/>
     <use style="fill:#bf00bf;stroke:#bf00bf;" x="762.540989" xlink:href="#md4cf1f6c57" y="151.242864"/>
     <use style="fill:#bf00bf;stroke:#bf00bf;" x="870.771196" xlink:href="#md4cf1f6c57" y="151.058339"/>
     <use style="fill:#bf00bf;stroke:#bf00bf;" x="979.001403" xlink:href="#md4cf1f6c57" y="151.611912"/>
     <use style="fill:#bf00bf;stroke:#bf00bf;" x="1087.231611" xlink:href="#md4cf1f6c57" y="149.582143"/>
     <use style="fill:#bf00bf;stroke:#bf00bf;" x="1195.461818" xlink:href="#md4cf1f6c57" y="149.582143"/>
    </g>
   </g>
   <g id="line2d_22">
    <path clip-path="url(#p359a21b695)" d="M 221.498182 539.196983 
L 221.931103 309.677926 
L 222.201678 284.631661 
L 222.472254 264.758755 
L 223.013405 226.944197 
L 223.554556 197.665182 
L 224.095707 190.000205 
L 226.801462 160.601112 
L 229.507217 151.875445 
L 232.212972 134.679277 
L 275.505055 124.567711 
L 329.620159 122.126125 
L 383.735263 121.105462 
L 437.850366 120.465046 
L 491.96547 120.074793 
L 546.080574 119.554455 
L 600.195677 119.694546 
L 654.310781 119.524435 
L 708.425885 119.184214 
L 762.540989 119.354325 
L 870.771196 119.344318 
L 979.001403 118.974078 
L 1087.231611 119.064137 
L 1195.461818 118.854 
" style="fill:none;stroke:#fc33ff;stroke-linecap:square;stroke-width:1.5;"/>
    <defs>
     <path d="M 0 1.5 
C 0.397805 1.5 0.77937 1.341951 1.06066 1.06066 
C 1.341951 0.77937 1.5 0.397805 1.5 0 
C 1.5 -0.397805 1.341951 -0.77937 1.06066 -1.06066 
C 0.77937 -1.341951 0.397805 -1.5 0 -1.5 
C -0.397805 -1.5 -0.77937 -1.341951 -1.06066 -1.06066 
C -1.341951 -0.77937 -1.5 -0.397805 -1.5 0 
C -1.5 0.397805 -1.341951 0.77937 -1.06066 1.06066 
C -0.77937 1.341951 -0.397805 1.5 0 1.5 
z
" id="ma90c95c01f" style="stroke:#fc33ff;"/>
    </defs>
    <g clip-path="url(#p359a21b695)">
     <use style="fill:#fc33ff;stroke:#fc33ff;" x="221.498182" xlink:href="#ma90c95c01f" y="539.196983"/>
     <use style="fill:#fc33ff;stroke:#fc33ff;" x="221.931103" xlink:href="#ma90c95c01f" y="309.677926"/>
     <use style="fill:#fc33ff;stroke:#fc33ff;" x="222.201678" xlink:href="#ma90c95c01f" y="284.631661"/>
     <use style="fill:#fc33ff;stroke:#fc33ff;" x="222.472254" xlink:href="#ma90c95c01f" y="264.758755"/>
     <use style="fill:#fc33ff;stroke:#fc33ff;" x="223.013405" xlink:href="#ma90c95c01f" y="226.944197"/>
     <use style="fill:#fc33ff;stroke:#fc33ff;" x="223.554556" xlink:href="#ma90c95c01f" y="197.665182"/>
     <use style="fill:#fc33ff;stroke:#fc33ff;" x="224.095707" xlink:href="#ma90c95c01f" y="190.000205"/>
     <use style="fill:#fc33ff;stroke:#fc33ff;" x="226.801462" xlink:href="#ma90c95c01f" y="160.601112"/>
     <use style="fill:#fc33ff;stroke:#fc33ff;" x="229.507217" xlink:href="#ma90c95c01f" y="151.875445"/>
     <use style="fill:#fc33ff;stroke:#fc33ff;" x="232.212972" xlink:href="#ma90c95c01f" y="134.679277"/>
     <use style="fill:#fc33ff;stroke:#fc33ff;" x="275.505055" xlink:href="#ma90c95c01f" y="124.567711"/>
     <use style="fill:#fc33ff;stroke:#fc33ff;" x="329.620159" xlink:href="#ma90c95c01f" y="122.126125"/>
     <use style="fill:#fc33ff;stroke:#fc33ff;" x="383.735263" xlink:href="#ma90c95c01f" y="121.105462"/>
     <use style="fill:#fc33ff;stroke:#fc33ff;" x="437.850366" xlink:href="#ma90c95c01f" y="120.465046"/>
     <use style="fill:#fc33ff;stroke:#fc33ff;" x="491.96547" xlink:href="#ma90c95c01f" y="120.074793"/>
     <use style="fill:#fc33ff;stroke:#fc33ff;" x="546.080574" xlink:href="#ma90c95c01f" y="119.554455"/>
     <use style="fill:#fc33ff;stroke:#fc33ff;" x="600.195677" xlink:href="#ma90c95c01f" y="119.694546"/>
     <use style="fill:#fc33ff;stroke:#fc33ff;" x="654.310781" xlink:href="#ma90c95c01f" y="119.524435"/>
     <use style="fill:#fc33ff;stroke:#fc33ff;" x="708.425885" xlink:href="#ma90c95c01f" y="119.184214"/>
     <use style="fill:#fc33ff;stroke:#fc33ff;" x="762.540989" xlink:href="#ma90c95c01f" y="119.354325"/>
     <use style="fill:#fc33ff;stroke:#fc33ff;" x="870.771196" xlink:href="#ma90c95c01f" y="119.344318"/>
     <use style="fill:#fc33ff;stroke:#fc33ff;" x="979.001403" xlink:href="#ma90c95c01f" y="118.974078"/>
     <use style="fill:#fc33ff;stroke:#fc33ff;" x="1087.231611" xlink:href="#ma90c95c01f" y="119.064137"/>
     <use style="fill:#fc33ff;stroke:#fc33ff;" x="1195.461818" xlink:href="#ma90c95c01f" y="118.854"/>
    </g>
   </g>
   <g id="patch_3">
    <path d="M 172.8 682.452 
L 172.8 92.016 
" style="fill:none;stroke:#000000;stroke-linecap:square;stroke-linejoin:miter;stroke-width:0.8;"/>
   </g>
   <g id="patch_4">
    <path d="M 1244.16 682.452 
L 1244.16 92.016 
" style="fill:none;stroke:#000000;stroke-linecap:square;stroke-linejoin:miter;stroke-width:0.8;"/>
   </g>
   <g id="patch_5">
    <path d="M 172.8 682.452 
L 1244.16 682.452 
" style="fill:none;stroke:#000000;stroke-linecap:square;stroke-linejoin:miter;stroke-width:0.8;"/>
   </g>
   <g id="patch_6">
    <path d="M 172.8 92.016 
L 1244.16 92.016 
" style="fill:none;stroke:#000000;stroke-linecap:square;stroke-linejoin:miter;stroke-width:0.8;"/>
   </g>
   <g id="text_17">
    <!-- Top K vs Accuracy (%) -->
    <defs>
     <path d="M 2.984375 54.6875 
L 12.5 54.6875 
L 29.59375 8.796875 
L 46.6875 54.6875 
L 56.203125 54.6875 
L 35.6875 0 
L 23.484375 0 
z
" id="DejaVuSans-76"/>
     <path d="M 44.28125 53.078125 
L 44.28125 44.578125 
Q 40.484375 46.53125 36.375 47.5 
Q 32.28125 48.484375 27.875 48.484375 
Q 21.1875 48.484375 17.84375 46.4375 
Q 14.5 44.390625 14.5 40.28125 
Q 14.5 37.15625 16.890625 35.375 
Q 19.28125 33.59375 26.515625 31.984375 
L 29.59375 31.296875 
Q 39.15625 29.25 43.1875 25.515625 
Q 47.21875 21.78125 47.21875 15.09375 
Q 47.21875 7.46875 41.1875 3.015625 
Q 35.15625 -1.421875 24.609375 -1.421875 
Q 20.21875 -1.421875 15.453125 -0.5625 
Q 10.6875 0.296875 5.421875 2 
L 5.421875 11.28125 
Q 10.40625 8.6875 15.234375 7.390625 
Q 20.0625 6.109375 24.8125 6.109375 
Q 31.15625 6.109375 34.5625 8.28125 
Q 37.984375 10.453125 37.984375 14.40625 
Q 37.984375 18.0625 35.515625 20.015625 
Q 33.0625 21.96875 24.703125 23.78125 
L 21.578125 24.515625 
Q 13.234375 26.265625 9.515625 29.90625 
Q 5.8125 33.546875 5.8125 39.890625 
Q 5.8125 47.609375 11.28125 51.796875 
Q 16.75 56 26.8125 56 
Q 31.78125 56 36.171875 55.265625 
Q 40.578125 54.546875 44.28125 53.078125 
z
" id="DejaVuSans-73"/>
    </defs>
    <g transform="translate(614.33175 86.016)scale(0.168 -0.168)">
     <use xlink:href="#DejaVuSans-54"/>
     <use x="60.818359" xlink:href="#DejaVuSans-6f"/>
     <use x="122" xlink:href="#DejaVuSans-70"/>
     <use x="185.476562" xlink:href="#DejaVuSans-20"/>
     <use x="217.263672" xlink:href="#DejaVuSans-4b"/>
     <use x="282.839844" xlink:href="#DejaVuSans-20"/>
     <use x="314.626953" xlink:href="#DejaVuSans-76"/>
     <use x="373.806641" xlink:href="#DejaVuSans-73"/>
     <use x="425.90625" xlink:href="#DejaVuSans-20"/>
     <use x="457.693359" xlink:href="#DejaVuSans-41"/>
     <use x="526.085938" xlink:href="#DejaVuSans-63"/>
     <use x="581.066406" xlink:href="#DejaVuSans-63"/>
     <use x="636.046875" xlink:href="#DejaVuSans-75"/>
     <use x="699.425781" xlink:href="#DejaVuSans-72"/>
     <use x="740.539062" xlink:href="#DejaVuSans-61"/>
     <use x="801.818359" xlink:href="#DejaVuSans-63"/>
     <use x="856.798828" xlink:href="#DejaVuSans-79"/>
     <use x="915.978516" xlink:href="#DejaVuSans-20"/>
     <use x="947.765625" xlink:href="#DejaVuSans-28"/>
     <use x="986.779297" xlink:href="#DejaVuSans-25"/>
     <use x="1081.798828" xlink:href="#DejaVuSans-29"/>
    </g>
   </g>
  </g>
  <g id="axes_2">
   <g id="patch_7">
    <path d="M 898.56 651.78 
L 1244.16 651.78 
L 1244.16 460.08 
L 898.56 460.08 
z
" style="fill:#ffffff;"/>
   </g>
   <g id="patch_8">
    <path clip-path="url(#pa63a880ac7)" d="M 915.84 486.705 
L 935.04 486.705 
L 935.04 476.055 
L 915.84 476.055 
z
" style="fill:#ffffff;stroke:#000000;stroke-linejoin:miter;"/>
   </g>
   <g id="patch_9">
    <path clip-path="url(#pa63a880ac7)" d="M 915.84 508.005 
L 935.04 508.005 
L 935.04 497.355 
L 915.84 497.355 
z
" style="fill:#ffffff;stroke:#000000;stroke-linejoin:miter;"/>
   </g>
   <g id="patch_10">
    <path clip-path="url(#pa63a880ac7)" d="M 915.84 529.305 
L 935.04 529.305 
L 935.04 518.655 
L 915.84 518.655 
z
" style="fill:#ffffff;stroke:#000000;stroke-linejoin:miter;"/>
   </g>
   <g id="patch_11">
    <path clip-path="url(#pa63a880ac7)" d="M 915.84 550.605 
L 935.04 550.605 
L 935.04 539.955 
L 915.84 539.955 
z
" style="fill:#ffffff;stroke:#000000;stroke-linejoin:miter;"/>
   </g>
   <g id="patch_12">
    <path clip-path="url(#pa63a880ac7)" d="M 915.84 571.905 
L 935.04 571.905 
L 935.04 561.255 
L 915.84 561.255 
z
" style="fill:#ffffff;stroke:#000000;stroke-linejoin:miter;"/>
   </g>
   <g id="patch_13">
    <path clip-path="url(#pa63a880ac7)" d="M 915.84 593.205 
L 935.04 593.205 
L 935.04 582.555 
L 915.84 582.555 
z
" style="fill:#ffffff;stroke:#000000;stroke-linejoin:miter;"/>
   </g>
   <g id="patch_14">
    <path clip-path="url(#pa63a880ac7)" d="M 915.84 614.505 
L 935.04 614.505 
L 935.04 603.855 
L 915.84 603.855 
z
" style="fill:#ffffff;stroke:#000000;stroke-linejoin:miter;"/>
   </g>
   <g id="patch_15">
    <path clip-path="url(#pa63a880ac7)" d="M 915.84 635.805 
L 935.04 635.805 
L 935.04 625.155 
L 915.84 625.155 
z
" style="fill:#ffffff;stroke:#000000;stroke-linejoin:miter;"/>
   </g>
   <g id="matplotlib.axis_3"/>
   <g id="matplotlib.axis_4"/>
   <g id="line2d_23">
    <path clip-path="url(#pa63a880ac7)" d="M 915.84 476.055 
L 935.04 486.705 
" style="fill:none;stroke:#000000;stroke-width:1.25;"/>
   </g>
   <g id="line2d_24">
    <path clip-path="url(#pa63a880ac7)" d="M 915.84 486.705 
L 935.04 476.055 
" style="fill:none;stroke:#000000;stroke-width:1.25;"/>
   </g>
   <g id="line2d_25">
    <path clip-path="url(#pa63a880ac7)" d="M 915.84 497.355 
L 935.04 508.005 
" style="fill:none;stroke:#000000;stroke-width:1.25;"/>
   </g>
   <g id="line2d_26">
    <path clip-path="url(#pa63a880ac7)" d="M 915.84 508.005 
L 935.04 497.355 
" style="fill:none;stroke:#000000;stroke-width:1.25;"/>
   </g>
   <g id="line2d_27">
    <path clip-path="url(#pa63a880ac7)" d="M 915.84 518.655 
L 935.04 529.305 
" style="fill:none;stroke:#000000;stroke-width:1.25;"/>
   </g>
   <g id="line2d_28">
    <path clip-path="url(#pa63a880ac7)" d="M 915.84 529.305 
L 935.04 518.655 
" style="fill:none;stroke:#000000;stroke-width:1.25;"/>
   </g>
   <g id="line2d_29">
    <path clip-path="url(#pa63a880ac7)" d="M 915.84 539.955 
L 935.04 550.605 
" style="fill:none;stroke:#000000;stroke-width:1.25;"/>
   </g>
   <g id="line2d_30">
    <path clip-path="url(#pa63a880ac7)" d="M 915.84 550.605 
L 935.04 539.955 
" style="fill:none;stroke:#000000;stroke-width:1.25;"/>
   </g>
   <g id="line2d_31">
    <path clip-path="url(#pa63a880ac7)" d="M 915.84 561.255 
L 935.04 571.905 
" style="fill:none;stroke:#000000;stroke-width:1.25;"/>
   </g>
   <g id="line2d_32">
    <path clip-path="url(#pa63a880ac7)" d="M 915.84 571.905 
L 935.04 561.255 
" style="fill:none;stroke:#000000;stroke-width:1.25;"/>
   </g>
   <g id="line2d_33">
    <path clip-path="url(#pa63a880ac7)" d="M 915.84 582.555 
L 935.04 593.205 
" style="fill:none;stroke:#000000;stroke-width:1.25;"/>
   </g>
   <g id="line2d_34">
    <path clip-path="url(#pa63a880ac7)" d="M 915.84 593.205 
L 935.04 582.555 
" style="fill:none;stroke:#000000;stroke-width:1.25;"/>
   </g>
   <g id="line2d_35">
    <path clip-path="url(#pa63a880ac7)" d="M 915.84 603.855 
L 935.04 614.505 
" style="fill:none;stroke:#000000;stroke-width:1.25;"/>
   </g>
   <g id="line2d_36">
    <path clip-path="url(#pa63a880ac7)" d="M 915.84 614.505 
L 935.04 603.855 
" style="fill:none;stroke:#000000;stroke-width:1.25;"/>
   </g>
   <g id="line2d_37">
    <path clip-path="url(#pa63a880ac7)" d="M 915.84 625.155 
L 935.04 635.805 
" style="fill:none;stroke:#000000;stroke-width:1.25;"/>
   </g>
   <g id="line2d_38">
    <path clip-path="url(#pa63a880ac7)" d="M 915.84 635.805 
L 935.04 625.155 
" style="fill:none;stroke:#000000;stroke-width:1.25;"/>
   </g>
   <g id="patch_16">
    <path d="M 898.56 651.78 
L 898.56 460.08 
" style="fill:none;stroke:#000000;stroke-linecap:square;stroke-linejoin:miter;stroke-width:0.8;"/>
   </g>
   <g id="patch_17">
    <path d="M 1244.16 651.78 
L 1244.16 460.08 
" style="fill:none;stroke:#000000;stroke-linecap:square;stroke-linejoin:miter;stroke-width:0.8;"/>
   </g>
   <g id="patch_18">
    <path d="M 898.56 651.78 
L 1244.16 651.78 
" style="fill:none;stroke:#000000;stroke-linecap:square;stroke-linejoin:miter;stroke-width:0.8;"/>
   </g>
   <g id="patch_19">
    <path d="M 898.56 460.08 
L 1244.16 460.08 
" style="fill:none;stroke:#000000;stroke-linecap:square;stroke-linejoin:miter;stroke-width:0.8;"/>
   </g>
   <g id="text_18">
    <!-- tweet_sentiment -->
    <defs>
     <path d="M 18.3125 70.21875 
L 18.3125 54.6875 
L 36.8125 54.6875 
L 36.8125 47.703125 
L 18.3125 47.703125 
L 18.3125 18.015625 
Q 18.3125 11.328125 20.140625 9.421875 
Q 21.96875 7.515625 27.59375 7.515625 
L 36.8125 7.515625 
L 36.8125 0 
L 27.59375 0 
Q 17.1875 0 13.234375 3.875 
Q 9.28125 7.765625 9.28125 18.015625 
L 9.28125 47.703125 
L 2.6875 47.703125 
L 2.6875 54.6875 
L 9.28125 54.6875 
L 9.28125 70.21875 
z
" id="DejaVuSans-74"/>
     <path d="M 4.203125 54.6875 
L 13.1875 54.6875 
L 24.421875 12.015625 
L 35.59375 54.6875 
L 46.1875 54.6875 
L 57.421875 12.015625 
L 68.609375 54.6875 
L 77.59375 54.6875 
L 63.28125 0 
L 52.6875 0 
L 40.921875 44.828125 
L 29.109375 0 
L 18.5 0 
z
" id="DejaVuSans-77"/>
     <path d="M 56.203125 29.59375 
L 56.203125 25.203125 
L 14.890625 25.203125 
Q 15.484375 15.921875 20.484375 11.0625 
Q 25.484375 6.203125 34.421875 6.203125 
Q 39.59375 6.203125 44.453125 7.46875 
Q 49.3125 8.734375 54.109375 11.28125 
L 54.109375 2.78125 
Q 49.265625 0.734375 44.1875 -0.34375 
Q 39.109375 -1.421875 33.890625 -1.421875 
Q 20.796875 -1.421875 13.15625 6.1875 
Q 5.515625 13.8125 5.515625 26.8125 
Q 5.515625 40.234375 12.765625 48.109375 
Q 20.015625 56 32.328125 56 
Q 43.359375 56 49.78125 48.890625 
Q 56.203125 41.796875 56.203125 29.59375 
z
M 47.21875 32.234375 
Q 47.125 39.59375 43.09375 43.984375 
Q 39.0625 48.390625 32.421875 48.390625 
Q 24.90625 48.390625 20.390625 44.140625 
Q 15.875 39.890625 15.1875 32.171875 
z
" id="DejaVuSans-65"/>
     <path d="M 50.984375 -16.609375 
L 50.984375 -23.578125 
L -0.984375 -23.578125 
L -0.984375 -16.609375 
z
" id="DejaVuSans-5f"/>
     <path d="M 54.890625 33.015625 
L 54.890625 0 
L 45.90625 0 
L 45.90625 32.71875 
Q 45.90625 40.484375 42.875 44.328125 
Q 39.84375 48.1875 33.796875 48.1875 
Q 26.515625 48.1875 22.3125 43.546875 
Q 18.109375 38.921875 18.109375 30.90625 
L 18.109375 0 
L 9.078125 0 
L 9.078125 54.6875 
L 18.109375 54.6875 
L 18.109375 46.1875 
Q 21.34375 51.125 25.703125 53.5625 
Q 30.078125 56 35.796875 56 
Q 45.21875 56 50.046875 50.171875 
Q 54.890625 44.34375 54.890625 33.015625 
z
" id="DejaVuSans-6e"/>
     <path d="M 9.421875 54.6875 
L 18.40625 54.6875 
L 18.40625 0 
L 9.421875 0 
z
M 9.421875 75.984375 
L 18.40625 75.984375 
L 18.40625 64.59375 
L 9.421875 64.59375 
z
" id="DejaVuSans-69"/>
     <path d="M 52 44.1875 
Q 55.375 50.25 60.0625 53.125 
Q 64.75 56 71.09375 56 
Q 79.640625 56 84.28125 50.015625 
Q 88.921875 44.046875 88.921875 33.015625 
L 88.921875 0 
L 79.890625 0 
L 79.890625 32.71875 
Q 79.890625 40.578125 77.09375 44.375 
Q 74.3125 48.1875 68.609375 48.1875 
Q 61.625 48.1875 57.5625 43.546875 
Q 53.515625 38.921875 53.515625 30.90625 
L 53.515625 0 
L 44.484375 0 
L 44.484375 32.71875 
Q 44.484375 40.625 41.703125 44.40625 
Q 38.921875 48.1875 33.109375 48.1875 
Q 26.21875 48.1875 22.15625 43.53125 
Q 18.109375 38.875 18.109375 30.90625 
L 18.109375 0 
L 9.078125 0 
L 9.078125 54.6875 
L 18.109375 54.6875 
L 18.109375 46.1875 
Q 21.1875 51.21875 25.484375 53.609375 
Q 29.78125 56 35.6875 56 
Q 41.65625 56 45.828125 52.96875 
Q 50 49.953125 52 44.1875 
z
" id="DejaVuSans-6d"/>
    </defs>
    <g style="fill:#ff0000;" transform="translate(984.96 485.048438)scale(0.14 -0.14)">
     <use xlink:href="#DejaVuSans-74"/>
     <use x="39.208984" xlink:href="#DejaVuSans-77"/>
     <use x="120.996094" xlink:href="#DejaVuSans-65"/>
     <use x="182.519531" xlink:href="#DejaVuSans-65"/>
     <use x="244.042969" xlink:href="#DejaVuSans-74"/>
     <use x="283.251953" xlink:href="#DejaVuSans-5f"/>
     <use x="333.251953" xlink:href="#DejaVuSans-73"/>
     <use x="385.351562" xlink:href="#DejaVuSans-65"/>
     <use x="446.875" xlink:href="#DejaVuSans-6e"/>
     <use x="510.253906" xlink:href="#DejaVuSans-74"/>
     <use x="549.462891" xlink:href="#DejaVuSans-69"/>
     <use x="577.246094" xlink:href="#DejaVuSans-6d"/>
     <use x="674.658203" xlink:href="#DejaVuSans-65"/>
     <use x="736.181641" xlink:href="#DejaVuSans-6e"/>
     <use x="799.560547" xlink:href="#DejaVuSans-74"/>
    </g>
   </g>
   <g id="text_19">
    <!-- stumble_upon_category -->
    <defs>
     <path d="M 48.6875 27.296875 
Q 48.6875 37.203125 44.609375 42.84375 
Q 40.53125 48.484375 33.40625 48.484375 
Q 26.265625 48.484375 22.1875 42.84375 
Q 18.109375 37.203125 18.109375 27.296875 
Q 18.109375 17.390625 22.1875 11.75 
Q 26.265625 6.109375 33.40625 6.109375 
Q 40.53125 6.109375 44.609375 11.75 
Q 48.6875 17.390625 48.6875 27.296875 
z
M 18.109375 46.390625 
Q 20.953125 51.265625 25.265625 53.625 
Q 29.59375 56 35.59375 56 
Q 45.5625 56 51.78125 48.09375 
Q 58.015625 40.1875 58.015625 27.296875 
Q 58.015625 14.40625 51.78125 6.484375 
Q 45.5625 -1.421875 35.59375 -1.421875 
Q 29.59375 -1.421875 25.265625 0.953125 
Q 20.953125 3.328125 18.109375 8.203125 
L 18.109375 0 
L 9.078125 0 
L 9.078125 75.984375 
L 18.109375 75.984375 
z
" id="DejaVuSans-62"/>
     <path d="M 9.421875 75.984375 
L 18.40625 75.984375 
L 18.40625 0 
L 9.421875 0 
z
" id="DejaVuSans-6c"/>
     <path d="M 45.40625 27.984375 
Q 45.40625 37.75 41.375 43.109375 
Q 37.359375 48.484375 30.078125 48.484375 
Q 22.859375 48.484375 18.828125 43.109375 
Q 14.796875 37.75 14.796875 27.984375 
Q 14.796875 18.265625 18.828125 12.890625 
Q 22.859375 7.515625 30.078125 7.515625 
Q 37.359375 7.515625 41.375 12.890625 
Q 45.40625 18.265625 45.40625 27.984375 
z
M 54.390625 6.78125 
Q 54.390625 -7.171875 48.1875 -13.984375 
Q 42 -20.796875 29.203125 -20.796875 
Q 24.46875 -20.796875 20.265625 -20.09375 
Q 16.0625 -19.390625 12.109375 -17.921875 
L 12.109375 -9.1875 
Q 16.0625 -11.328125 19.921875 -12.34375 
Q 23.78125 -13.375 27.78125 -13.375 
Q 36.625 -13.375 41.015625 -8.765625 
Q 45.40625 -4.15625 45.40625 5.171875 
L 45.40625 9.625 
Q 42.625 4.78125 38.28125 2.390625 
Q 33.9375 0 27.875 0 
Q 17.828125 0 11.671875 7.65625 
Q 5.515625 15.328125 5.515625 27.984375 
Q 5.515625 40.671875 11.671875 48.328125 
Q 17.828125 56 27.875 56 
Q 33.9375 56 38.28125 53.609375 
Q 42.625 51.21875 45.40625 46.390625 
L 45.40625 54.6875 
L 54.390625 54.6875 
z
" id="DejaVuSans-67"/>
    </defs>
    <g style="fill:#0000ff;" transform="translate(984.96 506.348438)scale(0.14 -0.14)">
     <use xlink:href="#DejaVuSans-73"/>
     <use x="52.099609" xlink:href="#DejaVuSans-74"/>
     <use x="91.308594" xlink:href="#DejaVuSans-75"/>
     <use x="154.6875" xlink:href="#DejaVuSans-6d"/>
     <use x="252.099609" xlink:href="#DejaVuSans-62"/>
     <use x="315.576172" xlink:href="#DejaVuSans-6c"/>
     <use x="343.359375" xlink:href="#DejaVuSans-65"/>
     <use x="404.882812" xlink:href="#DejaVuSans-5f"/>
     <use x="454.882812" xlink:href="#DejaVuSans-75"/>
     <use x="518.261719" xlink:href="#DejaVuSans-70"/>
     <use x="581.738281" xlink:href="#DejaVuSans-6f"/>
     <use x="642.919922" xlink:href="#DejaVuSans-6e"/>
     <use x="706.298828" xlink:href="#DejaVuSans-5f"/>
     <use x="756.298828" xlink:href="#DejaVuSans-63"/>
     <use x="811.279297" xlink:href="#DejaVuSans-61"/>
     <use x="872.558594" xlink:href="#DejaVuSans-74"/>
     <use x="911.767578" xlink:href="#DejaVuSans-65"/>
     <use x="973.291016" xlink:href="#DejaVuSans-67"/>
     <use x="1036.767578" xlink:href="#DejaVuSans-6f"/>
     <use x="1097.949219" xlink:href="#DejaVuSans-72"/>
     <use x="1139.0625" xlink:href="#DejaVuSans-79"/>
    </g>
   </g>
   <g id="text_20">
    <!-- tweet_topic -->
    <g style="fill:#008000;" transform="translate(984.96 527.648438)scale(0.14 -0.14)">
     <use xlink:href="#DejaVuSans-74"/>
     <use x="39.208984" xlink:href="#DejaVuSans-77"/>
     <use x="120.996094" xlink:href="#DejaVuSans-65"/>
     <use x="182.519531" xlink:href="#DejaVuSans-65"/>
     <use x="244.042969" xlink:href="#DejaVuSans-74"/>
     <use x="283.251953" xlink:href="#DejaVuSans-5f"/>
     <use x="333.251953" xlink:href="#DejaVuSans-74"/>
     <use x="372.460938" xlink:href="#DejaVuSans-6f"/>
     <use x="433.642578" xlink:href="#DejaVuSans-70"/>
     <use x="497.119141" xlink:href="#DejaVuSans-69"/>
     <use x="524.902344" xlink:href="#DejaVuSans-63"/>
    </g>
   </g>
   <g id="text_21">
    <!-- rotten_tomatoes_sentiment -->
    <g style="fill:#ff9033;" transform="translate(984.96 548.948438)scale(0.14 -0.14)">
     <use xlink:href="#DejaVuSans-72"/>
     <use x="41.082031" xlink:href="#DejaVuSans-6f"/>
     <use x="102.263672" xlink:href="#DejaVuSans-74"/>
     <use x="141.472656" xlink:href="#DejaVuSans-74"/>
     <use x="180.681641" xlink:href="#DejaVuSans-65"/>
     <use x="242.205078" xlink:href="#DejaVuSans-6e"/>
     <use x="305.583984" xlink:href="#DejaVuSans-5f"/>
     <use x="355.583984" xlink:href="#DejaVuSans-74"/>
     <use x="394.792969" xlink:href="#DejaVuSans-6f"/>
     <use x="455.974609" xlink:href="#DejaVuSans-6d"/>
     <use x="553.386719" xlink:href="#DejaVuSans-61"/>
     <use x="614.666016" xlink:href="#DejaVuSans-74"/>
     <use x="653.875" xlink:href="#DejaVuSans-6f"/>
     <use x="715.056641" xlink:href="#DejaVuSans-65"/>
     <use x="776.580078" xlink:href="#DejaVuSans-73"/>
     <use x="828.679688" xlink:href="#DejaVuSans-5f"/>
     <use x="878.679688" xlink:href="#DejaVuSans-73"/>
     <use x="930.779297" xlink:href="#DejaVuSans-65"/>
     <use x="992.302734" xlink:href="#DejaVuSans-6e"/>
     <use x="1055.681641" xlink:href="#DejaVuSans-74"/>
     <use x="1094.890625" xlink:href="#DejaVuSans-69"/>
     <use x="1122.673828" xlink:href="#DejaVuSans-6d"/>
     <use x="1220.085938" xlink:href="#DejaVuSans-65"/>
     <use x="1281.609375" xlink:href="#DejaVuSans-6e"/>
     <use x="1344.988281" xlink:href="#DejaVuSans-74"/>
    </g>
   </g>
   <g id="text_22">
    <!-- imdb_sentiment -->
    <defs>
     <path d="M 45.40625 46.390625 
L 45.40625 75.984375 
L 54.390625 75.984375 
L 54.390625 0 
L 45.40625 0 
L 45.40625 8.203125 
Q 42.578125 3.328125 38.25 0.953125 
Q 33.9375 -1.421875 27.875 -1.421875 
Q 17.96875 -1.421875 11.734375 6.484375 
Q 5.515625 14.40625 5.515625 27.296875 
Q 5.515625 40.1875 11.734375 48.09375 
Q 17.96875 56 27.875 56 
Q 33.9375 56 38.25 53.625 
Q 42.578125 51.265625 45.40625 46.390625 
z
M 14.796875 27.296875 
Q 14.796875 17.390625 18.875 11.75 
Q 22.953125 6.109375 30.078125 6.109375 
Q 37.203125 6.109375 41.296875 11.75 
Q 45.40625 17.390625 45.40625 27.296875 
Q 45.40625 37.203125 41.296875 42.84375 
Q 37.203125 48.484375 30.078125 48.484375 
Q 22.953125 48.484375 18.875 42.84375 
Q 14.796875 37.203125 14.796875 27.296875 
z
" id="DejaVuSans-64"/>
    </defs>
    <g style="fill:#bfbf00;" transform="translate(984.96 570.248438)scale(0.14 -0.14)">
     <use xlink:href="#DejaVuSans-69"/>
     <use x="27.783203" xlink:href="#DejaVuSans-6d"/>
     <use x="125.195312" xlink:href="#DejaVuSans-64"/>
     <use x="188.671875" xlink:href="#DejaVuSans-62"/>
     <use x="252.148438" xlink:href="#DejaVuSans-5f"/>
     <use x="302.148438" xlink:href="#DejaVuSans-73"/>
     <use x="354.248047" xlink:href="#DejaVuSans-65"/>
     <use x="415.771484" xlink:href="#DejaVuSans-6e"/>
     <use x="479.150391" xlink:href="#DejaVuSans-74"/>
     <use x="518.359375" xlink:href="#DejaVuSans-69"/>
     <use x="546.142578" xlink:href="#DejaVuSans-6d"/>
     <use x="643.554688" xlink:href="#DejaVuSans-65"/>
     <use x="705.078125" xlink:href="#DejaVuSans-6e"/>
     <use x="768.457031" xlink:href="#DejaVuSans-74"/>
    </g>
   </g>
   <g id="text_23">
    <!-- 20_newsgroups_topic -->
    <g style="fill:#00bfbf;" transform="translate(984.96 591.548438)scale(0.14 -0.14)">
     <use xlink:href="#DejaVuSans-32"/>
     <use x="63.623047" xlink:href="#DejaVuSans-30"/>
     <use x="127.246094" xlink:href="#DejaVuSans-5f"/>
     <use x="177.246094" xlink:href="#DejaVuSans-6e"/>
     <use x="240.625" xlink:href="#DejaVuSans-65"/>
     <use x="302.148438" xlink:href="#DejaVuSans-77"/>
     <use x="383.935547" xlink:href="#DejaVuSans-73"/>
     <use x="436.035156" xlink:href="#DejaVuSans-67"/>
     <use x="499.511719" xlink:href="#DejaVuSans-72"/>
     <use x="540.59375" xlink:href="#DejaVuSans-6f"/>
     <use x="601.775391" xlink:href="#DejaVuSans-75"/>
     <use x="665.154297" xlink:href="#DejaVuSans-70"/>
     <use x="728.630859" xlink:href="#DejaVuSans-73"/>
     <use x="780.730469" xlink:href="#DejaVuSans-5f"/>
     <use x="830.730469" xlink:href="#DejaVuSans-74"/>
     <use x="869.939453" xlink:href="#DejaVuSans-6f"/>
     <use x="931.121094" xlink:href="#DejaVuSans-70"/>
     <use x="994.597656" xlink:href="#DejaVuSans-69"/>
     <use x="1022.380859" xlink:href="#DejaVuSans-63"/>
    </g>
   </g>
   <g id="text_24">
    <!-- reuters_topic -->
    <g style="fill:#bf00bf;" transform="translate(984.96 612.848438)scale(0.14 -0.14)">
     <use xlink:href="#DejaVuSans-72"/>
     <use x="41.082031" xlink:href="#DejaVuSans-65"/>
     <use x="102.605469" xlink:href="#DejaVuSans-75"/>
     <use x="165.984375" xlink:href="#DejaVuSans-74"/>
     <use x="205.193359" xlink:href="#DejaVuSans-65"/>
     <use x="266.716797" xlink:href="#DejaVuSans-72"/>
     <use x="307.830078" xlink:href="#DejaVuSans-73"/>
     <use x="359.929688" xlink:href="#DejaVuSans-5f"/>
     <use x="409.929688" xlink:href="#DejaVuSans-74"/>
     <use x="449.138672" xlink:href="#DejaVuSans-6f"/>
     <use x="510.320312" xlink:href="#DejaVuSans-70"/>
     <use x="573.796875" xlink:href="#DejaVuSans-69"/>
     <use x="601.580078" xlink:href="#DejaVuSans-63"/>
    </g>
   </g>
   <g id="text_25">
    <!-- dbpedia_topic -->
    <g style="fill:#fc33ff;" transform="translate(984.96 634.148438)scale(0.14 -0.14)">
     <use xlink:href="#DejaVuSans-64"/>
     <use x="63.476562" xlink:href="#DejaVuSans-62"/>
     <use x="126.953125" xlink:href="#DejaVuSans-70"/>
     <use x="190.429688" xlink:href="#DejaVuSans-65"/>
     <use x="251.953125" xlink:href="#DejaVuSans-64"/>
     <use x="315.429688" xlink:href="#DejaVuSans-69"/>
     <use x="343.212891" xlink:href="#DejaVuSans-61"/>
     <use x="404.492188" xlink:href="#DejaVuSans-5f"/>
     <use x="454.492188" xlink:href="#DejaVuSans-74"/>
     <use x="493.701172" xlink:href="#DejaVuSans-6f"/>
     <use x="554.882812" xlink:href="#DejaVuSans-70"/>
     <use x="618.359375" xlink:href="#DejaVuSans-69"/>
     <use x="646.142578" xlink:href="#DejaVuSans-63"/>
    </g>
   </g>
   <g id="text_26">
    <!-- Datasets -->
    <defs>
     <path d="M 19.671875 64.796875 
L 19.671875 8.109375 
L 31.59375 8.109375 
Q 46.6875 8.109375 53.6875 14.9375 
Q 60.6875 21.78125 60.6875 36.53125 
Q 60.6875 51.171875 53.6875 57.984375 
Q 46.6875 64.796875 31.59375 64.796875 
z
M 9.8125 72.90625 
L 30.078125 72.90625 
Q 51.265625 72.90625 61.171875 64.09375 
Q 71.09375 55.28125 71.09375 36.53125 
Q 71.09375 17.671875 61.125 8.828125 
Q 51.171875 0 30.078125 0 
L 9.8125 0 
z
" id="DejaVuSans-44"/>
    </defs>
    <g transform="translate(1034.09025 454.08)scale(0.168 -0.168)">
     <use xlink:href="#DejaVuSans-44"/>
     <use x="77.001953" xlink:href="#DejaVuSans-61"/>
     <use x="138.28125" xlink:href="#DejaVuSans-74"/>
     <use x="177.490234" xlink:href="#DejaVuSans-61"/>
     <use x="238.769531" xlink:href="#DejaVuSans-73"/>
     <use x="290.869141" xlink:href="#DejaVuSans-65"/>
     <use x="352.392578" xlink:href="#DejaVuSans-74"/>
     <use x="391.601562" xlink:href="#DejaVuSans-73"/>
    </g>
   </g>
  </g>
 </g>
 <defs>
  <clipPath id="p359a21b695">
   <rect height="590.436" width="1071.36" x="172.8" y="92.016"/>
  </clipPath>
  <clipPath id="pa63a880ac7">
   <rect height="191.7" width="345.6" x="898.56" y="460.08"/>
  </clipPath>
 </defs>
</svg>
