<svg width="1051" xmlns:ev="http://www.w3.org/2001/xml-events" height="841" viewBox="0 0 1051 841" xmlns="http://www.w3.org/2000/svg" xmlns:xlink="http://www.w3.org/1999/xlink"><style type="text/css"><![CDATA[
.st5 {fill:#000000;font-family:Times New Roman;font-size:10pt}
.st1 {fill:#000000;font-family:Times New Roman;font-size:11pt}
.st4 {fill:#000000;font-family:Times New Roman;font-size:12pt}
.st3 {fill:#000000;font-family:Times New Roman;font-size:13pt}
.st7 {fill:#000000;font-family:Times New Roman;font-size:14pt}
.st2 {fill:#000000;font-family:Times New Roman;font-size:15pt}
.st8 {fill:#000000;font-family:Times New Roman;font-size:24pt}
.st6 {fill:#ffff00;font-family:Times New Roman;font-size:14pt}
]]></style><defs/><g id="page1" transform="translate(5,5)"><rect fill="#ffffff" stroke="#808080" width="1041" height="831" x="0" y="0"/><path id="shape1" fill="#9071b1" stroke="#000000" stroke-width="1.66667" d="M0,0L311,0L311,524L0,524L0,0z" transform="translate(41,123.65)"/><path id="shape2" fill="#ffff95" stroke="#000000" d="M0,0L283,0L283,378L0,378L0,0z" transform="translate(55,212.65)"/><path id="shape3" fill="#00b0f0" stroke="#000000" fill-opacity="0.5" d="M0,0L255,0L255,326L0,326L0,0z" transform="translate(69,251.15)"/><g id="shape4" transform="translate(83,299.27)"><path fill="#f8d7cd" stroke="#000000" d="M0,0L222,0L222,47L0,47L0,0z"/><text class="st1"><tspan x="47" y="27.5">TFBertOutput(Layer)</tspan></text></g><path id="shape5" fill="#f8d7cd" stroke="#000000" d="M0,0L227,0L227,147.5L0,147.5L0,0z" transform="translate(83,420.65)"/><g id="shape6" transform="translate(85,361.4)"><path fill="#f8d7cd" stroke="#000000" d="M0,0L225,0L225,43L0,43L0,0z"/><text class="st1"><tspan x="32" y="25.5">TFBertIntermediate(Layer)</tspan></text></g><g id="shape7" transform="translate(110.25,425.65)"><text class="st1"><tspan x="15" y="16">TFBertAttention(Layer)</tspan></text></g><g id="shape8" transform="translate(430.66,55.5)"><path fill="#afafaf" stroke="#303030" stroke-width="2" d="M0,0L205.5,0L205.5,33L0,33L0,0z"/><text class="st2"><tspan x="21.3" y="22">TFPreTrainedModel</tspan></text></g><g id="shape9" transform="translate(55,165.65)"><path fill="#92d050" stroke="#000000" d="M0,0L283,0L283,33L0,33L0,0z"/><text class="st3"><tspan x="69" y="21.5">TFBertPooler(Layer)</tspan></text></g><g id="shape10" transform="translate(108.5,261.15)"><text class="st4"><tspan x="24" y="19.5">TFBertLayer(Layer)</tspan></text></g><g id="shape11" transform="translate(93,511.15)"><path fill="#ff7c7c" stroke="#000000" d="M0,0L205.5,0L205.5,47L0,47L0,0z"/><text class="st5"><tspan x="29.3" y="27.5">TFBertSelfAttention(Layer)</tspan></text></g><g id="shape12" transform="translate(93,455.15)"><path fill="#ff7c7c" stroke="#000000" d="M0,0L205.5,0L205.5,47L0,47L0,0z"/><text class="st5"><tspan x="35.3" y="27.5"> TFBertSelfOutput(Layer)</tspan></text></g><g id="shape13" transform="translate(100.25,132.65)"><text class="st6"><tspan x="9.4" y="17">TFBertMainLayer(Layer)</tspan></text></g><g id="shape14" transform="translate(111,217.65)"><text class="st3"><tspan x="8" y="19.3">TFBertEncoder(Layer)</tspan></text></g><g id="shape15" transform="translate(55,600.15)"><path fill="#59baf2" stroke="#000000" d="M0,0L283,0L283,33.5L0,33.5L0,0z"/><text class="st3"><tspan x="51" y="21.8">TFBertEmbeddings(Layer)</tspan></text></g><g id="shape16" transform="translate(430.66,112.5)"><path fill="#ffffff" stroke="#000000" stroke-width="2" d="M0,0L205.5,0L205.5,33L0,33L0,0z"/><text class="st2"><tspan x="4.3" y="22">TFBertPreTrainedModel</tspan></text></g><g id="shape17" transform="translate(533.41,112.5)"><path stroke="#00b0f0" fill="none" d="M0,0L0,-18"/><path stroke-linecap="round" fill="none" stroke="#00b0f0" stroke-linejoin="round" stroke-width="1" d="M0,-24L-3,-18L3,-18L0,-24"/></g><path id="shape18" fill="#ffffff" stroke="#000000" stroke-width="2" d="M0,0L205.5,0L205.5,75L0,75L0,0z" transform="translate(718.64,174.25)"/><g id="shape19" transform="translate(723.2,211.25)"><path fill="#9071b1" stroke="#000000" d="M0,0L196.4,0L196.4,28.5L0,28.5L0,0z"/><text class="st6"><tspan x="5.2" y="19.3">TFBertMainLayer(Layer)</tspan></text></g><g id="shape20" transform="translate(719.02,183.25)"><text class="st2"><tspan x="48.4" y="13">TFBertModel</tspan></text></g><path id="shape21" fill="#ffffff" stroke="#000000" stroke-width="2" d="M0,0L283,0L283,117L0,117L0,0z" transform="translate(55,673.15)"/><g id="shape22" transform="translate(77.91,711.65)"><path fill="#ffffff" stroke="#000000" d="M0,0L246.2,0L246.2,28L0,28L0,0z"/><text class="st7"><tspan x="32.1" y="19">TFBertNSPHead(Layer)</tspan></text></g><g id="shape23" transform="translate(78.09,750.65)"><path fill="#9071b1" stroke="#000000" d="M0,0L246,0L246,28.5L0,28.5L0,0z"/><text class="st6"><tspan x="30" y="19.3">TFBertMainLayer(Layer)</tspan></text></g><g id="shape24" transform="translate(55,685.65)"><text class="st2"><tspan x="6" y="13">TFBertForNextSentencePrediction</tspan></text></g><path id="shape25" fill="#ffffff" stroke="#000000" stroke-width="2" d="M0,0L284.6,0L284.6,150L0,150L0,0z" transform="translate(717.39,295.15)"/><g id="shape26" transform="translate(726.58,333.15)"><path fill="#ffffff" stroke="#000000" d="M0,0L256.4,0L256.4,28L0,28L0,0z"/><text class="st7"><tspan x="105.2" y="19">Dense</tspan></text></g><g id="shape27" transform="translate(726.58,407.65)"><path fill="#9071b1" stroke="#000000" d="M0,0L256.2,0L256.2,28.5L0,28.5L0,0z"/><text class="st6"><tspan x="35.1" y="19.3">TFBertMainLayer(Layer)</tspan></text></g><g id="shape28" transform="translate(717.39,307.65)"><text class="st2"><tspan x="6.3" y="13">TFBertForSequenceClassification</tspan></text></g><g id="shape29" transform="translate(727.83,371.65)"><path fill="#ffffff" stroke="#000000" d="M0,0L256.4,0L256.4,28L0,28L0,0z"/><text class="st7"><tspan x="97.2" y="19">Dropout</tspan></text></g><path id="shape30" fill="#ffffff" stroke="#000000" stroke-width="2" d="M0,0L278.4,0L278.4,150L0,150L0,0z" transform="translate(718.64,488.15)"/><g id="shape31" transform="translate(727.83,526.15)"><path fill="#ffffff" stroke="#000000" d="M0,0L256.4,0L256.4,28L0,28L0,0z"/><text class="st7"><tspan x="105.2" y="19">Dense</tspan></text></g><g id="shape32" transform="translate(727.83,600.65)"><path fill="#9071b1" stroke="#000000" d="M0,0L256.2,0L256.2,28.5L0,28.5L0,0z"/><text class="st6"><tspan x="35.1" y="19.3">TFBertMainLayer(Layer)</tspan></text></g><g id="shape33" transform="translate(718.64,500.65)"><text class="st2"><tspan x="20.3" y="13">TFBertForTokenClassification</tspan></text></g><g id="shape34" transform="translate(729.08,564.65)"><path fill="#ffffff" stroke="#000000" d="M0,0L256.4,0L256.4,28L0,28L0,0z"/><text class="st7"><tspan x="97.2" y="19">Dropout</tspan></text></g><path id="shape35" fill="#ffffff" stroke="#000000" stroke-width="2" d="M0,0L278.4,0L278.4,112L0,112L0,0z" transform="translate(720.24,678.15)"/><g id="shape36" transform="translate(729.8,716.65)"><path fill="#ffffff" stroke="#000000" d="M0,0L256.4,0L256.4,28L0,28L0,0z"/><text class="st7"><tspan x="105.2" y="19">Dense</tspan></text></g><g id="shape37" transform="translate(729.42,752.65)"><path fill="#9071b1" stroke="#000000" d="M0,0L256.2,0L256.2,28.5L0,28.5L0,0z"/><text class="st6"><tspan x="35.1" y="19.3">TFBertMainLayer(Layer)</tspan></text></g><g id="shape38" transform="translate(715.99,691.15)"><text class="st2"><tspan x="21.3" y="13">TFBertForQuestionAnswering</tspan></text></g><path id="shape39" fill="#ffffff" stroke="#000000" stroke-width="2" d="M0,0L272.7,0L272.7,270.4L0,270.4L0,0z" transform="translate(397.08,521.65)"/><path id="shape40" fill="#f09164" stroke="#000000" d="M0,0L253.5,0L253.5,171.2L0,171.2L0,0z" transform="translate(406.26,565.3)"/><path id="shape41" fill="#ffffff" stroke="#000000" d="M0,0L235.5,0L235.5,119.2L0,119.2L0,0z" transform="translate(415.26,607.3)"/><g id="shape42" transform="translate(423.74,688.5)"><path fill="#59baf2" stroke="#000000" d="M0,0L218,0L218,28.5L0,28.5L0,0z"/><text class="st5"><tspan x="39" y="18.3">TFBertEmbeddings(Layer)</tspan></text></g><g id="shape43" transform="translate(423.74,617.3)"><text class="st1"><tspan x="8" y="16">TFBertLMPredictionHead(Layer)</tspan></text></g><g id="shape44" transform="translate(421.63,570.3)"><text class="st6"><tspan x="16.1" y="19">TFBertMLMHead(Layer)</tspan></text></g><g id="shape45" transform="translate(406.45,747)"><path fill="#9071b1" stroke="#000000" d="M0,0L253.3,0L253.3,28.5L0,28.5L0,0z"/><text class="st6"><tspan x="33.1" y="19.3">TFBertMainLayer(Layer)</tspan></text></g><g id="shape46" transform="translate(427.46,530.65)"><text class="st2"><tspan x="17.3" y="17.5">TFBertForMaskedLM</tspan></text></g><g id="shape47" transform="translate(423.74,648.4)"><path fill="#ffffff" stroke="#000000" d="M0,0L220.4,0L220.4,33L0,33L0,0z"/><text class="st5"><tspan x="4.2" y="20.5">TFBertPredictionHeadTransform(Layer)</tspan></text></g><g id="shape48" transform="translate(196.5,673.15)"><path stroke="#00b0f0" fill="none" d="M0,0L0,-14.1L170.5,-14.1L170.5,-460.5L336.9,-460.5L336.9,-521.6"/><path stroke-linecap="round" fill="none" stroke="#00b0f0" stroke-linejoin="round" stroke-width="1" d="M336.9,-527.6L333.9,-521.6L339.9,-521.6L336.9,-527.6"/></g><g id="shape49" transform="translate(533.41,521.65)"><path stroke="#00b0f0" fill="none" d="M0,0L0,-14.6L-166.4,-14.6L-166.4,-360.1L0,-360.1L0,-370.2"/><path stroke-linecap="round" fill="none" stroke="#00b0f0" stroke-linejoin="round" stroke-width="1" d="M0,-376.2L-3,-370.2L3,-370.2L0,-376.2"/></g><g id="shape50" transform="translate(671.5,112.5)"><path fill="#ffffff" stroke="#000000" stroke-width="2" d="M0,0L106.5,0L106.5,33L0,33L0,0z"/><text class="st2"><tspan x="10.3" y="22">BertConfig</tspan></text></g><g id="shape51" transform="translate(636.16,129.35)"><path stroke="#00b0f0" fill="none" d="M9.4,0L30.9,0"/><path stroke-linecap="round" fill="#00b0f0" stroke="#00b0f0" stroke-width="1" d="M0,0L4.7,2.7L9.4,0L4.7,-2.7L0,0"/><path stroke-linecap="round" fill="#00b0f0" stroke="#00b0f0" stroke-width="1" d="M35.3,0L30.1,-3C30.7,-2.1,30.9,-1.1,30.9,0C30.9,1.1,30.7,2.1,30.1,3L35.3,0"/></g><g id="shape52" transform="translate(821.39,174.25)"><path stroke="#00b0f0" fill="none" d="M0,0L0,-12.8L-288,-12.8L-288,-22.8"/><path stroke-linecap="round" fill="none" stroke="#00b0f0" stroke-linejoin="round" stroke-width="1" d="M-288,-28.8L-291,-22.8L-285,-22.8L-288,-28.8"/></g><g id="shape53" transform="translate(859.7,295.15)"><path stroke="#00b0f0" fill="none" d="M0,0L0,-13.9L-156.7,-13.9L-156.7,-133.6L-326.3,-133.6L-326.3,-143.6"/><path stroke-linecap="round" fill="none" stroke="#00b0f0" stroke-linejoin="round" stroke-width="1" d="M-326.3,-149.6L-329.3,-143.6L-323.3,-143.6L-326.3,-149.6"/></g><g id="shape54" transform="translate(857.83,488.15)"><path stroke="#00b0f0" fill="none" d="M0,0L0,-27L-154.8,-27L-154.8,-326.6L-324.4,-326.6L-324.4,-336.6"/><path stroke-linecap="round" fill="none" stroke="#00b0f0" stroke-linejoin="round" stroke-width="1" d="M-324.4,-342.6L-327.4,-336.6L-321.4,-336.6L-324.4,-342.6"/></g><g id="shape55" transform="translate(647.5,55.5)"><path fill="#afafaf" stroke="#000000" stroke-width="2" d="M0,0L154.5,0L154.5,33L0,33L0,0z"/><text class="st2"><tspan x="10.3" y="22">PretrainedConfig</tspan></text></g><g id="shape56" transform="translate(724.75,112.5)"><path stroke="#00b0f0" fill="none" d="M0,0L0,-18"/><path stroke-linecap="round" fill="none" stroke="#00b0f0" stroke-linejoin="round" stroke-width="1" d="M0,-24L-3,-18L3,-18L0,-24"/></g><path id="shape57" fill="#ffffff" stroke="#000000" stroke-width="2" d="M0,0L279,0L279,321.5L0,321.5L0,0z" transform="translate(395,171.5)"/><path id="shape58" fill="#f09164" stroke="#000000" d="M0,0L253.5,0L253.5,171.2L0,171.2L0,0z" transform="translate(406.83,261.5)"/><path id="shape59" fill="#ffffff" stroke="#000000" d="M0,0L235.5,0L235.5,119.2L0,119.2L0,0z" transform="translate(415.83,303.5)"/><g id="shape60" transform="translate(424.31,384.7)"><path fill="#59baf2" stroke="#000000" d="M0,0L218,0L218,28.5L0,28.5L0,0z"/><text class="st5"><tspan x="39" y="18.3">TFBertEmbeddings(Layer)</tspan></text></g><g id="shape61" transform="translate(424.31,313.5)"><text class="st1"><tspan x="8" y="16">TFBertLMPredictionHead(Layer)</tspan></text></g><g id="shape62" transform="translate(422.2,266.5)"><text class="st6"><tspan x="16.1" y="19">TFBertMLMHead(Layer)</tspan></text></g><g id="shape63" transform="translate(407.33,219.5)"><path fill="#00b050" stroke="#000000" d="M0,0L253.3,0L253.3,28L0,28L0,0z"/><text class="st6"><tspan x="36.1" y="19">TFBertNSPHead(Layer)</tspan></text></g><g id="shape64" transform="translate(407.02,449.5)"><path fill="#9071b1" stroke="#000000" d="M0,0L253.3,0L253.3,29.3L0,29.3L0,0z"/><text class="st6"><tspan x="33.1" y="19.6">TFBertMainLayer(Layer)</tspan></text></g><g id="shape65" transform="translate(429.19,177.85)"><text class="st2"><tspan x="16.3" y="22">TFBertForPreTraining</tspan></text></g><g id="shape66" transform="translate(424.31,344.6)"><path fill="#ffffff" stroke="#000000" d="M0,0L220.4,0L220.4,33L0,33L0,0z"/><text class="st5"><tspan x="4.2" y="20.5">TFBertPredictionHeadTransform(Layer)</tspan></text></g><g id="shape67" transform="translate(533.67,449.5)"><path stroke="#000000" fill="none" d="M0,0L0,-8.8L-0,-12.4"/><path stroke-linecap="round" fill="#000000" stroke="#000000" stroke-width="1" d="M-0.1,-16.8L-3,-11.6C-2.2,-12.1,-1.1,-12.4,-0,-12.4C1.1,-12.4,2.1,-12.1,3,-11.6L-0.1,-16.8"/></g><g id="shape68" transform="translate(533.67,449.5)"><path stroke="#000000" fill="none" d="M0,0L0,-9.5L135.8,-9.5L135.8,-193L.3,-193L.3,-197.6"/><path stroke-linecap="round" fill="#000000" stroke="#000000" stroke-width="1" d="M.3,-202L-2.7,-196.8C-1.8,-197.3,-0.8,-197.6,.3,-197.6C1.4,-197.6,2.4,-197.3,3.3,-196.8L.3,-202"/></g><g id="shape69" transform="translate(534.5,171.5)"><path stroke="#00b0f0" fill="none" d="M0,0L0,-10L-1.1,-10L-1.1,-20"/><path stroke-linecap="round" fill="none" stroke="#00b0f0" stroke-linejoin="round" stroke-width="1" d="M-1.1,-26L-4.1,-20L1.9,-20L-1.1,-26"/></g><g id="shape70" transform="translate(859.42,678.15)"><path stroke="#00b0f0" fill="none" d="M0,0L0,-24L-156.4,-24L-156.4,-516.6L-326,-516.6L-326,-526.6"/><path stroke-linecap="round" fill="none" stroke="#00b0f0" stroke-linejoin="round" stroke-width="1" d="M-326,-532.6L-329,-526.6L-323,-526.6L-326,-532.6"/></g><g id="shape71" transform="translate(815.76,55.5)"><path fill="#afafaf" stroke="#000000" stroke-width="2" d="M0,0L181.3,0L181.3,33L0,33L0,0z"/><text class="st2"><tspan x="8.1" y="22">PreTrainedTokenizer</tspan></text></g><g id="shape72" transform="translate(842.5,112.5)"><path fill="#ffffff" stroke="#000000" stroke-width="2" d="M0,0L129.5,0L129.5,33L0,33L0,0z"/><text class="st2"><tspan x="9.3" y="22">BertTokenizer</tspan></text></g><g id="shape73" transform="translate(907.25,112.5)"><path stroke="#00b0f0" fill="none" d="M0,0L0,-8L-0.5,-18"/><path stroke-linecap="round" fill="none" stroke="#00b0f0" stroke-linejoin="round" stroke-width="1" d="M-0.9,-24L-3.5,-17.8L2.5,-18.2L-0.9,-24"/></g><g id="shape74" transform="translate(60.63,55.5)"><text class="st8"><tspan x="16" y="15">HuggingFace BERT </tspan><tspan x="37" y="52">Design Structure</tspan></text></g></g></svg>