<?xml version="1.0" encoding="iso-8859-1"?>
<!-- Generator: Adobe Illustrator 19.0.0, SVG Export Plug-In . SVG Version: 6.00 Build 0)  -->
<svg version="1.1" id="Capa_1" xmlns="http://www.w3.org/2000/svg" xmlns:xlink="http://www.w3.org/1999/xlink" x="0px" y="0px"
	 viewBox="0 0 512 512" style="enable-background:new 0 0 512 512;" xml:space="preserve">
<path style="fill:#7FDC48;" d="M256,512c-90.45,0-175.485-35.223-239.444-99.181c-4.938-4.937-5.905-12.593-2.352-18.604
	l29.945-50.648c2.406-4.07,6.56-6.8,11.252-7.392c4.692-0.592,9.392,1.017,12.736,4.361c49.443,49.447,116.16,76.679,187.862,76.679
	s138.42-27.232,187.862-76.679c3.343-3.344,8.05-4.951,12.736-4.361c4.692,0.594,8.845,3.322,11.252,7.392l29.945,50.648
	c3.553,6.011,2.587,13.666-2.352,18.604C431.485,476.777,346.45,512,256,512z"/>
<path style="fill:#FF5957;" d="M256,447.811c-38.683,0-76.308-7.194-111.834-21.381c-36.907-14.739-69.766-36.359-97.663-64.26
	c-4.937-4.937-5.905-12.592-2.351-18.603L242.832,7.514C245.584,2.857,250.59,0,256,0c5.41,0,10.416,2.857,13.169,7.513
	l198.68,336.054c3.553,6.011,2.587,13.665-2.351,18.603c-27.899,27.901-60.758,49.521-97.663,64.26
	C332.308,440.618,294.683,447.811,256,447.811z"/>
<path style="fill:#46A655;" d="M495.444,412.819c4.938-4.937,5.905-12.593,2.352-18.604l-29.945-50.648
	c-2.406-4.07-6.56-6.8-11.252-7.392c-4.686-0.591-9.392,1.017-12.736,4.361C394.42,389.982,327.702,417.214,256,417.214V512
	C346.45,512,431.485,476.777,495.444,412.819z"/>
<path style="fill:#FC1B5B;" d="M367.834,426.431c36.907-14.739,69.766-36.359,97.664-64.26c4.937-4.937,5.905-12.592,2.351-18.603
	L269.168,7.514C266.416,2.857,261.41,0,256,0v447.811C294.683,447.811,332.308,440.618,367.834,426.431z"/>
<g>
	<path style="fill:#2D69AD;" d="M256.001,291.034c-8.449,0-15.299-6.85-15.299-15.299v-15.511c0-8.449,6.85-15.299,15.299-15.299
		c8.449,0,15.299,6.85,15.299,15.299v15.511C271.3,284.184,264.45,291.034,256.001,291.034z"/>
	<path style="fill:#2D69AD;" d="M184.608,332.474c-8.449,0-15.299-6.85-15.299-15.299v-15.511c0-8.449,6.85-15.299,15.299-15.299
		s15.299,6.85,15.299,15.299v15.511C199.906,325.624,193.057,332.474,184.608,332.474z"/>
</g>
<path style="fill:#1B3359;" d="M327.394,332.474c-8.449,0-15.299-6.85-15.299-15.299v-15.511c0-8.449,6.85-15.299,15.299-15.299
	c8.449,0,15.299,6.85,15.299,15.299v15.511C342.693,325.624,335.843,332.474,327.394,332.474z"/>
<path style="fill:#2D69AD;" d="M218.363,228.875c-8.449,0-15.299-6.85-15.299-15.299v-15.511c0-8.449,6.85-15.299,15.299-15.299
	c8.449,0,15.299,6.85,15.299,15.299v15.511C233.662,222.025,226.812,228.875,218.363,228.875z"/>
<path style="fill:#1B3359;" d="M293.639,228.875c-8.449,0-15.299-6.85-15.299-15.299v-15.511c0-8.449,6.85-15.299,15.299-15.299
	c8.449,0,15.299,6.85,15.299,15.299v15.511C308.938,222.025,302.088,228.875,293.639,228.875z"/>
<path style="fill:#2D69AD;" d="M256.001,375.482c-8.449,0-15.299-6.85-15.299-15.299v-15.511c0-8.449,6.85-15.299,15.299-15.299
	c8.449,0,15.299,6.85,15.299,15.299v15.511C271.3,368.632,264.45,375.482,256.001,375.482z"/>
<g>
	<path style="fill:#1B3359;" d="M256.001,329.373L256.001,329.373L256,375.482h0.001c8.449,0,15.299-6.85,15.299-15.299v-15.511
		C271.3,336.223,264.45,329.373,256.001,329.373z"/>
	<path style="fill:#1B3359;" d="M256.001,244.926L256.001,244.926L256,291.034h0.001c8.449,0,15.299-6.85,15.299-15.299v-15.511
		C271.3,251.775,264.45,244.926,256.001,244.926z"/>
</g>
<g>
</g>
<g>
</g>
<g>
</g>
<g>
</g>
<g>
</g>
<g>
</g>
<g>
</g>
<g>
</g>
<g>
</g>
<g>
</g>
<g>
</g>
<g>
</g>
<g>
</g>
<g>
</g>
<g>
</g>
</svg>
