<?xml version="1.0" encoding="utf-8" standalone="no"?>
<!DOCTYPE svg PUBLIC "-//W3C//DTD SVG 1.1//EN"
  "http://www.w3.org/Graphics/SVG/1.1/DTD/svg11.dtd">
<!-- Created with matplotlib (http://matplotlib.org/) -->
<svg height="184.15625pt" version="1.1" viewBox="0 0 267.707812 184.15625" width="267.707812pt" xmlns="http://www.w3.org/2000/svg" xmlns:xlink="http://www.w3.org/1999/xlink">
 <defs>
  <style type="text/css">
*{stroke-linecap:butt;stroke-linejoin:round;}
  </style>
 </defs>
 <g id="figure_1">
  <g id="patch_1">
   <path d="M 0 184.15625 
L 267.707812 184.15625 
L 267.707812 -0 
L 0 -0 
z
" style="fill:none;"/>
  </g>
  <g id="axes_1">
   <g id="patch_2">
    <path d="M 61.707813 146.6 
L 257.007812 146.6 
L 257.007812 10.7 
L 61.707813 10.7 
z
" style="fill:#ffffff;"/>
   </g>
   <g id="matplotlib.axis_1">
    <g id="xtick_1">
     <g id="line2d_1">
      <defs>
       <path d="M 0 0 
L 0 3.5 
" id="m4990c508fc" style="stroke:#000000;stroke-width:0.8;"/>
      </defs>
      <g>
       <use style="stroke:#000000;stroke-width:0.8;" x="107.48125" xlink:href="#m4990c508fc" y="146.6"/>
      </g>
     </g>
     <g id="text_1">
      <!-- −4 -->
      <defs>
       <path d="M 10.59375 35.5 
L 73.1875 35.5 
L 73.1875 27.203125 
L 10.59375 27.203125 
z
" id="DejaVuSans-2212"/>
       <path d="M 37.796875 64.3125 
L 12.890625 25.390625 
L 37.796875 25.390625 
z
M 35.203125 72.90625 
L 47.609375 72.90625 
L 47.609375 25.390625 
L 58.015625 25.390625 
L 58.015625 17.1875 
L 47.609375 17.1875 
L 47.609375 0 
L 37.796875 0 
L 37.796875 17.1875 
L 4.890625 17.1875 
L 4.890625 26.703125 
z
" id="DejaVuSans-34"/>
      </defs>
      <g transform="translate(100.110156 161.198437)scale(0.1 -0.1)">
       <use xlink:href="#DejaVuSans-2212"/>
       <use x="83.789062" xlink:href="#DejaVuSans-34"/>
      </g>
     </g>
    </g>
    <g id="xtick_2">
     <g id="line2d_2">
      <g>
       <use style="stroke:#000000;stroke-width:0.8;" x="168.5125" xlink:href="#m4990c508fc" y="146.6"/>
      </g>
     </g>
     <g id="text_2">
      <!-- −2 -->
      <defs>
       <path d="M 19.1875 8.296875 
L 53.609375 8.296875 
L 53.609375 0 
L 7.328125 0 
L 7.328125 8.296875 
Q 12.9375 14.109375 22.625 23.890625 
Q 32.328125 33.6875 34.8125 36.53125 
Q 39.546875 41.84375 41.421875 45.53125 
Q 43.3125 49.21875 43.3125 52.78125 
Q 43.3125 58.59375 39.234375 62.25 
Q 35.15625 65.921875 28.609375 65.921875 
Q 23.96875 65.921875 18.8125 64.3125 
Q 13.671875 62.703125 7.8125 59.421875 
L 7.8125 69.390625 
Q 13.765625 71.78125 18.9375 73 
Q 24.125 74.21875 28.421875 74.21875 
Q 39.75 74.21875 46.484375 68.546875 
Q 53.21875 62.890625 53.21875 53.421875 
Q 53.21875 48.921875 51.53125 44.890625 
Q 49.859375 40.875 45.40625 35.40625 
Q 44.1875 33.984375 37.640625 27.21875 
Q 31.109375 20.453125 19.1875 8.296875 
z
" id="DejaVuSans-32"/>
      </defs>
      <g transform="translate(161.141406 161.198437)scale(0.1 -0.1)">
       <use xlink:href="#DejaVuSans-2212"/>
       <use x="83.789062" xlink:href="#DejaVuSans-32"/>
      </g>
     </g>
    </g>
    <g id="xtick_3">
     <g id="line2d_3">
      <g>
       <use style="stroke:#000000;stroke-width:0.8;" x="229.54375" xlink:href="#m4990c508fc" y="146.6"/>
      </g>
     </g>
     <g id="text_3">
      <!-- 0 -->
      <defs>
       <path d="M 31.78125 66.40625 
Q 24.171875 66.40625 20.328125 58.90625 
Q 16.5 51.421875 16.5 36.375 
Q 16.5 21.390625 20.328125 13.890625 
Q 24.171875 6.390625 31.78125 6.390625 
Q 39.453125 6.390625 43.28125 13.890625 
Q 47.125 21.390625 47.125 36.375 
Q 47.125 51.421875 43.28125 58.90625 
Q 39.453125 66.40625 31.78125 66.40625 
z
M 31.78125 74.21875 
Q 44.046875 74.21875 50.515625 64.515625 
Q 56.984375 54.828125 56.984375 36.375 
Q 56.984375 17.96875 50.515625 8.265625 
Q 44.046875 -1.421875 31.78125 -1.421875 
Q 19.53125 -1.421875 13.0625 8.265625 
Q 6.59375 17.96875 6.59375 36.375 
Q 6.59375 54.828125 13.0625 64.515625 
Q 19.53125 74.21875 31.78125 74.21875 
z
" id="DejaVuSans-30"/>
      </defs>
      <g transform="translate(226.3625 161.198437)scale(0.1 -0.1)">
       <use xlink:href="#DejaVuSans-30"/>
      </g>
     </g>
    </g>
    <g id="text_4">
     <!-- x1 -->
     <defs>
      <path d="M 54.890625 54.6875 
L 35.109375 28.078125 
L 55.90625 0 
L 45.3125 0 
L 29.390625 21.484375 
L 13.484375 0 
L 2.875 0 
L 24.125 28.609375 
L 4.6875 54.6875 
L 15.28125 54.6875 
L 29.78125 35.203125 
L 44.28125 54.6875 
z
" id="DejaVuSans-78"/>
      <path d="M 12.40625 8.296875 
L 28.515625 8.296875 
L 28.515625 63.921875 
L 10.984375 60.40625 
L 10.984375 69.390625 
L 28.421875 72.90625 
L 38.28125 72.90625 
L 38.28125 8.296875 
L 54.390625 8.296875 
L 54.390625 0 
L 12.40625 0 
z
" id="DejaVuSans-31"/>
     </defs>
     <g transform="translate(153.217188 174.876562)scale(0.1 -0.1)">
      <use xlink:href="#DejaVuSans-78"/>
      <use x="59.179688" xlink:href="#DejaVuSans-31"/>
     </g>
    </g>
   </g>
   <g id="matplotlib.axis_2">
    <g id="ytick_1">
     <g id="line2d_4">
      <defs>
       <path d="M 0 0 
L -3.5 0 
" id="m79d12a94b4" style="stroke:#000000;stroke-width:0.8;"/>
      </defs>
      <g>
       <use style="stroke:#000000;stroke-width:0.8;" x="61.707813" xlink:href="#m79d12a94b4" y="138.345204"/>
      </g>
     </g>
     <g id="text_5">
      <!-- −1500 -->
      <defs>
       <path d="M 10.796875 72.90625 
L 49.515625 72.90625 
L 49.515625 64.59375 
L 19.828125 64.59375 
L 19.828125 46.734375 
Q 21.96875 47.46875 24.109375 47.828125 
Q 26.265625 48.1875 28.421875 48.1875 
Q 40.625 48.1875 47.75 41.5 
Q 54.890625 34.8125 54.890625 23.390625 
Q 54.890625 11.625 47.5625 5.09375 
Q 40.234375 -1.421875 26.90625 -1.421875 
Q 22.3125 -1.421875 17.546875 -0.640625 
Q 12.796875 0.140625 7.71875 1.703125 
L 7.71875 11.625 
Q 12.109375 9.234375 16.796875 8.0625 
Q 21.484375 6.890625 26.703125 6.890625 
Q 35.15625 6.890625 40.078125 11.328125 
Q 45.015625 15.765625 45.015625 23.390625 
Q 45.015625 31 40.078125 35.4375 
Q 35.15625 39.890625 26.703125 39.890625 
Q 22.75 39.890625 18.8125 39.015625 
Q 14.890625 38.140625 10.796875 36.28125 
z
" id="DejaVuSans-35"/>
      </defs>
      <g transform="translate(20.878125 142.144422)scale(0.1 -0.1)">
       <use xlink:href="#DejaVuSans-2212"/>
       <use x="83.789062" xlink:href="#DejaVuSans-31"/>
       <use x="147.412109" xlink:href="#DejaVuSans-35"/>
       <use x="211.035156" xlink:href="#DejaVuSans-30"/>
       <use x="274.658203" xlink:href="#DejaVuSans-30"/>
      </g>
     </g>
    </g>
    <g id="ytick_2">
     <g id="line2d_5">
      <g>
       <use style="stroke:#000000;stroke-width:0.8;" x="61.707813" xlink:href="#m79d12a94b4" y="114.674194"/>
      </g>
     </g>
     <g id="text_6">
      <!-- −1000 -->
      <g transform="translate(20.878125 118.473413)scale(0.1 -0.1)">
       <use xlink:href="#DejaVuSans-2212"/>
       <use x="83.789062" xlink:href="#DejaVuSans-31"/>
       <use x="147.412109" xlink:href="#DejaVuSans-30"/>
       <use x="211.035156" xlink:href="#DejaVuSans-30"/>
       <use x="274.658203" xlink:href="#DejaVuSans-30"/>
      </g>
     </g>
    </g>
    <g id="ytick_3">
     <g id="line2d_6">
      <g>
       <use style="stroke:#000000;stroke-width:0.8;" x="61.707813" xlink:href="#m79d12a94b4" y="91.003185"/>
      </g>
     </g>
     <g id="text_7">
      <!-- −500 -->
      <g transform="translate(27.240625 94.802403)scale(0.1 -0.1)">
       <use xlink:href="#DejaVuSans-2212"/>
       <use x="83.789062" xlink:href="#DejaVuSans-35"/>
       <use x="147.412109" xlink:href="#DejaVuSans-30"/>
       <use x="211.035156" xlink:href="#DejaVuSans-30"/>
      </g>
     </g>
    </g>
    <g id="ytick_4">
     <g id="line2d_7">
      <g>
       <use style="stroke:#000000;stroke-width:0.8;" x="61.707813" xlink:href="#m79d12a94b4" y="67.332175"/>
      </g>
     </g>
     <g id="text_8">
      <!-- 0 -->
      <g transform="translate(48.345313 71.131394)scale(0.1 -0.1)">
       <use xlink:href="#DejaVuSans-30"/>
      </g>
     </g>
    </g>
    <g id="ytick_5">
     <g id="line2d_8">
      <g>
       <use style="stroke:#000000;stroke-width:0.8;" x="61.707813" xlink:href="#m79d12a94b4" y="43.661166"/>
      </g>
     </g>
     <g id="text_9">
      <!-- 500 -->
      <g transform="translate(35.620312 47.460384)scale(0.1 -0.1)">
       <use xlink:href="#DejaVuSans-35"/>
       <use x="63.623047" xlink:href="#DejaVuSans-30"/>
       <use x="127.246094" xlink:href="#DejaVuSans-30"/>
      </g>
     </g>
    </g>
    <g id="ytick_6">
     <g id="line2d_9">
      <g>
       <use style="stroke:#000000;stroke-width:0.8;" x="61.707813" xlink:href="#m79d12a94b4" y="19.990156"/>
      </g>
     </g>
     <g id="text_10">
      <!-- 1000 -->
      <g transform="translate(29.257812 23.789375)scale(0.1 -0.1)">
       <use xlink:href="#DejaVuSans-31"/>
       <use x="63.623047" xlink:href="#DejaVuSans-30"/>
       <use x="127.246094" xlink:href="#DejaVuSans-30"/>
       <use x="190.869141" xlink:href="#DejaVuSans-30"/>
      </g>
     </g>
    </g>
    <g id="text_11">
     <!-- x2 -->
     <g transform="translate(14.798438 84.790625)rotate(-90)scale(0.1 -0.1)">
      <use xlink:href="#DejaVuSans-78"/>
      <use x="59.179688" xlink:href="#DejaVuSans-32"/>
     </g>
    </g>
   </g>
   <g id="LineCollection_1">
    <path clip-path="url(#p8a04162343)" d="M 257.007812 97.273895 
L 253.95625 97.273896 
L 250.904688 97.273896 
L 247.853125 97.273896 
L 244.801563 97.273896 
L 241.75 97.273897 
L 238.698438 97.273897 
L 235.646875 97.273897 
L 232.595313 97.273897 
L 229.54375 97.273897 
L 226.492188 97.273897 
L 223.440625 97.273897 
L 220.389063 97.273897 
L 217.3375 97.273897 
L 214.285938 97.273896 
L 211.234375 97.273896 
L 208.182813 97.273896 
L 205.13125 97.273896 
L 202.079688 97.273895 
L 199.028125 97.273895 
L 195.976562 97.273895 
L 192.925 97.273894 
L 189.873438 97.273894 
L 186.821875 97.273893 
L 183.770313 97.273893 
L 180.71875 97.273892 
L 177.667188 97.273891 
L 174.615625 97.273891 
L 171.564063 97.27389 
L 168.5125 97.273889 
L 165.460938 97.273889 
L 162.409375 97.273888 
L 159.357813 97.273887 
L 156.30625 97.273886 
L 153.254688 97.273885 
L 150.203125 97.273884 
L 147.151563 97.273883 
L 144.1 97.273882 
L 141.048438 97.273881 
L 137.996875 97.27388 
L 134.945312 97.273879 
L 131.89375 97.273878 
L 128.842188 97.273877 
L 125.790625 97.273875 
L 122.739063 97.273874 
L 119.6875 97.273873 
L 116.635938 97.273871 
L 113.584375 97.27387 
L 110.532813 97.273868 
L 107.48125 97.273867 
L 104.429688 97.273865 
L 101.378125 97.273864 
L 98.326563 97.273862 
L 95.275 97.273861 
L 92.223438 97.273859 
L 89.171875 97.273857 
L 86.120313 97.273856 
L 83.06875 97.273854 
L 80.017188 97.273852 
L 76.965625 97.27385 
L 73.914062 97.273848 
L 70.8625 97.273846 
L 67.810937 97.273844 
L 64.759375 97.273842 
L 61.707813 97.27384 
" style="fill:none;stroke:#1f77b4;stroke-width:1.5;"/>
    <path clip-path="url(#p8a04162343)" d="M 61.707813 37.39051 
L 64.759375 37.390508 
L 67.810937 37.390506 
L 70.8625 37.390504 
L 73.914062 37.390502 
L 76.965625 37.3905 
L 80.017188 37.390498 
L 83.06875 37.390496 
L 86.120313 37.390495 
L 89.171875 37.390493 
L 92.223438 37.390491 
L 95.275 37.390489 
L 98.326563 37.390488 
L 101.378125 37.390486 
L 104.429688 37.390485 
L 107.48125 37.390483 
L 110.532813 37.390482 
L 113.584375 37.39048 
L 116.635938 37.390479 
L 119.6875 37.390478 
L 122.739063 37.390476 
L 125.790625 37.390475 
L 128.842188 37.390474 
L 131.89375 37.390472 
L 134.945312 37.390471 
L 137.996875 37.39047 
L 141.048438 37.390469 
L 144.1 37.390468 
L 147.151563 37.390467 
L 150.203125 37.390466 
L 153.254688 37.390465 
L 156.30625 37.390464 
L 159.357813 37.390463 
L 162.409375 37.390462 
L 165.460938 37.390462 
L 168.5125 37.390461 
L 171.564063 37.39046 
L 174.615625 37.390459 
L 177.667188 37.390459 
L 180.71875 37.390458 
L 183.770313 37.390457 
L 186.821875 37.390457 
L 189.873438 37.390456 
L 192.925 37.390456 
L 195.976562 37.390456 
L 199.028125 37.390455 
L 202.079688 37.390455 
L 205.13125 37.390454 
L 208.182813 37.390454 
L 211.234375 37.390454 
L 214.285938 37.390454 
L 217.3375 37.390454 
L 220.389063 37.390453 
L 223.440625 37.390453 
L 226.492188 37.390453 
L 229.54375 37.390453 
L 232.595313 37.390453 
L 235.646875 37.390453 
L 238.698438 37.390453 
L 241.75 37.390454 
L 244.801563 37.390454 
L 247.853125 37.390454 
L 250.904688 37.390454 
L 253.95625 37.390454 
L 257.007812 37.390455 
" style="fill:none;stroke:#1f77b4;stroke-width:1.5;"/>
   </g>
   <g id="LineCollection_2">
    <path clip-path="url(#p8a04162343)" d="M 257.007812 109.676163 
L 253.95625 109.676163 
L 250.904688 109.676164 
L 247.853125 109.676164 
L 244.801563 109.676164 
L 241.75 109.676164 
L 238.698438 109.676164 
L 235.646875 109.676164 
L 232.595313 109.676164 
L 229.54375 109.676164 
L 226.492188 109.676164 
L 223.440625 109.676164 
L 220.389063 109.676164 
L 217.3375 109.676164 
L 214.285938 109.676164 
L 211.234375 109.676164 
L 208.182813 109.676164 
L 205.13125 109.676163 
L 202.079688 109.676163 
L 199.028125 109.676163 
L 195.976562 109.676163 
L 192.925 109.676162 
L 189.873438 109.676162 
L 186.821875 109.676162 
L 183.770313 109.676161 
L 180.71875 109.676161 
L 177.667188 109.67616 
L 174.615625 109.67616 
L 171.564063 109.676159 
L 168.5125 109.676159 
L 165.460938 109.676158 
L 162.409375 109.676158 
L 159.357813 109.676157 
L 156.30625 109.676157 
L 153.254688 109.676156 
L 150.203125 109.676155 
L 147.151563 109.676155 
L 144.1 109.676154 
L 141.048438 109.676153 
L 137.996875 109.676152 
L 134.945312 109.676151 
L 131.89375 109.676151 
L 128.842188 109.67615 
L 125.790625 109.676149 
L 122.739063 109.676148 
L 119.6875 109.676147 
L 116.635938 109.676146 
L 113.584375 109.676145 
L 110.532813 109.676144 
L 107.48125 109.676143 
L 104.429688 109.676142 
L 101.378125 109.676141 
L 98.326563 109.67614 
L 95.275 109.676139 
L 92.223438 109.676137 
L 89.171875 109.676136 
L 86.120313 109.676135 
L 83.06875 109.676134 
L 80.017188 109.676132 
L 76.965625 109.676131 
L 73.914062 109.67613 
L 70.8625 109.676128 
L 67.810937 109.676127 
L 64.759375 109.676126 
L 61.707813 109.676124 
" style="fill:none;stroke:#1f77b4;stroke-width:1.5;"/>
    <path clip-path="url(#p8a04162343)" d="M 61.707813 24.988226 
L 64.759375 24.988225 
L 67.810938 24.988223 
L 70.8625 24.988222 
L 73.914062 24.98822 
L 76.965625 24.988219 
L 80.017188 24.988218 
L 83.06875 24.988216 
L 86.120313 24.988215 
L 89.171875 24.988214 
L 92.223438 24.988213 
L 95.275 24.988212 
L 98.326563 24.98821 
L 101.378125 24.988209 
L 104.429688 24.988208 
L 107.48125 24.988207 
L 110.532813 24.988206 
L 113.584375 24.988205 
L 116.635938 24.988204 
L 119.6875 24.988203 
L 122.739063 24.988202 
L 125.790625 24.988201 
L 128.842188 24.9882 
L 131.89375 24.988199 
L 134.945312 24.988199 
L 137.996875 24.988198 
L 141.048438 24.988197 
L 144.1 24.988196 
L 147.151563 24.988196 
L 150.203125 24.988195 
L 153.254688 24.988194 
L 156.30625 24.988194 
L 159.357813 24.988193 
L 162.409375 24.988192 
L 165.460938 24.988192 
L 168.5125 24.988191 
L 171.564063 24.988191 
L 174.615625 24.98819 
L 177.667188 24.98819 
L 180.71875 24.988189 
L 183.770313 24.988189 
L 186.821875 24.988189 
L 189.873438 24.988188 
L 192.925 24.988188 
L 195.976562 24.988188 
L 199.028125 24.988187 
L 202.079688 24.988187 
L 205.13125 24.988187 
L 208.182813 24.988187 
L 211.234375 24.988186 
L 214.285938 24.988186 
L 217.3375 24.988186 
L 220.389063 24.988186 
L 223.440625 24.988186 
L 226.492188 24.988186 
L 229.54375 24.988186 
L 232.595313 24.988186 
L 235.646875 24.988186 
L 238.698438 24.988186 
L 241.75 24.988186 
L 244.801563 24.988186 
L 247.853125 24.988186 
L 250.904688 24.988187 
L 253.95625 24.988187 
L 257.007812 24.988187 
" style="fill:none;stroke:#1f77b4;stroke-width:1.5;"/>
   </g>
   <g id="LineCollection_3">
    <path clip-path="url(#p8a04162343)" d="M 257.007812 119.192758 
L 253.95625 119.192758 
L 250.904688 119.192758 
L 247.853125 119.192758 
L 244.801563 119.192758 
L 241.75 119.192758 
L 238.698438 119.192758 
L 235.646875 119.192759 
L 232.595313 119.192759 
L 229.54375 119.192759 
L 226.492188 119.192759 
L 223.440625 119.192759 
L 220.389063 119.192758 
L 217.3375 119.192758 
L 214.285938 119.192758 
L 211.234375 119.192758 
L 208.182813 119.192758 
L 205.13125 119.192758 
L 202.079688 119.192758 
L 199.028125 119.192758 
L 195.976562 119.192757 
L 192.925 119.192757 
L 189.873438 119.192757 
L 186.821875 119.192756 
L 183.770313 119.192756 
L 180.71875 119.192756 
L 177.667188 119.192755 
L 174.615625 119.192755 
L 171.564063 119.192755 
L 168.5125 119.192754 
L 165.460938 119.192754 
L 162.409375 119.192753 
L 159.357813 119.192753 
L 156.30625 119.192752 
L 153.254688 119.192752 
L 150.203125 119.192751 
L 147.151563 119.192751 
L 144.1 119.19275 
L 141.048438 119.192749 
L 137.996875 119.192749 
L 134.945312 119.192748 
L 131.89375 119.192748 
L 128.842188 119.192747 
L 125.790625 119.192746 
L 122.739063 119.192745 
L 119.6875 119.192745 
L 116.635938 119.192744 
L 113.584375 119.192743 
L 110.532813 119.192742 
L 107.48125 119.192741 
L 104.429688 119.19274 
L 101.378125 119.19274 
L 98.326563 119.192739 
L 95.275 119.192738 
L 92.223438 119.192737 
L 89.171875 119.192736 
L 86.120313 119.192735 
L 83.06875 119.192734 
L 80.017188 119.192733 
L 76.965625 119.192732 
L 73.914062 119.19273 
L 70.8625 119.192729 
L 67.810937 119.192728 
L 64.759375 119.192727 
L 61.707813 119.192726 
" style="fill:none;stroke:#1f77b4;stroke-width:1.5;"/>
    <path clip-path="url(#p8a04162343)" d="M 61.707813 15.471624 
L 64.759375 15.471623 
L 67.810937 15.471622 
L 70.8625 15.471621 
L 73.914062 15.47162 
L 76.965625 15.471619 
L 80.017188 15.471617 
L 83.06875 15.471616 
L 86.120313 15.471615 
L 89.171875 15.471614 
L 92.223438 15.471613 
L 95.275 15.471612 
L 98.326563 15.471612 
L 101.378125 15.471611 
L 104.429688 15.47161 
L 107.48125 15.471609 
L 110.532813 15.471608 
L 113.584375 15.471607 
L 116.635938 15.471606 
L 119.6875 15.471606 
L 122.739063 15.471605 
L 125.790625 15.471604 
L 128.842188 15.471603 
L 131.89375 15.471603 
L 134.945312 15.471602 
L 137.996875 15.471601 
L 141.048438 15.471601 
L 144.1 15.4716 
L 147.151563 15.471599 
L 150.203125 15.471599 
L 153.254688 15.471598 
L 156.30625 15.471598 
L 159.357813 15.471597 
L 162.409375 15.471597 
L 165.460938 15.471596 
L 168.5125 15.471596 
L 171.564063 15.471595 
L 174.615625 15.471595 
L 177.667188 15.471595 
L 180.71875 15.471594 
L 183.770313 15.471594 
L 186.821875 15.471594 
L 189.873438 15.471593 
L 192.925 15.471593 
L 195.976562 15.471593 
L 199.028125 15.471593 
L 202.079688 15.471592 
L 205.13125 15.471592 
L 208.182813 15.471592 
L 211.234375 15.471592 
L 214.285938 15.471592 
L 217.3375 15.471592 
L 220.389063 15.471592 
L 223.440625 15.471592 
L 226.492188 15.471592 
L 229.54375 15.471592 
L 232.595313 15.471592 
L 235.646875 15.471592 
L 238.698438 15.471592 
L 241.75 15.471592 
L 244.801563 15.471592 
L 247.853125 15.471592 
L 250.904688 15.471592 
L 253.95625 15.471592 
L 257.007812 15.471592 
" style="fill:none;stroke:#1f77b4;stroke-width:1.5;"/>
   </g>
   <g id="LineCollection_4">
    <path clip-path="url(#p8a04162343)" d="M 257.007812 127.215618 
L 253.95625 127.215618 
L 250.904688 127.215618 
L 247.853125 127.215618 
L 244.801563 127.215619 
L 241.75 127.215619 
L 238.698438 127.215619 
L 235.646875 127.215619 
L 232.595313 127.215619 
L 229.54375 127.215619 
L 226.492188 127.215619 
L 223.440625 127.215619 
L 220.389063 127.215619 
L 217.3375 127.215619 
L 214.285938 127.215619 
L 211.234375 127.215618 
L 208.182813 127.215618 
L 205.13125 127.215618 
L 202.079688 127.215618 
L 199.028125 127.215618 
L 195.976562 127.215618 
L 192.925 127.215617 
L 189.873438 127.215617 
L 186.821875 127.215617 
L 183.770313 127.215617 
L 180.71875 127.215616 
L 177.667188 127.215616 
L 174.615625 127.215616 
L 171.564063 127.215615 
L 168.5125 127.215615 
L 165.460938 127.215615 
L 162.409375 127.215614 
L 159.357813 127.215614 
L 156.30625 127.215613 
L 153.254688 127.215613 
L 150.203125 127.215612 
L 147.151563 127.215612 
L 144.1 127.215611 
L 141.048438 127.215611 
L 137.996875 127.21561 
L 134.945312 127.21561 
L 131.89375 127.215609 
L 128.842188 127.215609 
L 125.790625 127.215608 
L 122.739063 127.215607 
L 119.6875 127.215607 
L 116.635938 127.215606 
L 113.584375 127.215605 
L 110.532813 127.215605 
L 107.48125 127.215604 
L 104.429688 127.215603 
L 101.378125 127.215602 
L 98.326563 127.215601 
L 95.275 127.215601 
L 92.223438 127.2156 
L 89.171875 127.215599 
L 86.120313 127.215598 
L 83.06875 127.215597 
L 80.017188 127.215596 
L 76.965625 127.215595 
L 73.914062 127.215594 
L 70.8625 127.215593 
L 67.810937 127.215592 
L 64.759375 127.215591 
L 61.707813 127.21559 
" style="fill:none;stroke:#1f77b4;stroke-width:1.5;"/>
   </g>
   <g id="LineCollection_5">
    <path clip-path="url(#p8a04162343)" d="M 257.007812 134.2839 
L 253.95625 134.2839 
L 250.904688 134.2839 
L 247.853125 134.2839 
L 244.801563 134.2839 
L 241.75 134.2839 
L 238.698438 134.2839 
L 235.646875 134.2839 
L 232.595313 134.2839 
L 229.54375 134.2839 
L 226.492188 134.2839 
L 223.440625 134.2839 
L 220.389063 134.2839 
L 217.3375 134.2839 
L 214.285938 134.2839 
L 211.234375 134.2839 
L 208.182813 134.2839 
L 205.13125 134.2839 
L 202.079688 134.2839 
L 199.028125 134.2839 
L 195.976562 134.283899 
L 192.925 134.283899 
L 189.873438 134.283899 
L 186.821875 134.283899 
L 183.770313 134.283899 
L 180.71875 134.283898 
L 177.667188 134.283898 
L 174.615625 134.283898 
L 171.564063 134.283897 
L 168.5125 134.283897 
L 165.460938 134.283897 
L 162.409375 134.283896 
L 159.357813 134.283896 
L 156.30625 134.283896 
L 153.254688 134.283895 
L 150.203125 134.283895 
L 147.151563 134.283894 
L 144.1 134.283894 
L 141.048438 134.283893 
L 137.996875 134.283893 
L 134.945312 134.283892 
L 131.89375 134.283892 
L 128.842188 134.283891 
L 125.790625 134.283891 
L 122.739063 134.28389 
L 119.6875 134.28389 
L 116.635938 134.283889 
L 113.584375 134.283888 
L 110.532813 134.283888 
L 107.48125 134.283887 
L 104.429688 134.283886 
L 101.378125 134.283886 
L 98.326563 134.283885 
L 95.275 134.283884 
L 92.223438 134.283884 
L 89.171875 134.283883 
L 86.120313 134.283882 
L 83.06875 134.283881 
L 80.017188 134.28388 
L 76.965625 134.28388 
L 73.914062 134.283879 
L 70.8625 134.283878 
L 67.810937 134.283877 
L 64.759375 134.283876 
L 61.707813 134.283875 
" style="fill:none;stroke:#1f77b4;stroke-width:1.5;"/>
   </g>
   <g id="LineCollection_6">
    <path clip-path="url(#p8a04162343)" d="M 257.007812 140.674115 
L 253.95625 140.674115 
L 250.904688 140.674115 
L 247.853125 140.674115 
L 244.801563 140.674115 
L 241.75 140.674116 
L 238.698438 140.674116 
L 235.646875 140.674116 
L 232.595313 140.674116 
L 229.54375 140.674116 
L 226.492188 140.674116 
L 223.440625 140.674116 
L 220.389063 140.674116 
L 217.3375 140.674116 
L 214.285938 140.674115 
L 211.234375 140.674115 
L 208.182813 140.674115 
L 205.13125 140.674115 
L 202.079688 140.674115 
L 199.028125 140.674115 
L 195.976562 140.674115 
L 192.925 140.674115 
L 189.873438 140.674114 
L 186.821875 140.674114 
L 183.770313 140.674114 
L 180.71875 140.674114 
L 177.667188 140.674113 
L 174.615625 140.674113 
L 171.564063 140.674113 
L 168.5125 140.674113 
L 165.460938 140.674112 
L 162.409375 140.674112 
L 159.357813 140.674112 
L 156.30625 140.674111 
L 153.254688 140.674111 
L 150.203125 140.67411 
L 147.151563 140.67411 
L 144.1 140.67411 
L 141.048438 140.674109 
L 137.996875 140.674109 
L 134.945312 140.674108 
L 131.89375 140.674108 
L 128.842188 140.674107 
L 125.790625 140.674107 
L 122.739063 140.674106 
L 119.6875 140.674106 
L 116.635938 140.674105 
L 113.584375 140.674105 
L 110.532813 140.674104 
L 107.48125 140.674103 
L 104.429688 140.674103 
L 101.378125 140.674102 
L 98.326563 140.674102 
L 95.275 140.674101 
L 92.223438 140.6741 
L 89.171875 140.674099 
L 86.120313 140.674099 
L 83.06875 140.674098 
L 80.017188 140.674097 
L 76.965625 140.674097 
L 73.914062 140.674096 
L 70.8625 140.674095 
L 67.810937 140.674094 
L 64.759375 140.674093 
L 61.707813 140.674093 
" style="fill:none;stroke:#1f77b4;stroke-width:1.5;"/>
   </g>
   <g id="LineCollection_7">
    <path clip-path="url(#p8a04162343)" d="M 257.007812 146.550524 
L 253.95625 146.550524 
L 250.904688 146.550525 
L 247.853125 146.550525 
L 244.801563 146.550525 
L 241.75 146.550525 
L 238.698438 146.550525 
L 235.646875 146.550525 
L 232.595313 146.550525 
L 229.54375 146.550525 
L 226.492188 146.550525 
L 223.440625 146.550525 
L 220.389063 146.550525 
L 217.3375 146.550525 
L 214.285938 146.550525 
L 211.234375 146.550525 
L 208.182813 146.550525 
L 205.13125 146.550524 
L 202.079688 146.550524 
L 199.028125 146.550524 
L 195.976562 146.550524 
L 192.925 146.550524 
L 189.873438 146.550524 
L 186.821875 146.550524 
L 183.770313 146.550523 
L 180.71875 146.550523 
L 177.667188 146.550523 
L 174.615625 146.550523 
L 171.564063 146.550522 
L 168.5125 146.550522 
L 165.460938 146.550522 
L 162.409375 146.550522 
L 159.357813 146.550521 
L 156.30625 146.550521 
L 153.254688 146.550521 
L 150.203125 146.55052 
L 147.151563 146.55052 
L 144.1 146.550519 
L 141.048438 146.550519 
L 137.996875 146.550519 
L 134.945312 146.550518 
L 131.89375 146.550518 
L 128.842188 146.550517 
L 125.790625 146.550517 
L 122.739063 146.550516 
L 119.6875 146.550516 
L 116.635938 146.550515 
L 113.584375 146.550515 
L 110.532812 146.550514 
L 107.48125 146.550514 
L 104.429688 146.550513 
L 101.378125 146.550512 
L 98.326563 146.550512 
L 95.275 146.550511 
L 92.223438 146.550511 
L 89.171875 146.55051 
L 86.120313 146.550509 
L 83.06875 146.550509 
L 80.017188 146.550508 
L 76.965625 146.550507 
L 73.914062 146.550507 
L 70.8625 146.550506 
L 67.810937 146.550505 
L 64.759375 146.550504 
L 61.707813 146.550504 
" style="fill:none;stroke:#1f77b4;stroke-width:1.5;"/>
   </g>
   <g id="line2d_10">
    <path clip-path="url(#p8a04162343)" d="M 76.965625 67.426859 
L 95.275 67.199617 
L 111.38725 67.517756 
L 125.56603 67.072362 
L 138.043356 67.695913 
L 149.023404 66.822942 
L 158.685845 68.045102 
L 167.188794 66.334077 
L 174.671389 68.729512 
L 181.256072 65.375904 
L 187.050593 70.070955 
L 192.149772 63.497883 
L 196.637049 72.700184 
L 200.585853 59.816963 
L 204.060801 77.853472 
L 207.118755 52.60236 
L 209.809754 87.953917 
L 212.177834 38.461737 
L 214.261744 107.750789 
L 216.095585 10.746116 
L 217.709364 146.552658 
" style="fill:none;stroke:#ff7f0e;stroke-linecap:square;stroke-width:1.5;"/>
    <defs>
     <path d="M 0 3 
C 0.795609 3 1.55874 2.683901 2.12132 2.12132 
C 2.683901 1.55874 3 0.795609 3 0 
C 3 -0.795609 2.683901 -1.55874 2.12132 -2.12132 
C 1.55874 -2.683901 0.795609 -3 0 -3 
C -0.795609 -3 -1.55874 -2.683901 -2.12132 -2.12132 
C -2.683901 -1.55874 -3 -0.795609 -3 0 
C -3 0.795609 -2.683901 1.55874 -2.12132 2.12132 
C -1.55874 2.683901 -0.795609 3 0 3 
z
" id="mf5946a194c" style="stroke:#ff7f0e;"/>
    </defs>
    <g clip-path="url(#p8a04162343)">
     <use style="fill:#ff7f0e;stroke:#ff7f0e;" x="76.965625" xlink:href="#mf5946a194c" y="67.426859"/>
     <use style="fill:#ff7f0e;stroke:#ff7f0e;" x="95.275" xlink:href="#mf5946a194c" y="67.199617"/>
     <use style="fill:#ff7f0e;stroke:#ff7f0e;" x="111.38725" xlink:href="#mf5946a194c" y="67.517756"/>
     <use style="fill:#ff7f0e;stroke:#ff7f0e;" x="125.56603" xlink:href="#mf5946a194c" y="67.072362"/>
     <use style="fill:#ff7f0e;stroke:#ff7f0e;" x="138.043356" xlink:href="#mf5946a194c" y="67.695913"/>
     <use style="fill:#ff7f0e;stroke:#ff7f0e;" x="149.023404" xlink:href="#mf5946a194c" y="66.822942"/>
     <use style="fill:#ff7f0e;stroke:#ff7f0e;" x="158.685845" xlink:href="#mf5946a194c" y="68.045102"/>
     <use style="fill:#ff7f0e;stroke:#ff7f0e;" x="167.188794" xlink:href="#mf5946a194c" y="66.334077"/>
     <use style="fill:#ff7f0e;stroke:#ff7f0e;" x="174.671389" xlink:href="#mf5946a194c" y="68.729512"/>
     <use style="fill:#ff7f0e;stroke:#ff7f0e;" x="181.256072" xlink:href="#mf5946a194c" y="65.375904"/>
     <use style="fill:#ff7f0e;stroke:#ff7f0e;" x="187.050593" xlink:href="#mf5946a194c" y="70.070955"/>
     <use style="fill:#ff7f0e;stroke:#ff7f0e;" x="192.149772" xlink:href="#mf5946a194c" y="63.497883"/>
     <use style="fill:#ff7f0e;stroke:#ff7f0e;" x="196.637049" xlink:href="#mf5946a194c" y="72.700184"/>
     <use style="fill:#ff7f0e;stroke:#ff7f0e;" x="200.585853" xlink:href="#mf5946a194c" y="59.816963"/>
     <use style="fill:#ff7f0e;stroke:#ff7f0e;" x="204.060801" xlink:href="#mf5946a194c" y="77.853472"/>
     <use style="fill:#ff7f0e;stroke:#ff7f0e;" x="207.118755" xlink:href="#mf5946a194c" y="52.60236"/>
     <use style="fill:#ff7f0e;stroke:#ff7f0e;" x="209.809754" xlink:href="#mf5946a194c" y="87.953917"/>
     <use style="fill:#ff7f0e;stroke:#ff7f0e;" x="212.177834" xlink:href="#mf5946a194c" y="38.461737"/>
     <use style="fill:#ff7f0e;stroke:#ff7f0e;" x="214.261744" xlink:href="#mf5946a194c" y="107.750789"/>
     <use style="fill:#ff7f0e;stroke:#ff7f0e;" x="216.095585" xlink:href="#mf5946a194c" y="10.746116"/>
     <use style="fill:#ff7f0e;stroke:#ff7f0e;" x="217.709364" xlink:href="#mf5946a194c" y="146.552658"/>
    </g>
   </g>
   <g id="patch_3">
    <path d="M 61.707813 146.6 
L 61.707813 10.7 
" style="fill:none;stroke:#000000;stroke-linecap:square;stroke-linejoin:miter;stroke-width:0.8;"/>
   </g>
   <g id="patch_4">
    <path d="M 257.007812 146.6 
L 257.007812 10.7 
" style="fill:none;stroke:#000000;stroke-linecap:square;stroke-linejoin:miter;stroke-width:0.8;"/>
   </g>
   <g id="patch_5">
    <path d="M 61.707813 146.6 
L 257.007812 146.6 
" style="fill:none;stroke:#000000;stroke-linecap:square;stroke-linejoin:miter;stroke-width:0.8;"/>
   </g>
   <g id="patch_6">
    <path d="M 61.707813 10.7 
L 257.007812 10.7 
" style="fill:none;stroke:#000000;stroke-linecap:square;stroke-linejoin:miter;stroke-width:0.8;"/>
   </g>
  </g>
 </g>
 <defs>
  <clipPath id="p8a04162343">
   <rect height="135.9" width="195.3" x="61.707813" y="10.7"/>
  </clipPath>
 </defs>
</svg>
