<?xml version="1.0" encoding="utf-8" standalone="no"?>
<!DOCTYPE svg PUBLIC "-//W3C//DTD SVG 1.1//EN"
  "http://www.w3.org/Graphics/SVG/1.1/DTD/svg11.dtd">
<!-- Created with matplotlib (http://matplotlib.org/) -->
<svg height="184.15625pt" version="1.1" viewBox="0 0 248.620313 184.15625" width="248.620313pt" xmlns="http://www.w3.org/2000/svg" xmlns:xlink="http://www.w3.org/1999/xlink">
 <defs>
  <style type="text/css">
*{stroke-linecap:butt;stroke-linejoin:round;}
  </style>
 </defs>
 <g id="figure_1">
  <g id="patch_1">
   <path d="M 0 184.15625 
L 248.620313 184.15625 
L 248.620313 -0 
L 0 -0 
z
" style="fill:none;"/>
  </g>
  <g id="axes_1">
   <g id="patch_2">
    <path d="M 42.620312 146.6 
L 237.920313 146.6 
L 237.920313 10.7 
L 42.620312 10.7 
z
" style="fill:#ffffff;"/>
   </g>
   <g id="matplotlib.axis_1">
    <g id="xtick_1">
     <g id="line2d_1">
      <defs>
       <path d="M 0 0 
L 0 3.5 
" id="m87d7e3eadc" style="stroke:#000000;stroke-width:0.8;"/>
      </defs>
      <g>
       <use style="stroke:#000000;stroke-width:0.8;" x="88.39375" xlink:href="#m87d7e3eadc" y="146.6"/>
      </g>
     </g>
     <g id="text_1">
      <!-- −4 -->
      <defs>
       <path d="M 10.59375 35.5 
L 73.1875 35.5 
L 73.1875 27.203125 
L 10.59375 27.203125 
z
" id="DejaVuSans-2212"/>
       <path d="M 37.796875 64.3125 
L 12.890625 25.390625 
L 37.796875 25.390625 
z
M 35.203125 72.90625 
L 47.609375 72.90625 
L 47.609375 25.390625 
L 58.015625 25.390625 
L 58.015625 17.1875 
L 47.609375 17.1875 
L 47.609375 0 
L 37.796875 0 
L 37.796875 17.1875 
L 4.890625 17.1875 
L 4.890625 26.703125 
z
" id="DejaVuSans-34"/>
      </defs>
      <g transform="translate(81.022656 161.198437)scale(0.1 -0.1)">
       <use xlink:href="#DejaVuSans-2212"/>
       <use x="83.789062" xlink:href="#DejaVuSans-34"/>
      </g>
     </g>
    </g>
    <g id="xtick_2">
     <g id="line2d_2">
      <g>
       <use style="stroke:#000000;stroke-width:0.8;" x="149.425" xlink:href="#m87d7e3eadc" y="146.6"/>
      </g>
     </g>
     <g id="text_2">
      <!-- −2 -->
      <defs>
       <path d="M 19.1875 8.296875 
L 53.609375 8.296875 
L 53.609375 0 
L 7.328125 0 
L 7.328125 8.296875 
Q 12.9375 14.109375 22.625 23.890625 
Q 32.328125 33.6875 34.8125 36.53125 
Q 39.546875 41.84375 41.421875 45.53125 
Q 43.3125 49.21875 43.3125 52.78125 
Q 43.3125 58.59375 39.234375 62.25 
Q 35.15625 65.921875 28.609375 65.921875 
Q 23.96875 65.921875 18.8125 64.3125 
Q 13.671875 62.703125 7.8125 59.421875 
L 7.8125 69.390625 
Q 13.765625 71.78125 18.9375 73 
Q 24.125 74.21875 28.421875 74.21875 
Q 39.75 74.21875 46.484375 68.546875 
Q 53.21875 62.890625 53.21875 53.421875 
Q 53.21875 48.921875 51.53125 44.890625 
Q 49.859375 40.875 45.40625 35.40625 
Q 44.1875 33.984375 37.640625 27.21875 
Q 31.109375 20.453125 19.1875 8.296875 
z
" id="DejaVuSans-32"/>
      </defs>
      <g transform="translate(142.053906 161.198437)scale(0.1 -0.1)">
       <use xlink:href="#DejaVuSans-2212"/>
       <use x="83.789062" xlink:href="#DejaVuSans-32"/>
      </g>
     </g>
    </g>
    <g id="xtick_3">
     <g id="line2d_3">
      <g>
       <use style="stroke:#000000;stroke-width:0.8;" x="210.45625" xlink:href="#m87d7e3eadc" y="146.6"/>
      </g>
     </g>
     <g id="text_3">
      <!-- 0 -->
      <defs>
       <path d="M 31.78125 66.40625 
Q 24.171875 66.40625 20.328125 58.90625 
Q 16.5 51.421875 16.5 36.375 
Q 16.5 21.390625 20.328125 13.890625 
Q 24.171875 6.390625 31.78125 6.390625 
Q 39.453125 6.390625 43.28125 13.890625 
Q 47.125 21.390625 47.125 36.375 
Q 47.125 51.421875 43.28125 58.90625 
Q 39.453125 66.40625 31.78125 66.40625 
z
M 31.78125 74.21875 
Q 44.046875 74.21875 50.515625 64.515625 
Q 56.984375 54.828125 56.984375 36.375 
Q 56.984375 17.96875 50.515625 8.265625 
Q 44.046875 -1.421875 31.78125 -1.421875 
Q 19.53125 -1.421875 13.0625 8.265625 
Q 6.59375 17.96875 6.59375 36.375 
Q 6.59375 54.828125 13.0625 64.515625 
Q 19.53125 74.21875 31.78125 74.21875 
z
" id="DejaVuSans-30"/>
      </defs>
      <g transform="translate(207.275 161.198437)scale(0.1 -0.1)">
       <use xlink:href="#DejaVuSans-30"/>
      </g>
     </g>
    </g>
    <g id="text_4">
     <!-- x1 -->
     <defs>
      <path d="M 54.890625 54.6875 
L 35.109375 28.078125 
L 55.90625 0 
L 45.3125 0 
L 29.390625 21.484375 
L 13.484375 0 
L 2.875 0 
L 24.125 28.609375 
L 4.6875 54.6875 
L 15.28125 54.6875 
L 29.78125 35.203125 
L 44.28125 54.6875 
z
" id="DejaVuSans-78"/>
      <path d="M 12.40625 8.296875 
L 28.515625 8.296875 
L 28.515625 63.921875 
L 10.984375 60.40625 
L 10.984375 69.390625 
L 28.421875 72.90625 
L 38.28125 72.90625 
L 38.28125 8.296875 
L 54.390625 8.296875 
L 54.390625 0 
L 12.40625 0 
z
" id="DejaVuSans-31"/>
     </defs>
     <g transform="translate(134.129687 174.876562)scale(0.1 -0.1)">
      <use xlink:href="#DejaVuSans-78"/>
      <use x="59.179688" xlink:href="#DejaVuSans-31"/>
     </g>
    </g>
   </g>
   <g id="matplotlib.axis_2">
    <g id="ytick_1">
     <g id="line2d_4">
      <defs>
       <path d="M 0 0 
L -3.5 0 
" id="mee4e5b8422" style="stroke:#000000;stroke-width:0.8;"/>
      </defs>
      <g>
       <use style="stroke:#000000;stroke-width:0.8;" x="42.620312" xlink:href="#mee4e5b8422" y="146.6"/>
      </g>
     </g>
     <g id="text_5">
      <!-- −3 -->
      <defs>
       <path d="M 40.578125 39.3125 
Q 47.65625 37.796875 51.625 33 
Q 55.609375 28.21875 55.609375 21.1875 
Q 55.609375 10.40625 48.1875 4.484375 
Q 40.765625 -1.421875 27.09375 -1.421875 
Q 22.515625 -1.421875 17.65625 -0.515625 
Q 12.796875 0.390625 7.625 2.203125 
L 7.625 11.71875 
Q 11.71875 9.328125 16.59375 8.109375 
Q 21.484375 6.890625 26.8125 6.890625 
Q 36.078125 6.890625 40.9375 10.546875 
Q 45.796875 14.203125 45.796875 21.1875 
Q 45.796875 27.640625 41.28125 31.265625 
Q 36.765625 34.90625 28.71875 34.90625 
L 20.21875 34.90625 
L 20.21875 43.015625 
L 29.109375 43.015625 
Q 36.375 43.015625 40.234375 45.921875 
Q 44.09375 48.828125 44.09375 54.296875 
Q 44.09375 59.90625 40.109375 62.90625 
Q 36.140625 65.921875 28.71875 65.921875 
Q 24.65625 65.921875 20.015625 65.03125 
Q 15.375 64.15625 9.8125 62.3125 
L 9.8125 71.09375 
Q 15.4375 72.65625 20.34375 73.4375 
Q 25.25 74.21875 29.59375 74.21875 
Q 40.828125 74.21875 47.359375 69.109375 
Q 53.90625 64.015625 53.90625 55.328125 
Q 53.90625 49.265625 50.4375 45.09375 
Q 46.96875 40.921875 40.578125 39.3125 
z
" id="DejaVuSans-33"/>
      </defs>
      <g transform="translate(20.878125 150.399219)scale(0.1 -0.1)">
       <use xlink:href="#DejaVuSans-2212"/>
       <use x="83.789062" xlink:href="#DejaVuSans-33"/>
      </g>
     </g>
    </g>
    <g id="ytick_2">
     <g id="line2d_5">
      <g>
       <use style="stroke:#000000;stroke-width:0.8;" x="42.620312" xlink:href="#mee4e5b8422" y="119.952941"/>
      </g>
     </g>
     <g id="text_6">
      <!-- −2 -->
      <g transform="translate(20.878125 123.75216)scale(0.1 -0.1)">
       <use xlink:href="#DejaVuSans-2212"/>
       <use x="83.789062" xlink:href="#DejaVuSans-32"/>
      </g>
     </g>
    </g>
    <g id="ytick_3">
     <g id="line2d_6">
      <g>
       <use style="stroke:#000000;stroke-width:0.8;" x="42.620312" xlink:href="#mee4e5b8422" y="93.305882"/>
      </g>
     </g>
     <g id="text_7">
      <!-- −1 -->
      <g transform="translate(20.878125 97.105101)scale(0.1 -0.1)">
       <use xlink:href="#DejaVuSans-2212"/>
       <use x="83.789062" xlink:href="#DejaVuSans-31"/>
      </g>
     </g>
    </g>
    <g id="ytick_4">
     <g id="line2d_7">
      <g>
       <use style="stroke:#000000;stroke-width:0.8;" x="42.620312" xlink:href="#mee4e5b8422" y="66.658824"/>
      </g>
     </g>
     <g id="text_8">
      <!-- 0 -->
      <g transform="translate(29.257812 70.458042)scale(0.1 -0.1)">
       <use xlink:href="#DejaVuSans-30"/>
      </g>
     </g>
    </g>
    <g id="ytick_5">
     <g id="line2d_8">
      <g>
       <use style="stroke:#000000;stroke-width:0.8;" x="42.620312" xlink:href="#mee4e5b8422" y="40.011765"/>
      </g>
     </g>
     <g id="text_9">
      <!-- 1 -->
      <g transform="translate(29.257812 43.810983)scale(0.1 -0.1)">
       <use xlink:href="#DejaVuSans-31"/>
      </g>
     </g>
    </g>
    <g id="ytick_6">
     <g id="line2d_9">
      <g>
       <use style="stroke:#000000;stroke-width:0.8;" x="42.620312" xlink:href="#mee4e5b8422" y="13.364706"/>
      </g>
     </g>
     <g id="text_10">
      <!-- 2 -->
      <g transform="translate(29.257812 17.163925)scale(0.1 -0.1)">
       <use xlink:href="#DejaVuSans-32"/>
      </g>
     </g>
    </g>
    <g id="text_11">
     <!-- x2 -->
     <g transform="translate(14.798437 84.790625)rotate(-90)scale(0.1 -0.1)">
      <use xlink:href="#DejaVuSans-78"/>
      <use x="59.179688" xlink:href="#DejaVuSans-32"/>
     </g>
    </g>
   </g>
   <g id="LineCollection_1">
    <path clip-path="url(#p806930add3)" d="M 237.920313 98.843141 
L 222.6625 99.189553 
L 207.404688 99.269494 
L 192.146875 99.082965 
L 176.889063 98.629501 
L 164.682813 98.027046 
L 152.476563 97.23922 
L 140.270313 96.266023 
L 131.115625 95.361513 
L 118.909375 93.940336 
L 109.754688 92.68178 
L 97.100875 90.641176 
L 85.342188 88.282128 
L 82.290625 87.585647 
L 73.135938 85.26052 
L 63.98125 82.356364 
L 57.878125 79.982353 
L 52.486044 77.317647 
L 48.409725 74.652941 
L 45.559891 71.988235 
L 43.880132 69.323529 
L 43.320212 66.658824 
L 43.880132 63.994118 
L 45.671875 61.222824 
L 48.723438 58.455336 
L 52.486044 56 
L 57.878125 53.335294 
L 64.752171 50.670588 
L 73.307374 48.005882 
L 83.908321 45.341176 
L 94.496875 43.178062 
L 100.6 42.08743 
L 113.96875 40.011765 
L 125.0125 38.641345 
L 137.21875 37.323887 
L 149.425 36.304348 
L 161.63125 35.470179 
L 173.8375 34.821381 
L 186.04375 34.383906 
L 201.301563 34.090788 
L 216.559375 34.064141 
L 231.817188 34.303965 
L 237.920313 34.474506 
L 237.920313 34.474506 
" style="fill:none;stroke:#1f77b4;stroke-width:1.5;"/>
   </g>
   <g id="LineCollection_2">
    <path clip-path="url(#p806930add3)" d="M 237.920313 112.487958 
L 234.86875 112.552672 
L 231.817188 112.609773 
L 228.765625 112.659261 
L 225.714063 112.701134 
L 222.6625 112.735395 
L 219.610938 112.762042 
L 216.559375 112.781076 
L 213.507813 112.792496 
L 210.45625 112.796303 
L 207.404688 112.792496 
L 204.353125 112.781076 
L 201.301563 112.762042 
L 198.25 112.735395 
L 195.198438 112.701134 
L 192.146875 112.659261 
L 189.095313 112.609773 
L 186.04375 112.552672 
L 182.992188 112.487958 
L 179.940625 112.41563 
L 176.889063 112.335689 
L 173.8375 112.248134 
L 170.785938 112.152966 
L 167.734375 112.050185 
L 165.208944 111.958824 
L 164.682813 111.938636 
L 161.63125 111.813476 
L 158.579688 111.680241 
L 155.528125 111.53893 
L 152.476563 111.389545 
L 149.425 111.232086 
L 146.373438 111.066551 
L 143.321875 110.892941 
L 140.270313 110.711257 
L 137.21875 110.521497 
L 134.167188 110.323663 
L 131.115625 110.117754 
L 128.064063 109.90377 
L 125.0125 109.681711 
L 121.960938 109.451578 
L 119.943803 109.294118 
L 118.909375 109.208159 
L 115.857813 108.945987 
L 112.80625 108.675218 
L 109.754688 108.395854 
L 106.703125 108.107894 
L 103.651563 107.811338 
L 100.6 107.506186 
L 97.548438 107.192438 
L 94.496875 106.870095 
L 92.277557 106.629412 
L 91.445313 106.532931 
L 88.39375 106.16998 
L 85.342188 105.79784 
L 82.290625 105.416511 
L 79.239063 105.025994 
L 76.1875 104.626288 
L 73.135938 104.217394 
L 71.291587 103.964706 
L 70.084375 103.787059 
L 67.032813 103.328137 
L 63.98125 102.859346 
L 60.929688 102.380686 
L 57.878125 101.892157 
L 54.826563 101.393758 
L 54.263653 101.3 
L 51.775 100.852329 
L 48.723438 100.292741 
L 45.671875 99.722494 
L 42.620313 99.141588 
" style="fill:none;stroke:#1f77b4;stroke-width:1.5;"/>
    <path clip-path="url(#p806930add3)" d="M 42.620313 34.176059 
L 45.671875 33.595153 
L 48.723438 33.024906 
L 51.775 32.465318 
L 54.263653 32.017647 
L 54.826563 31.923889 
L 57.878125 31.42549 
L 60.929688 30.936961 
L 63.98125 30.458301 
L 67.032813 29.98951 
L 70.084375 29.530588 
L 71.291587 29.352941 
L 73.135938 29.100254 
L 76.1875 28.691359 
L 79.239063 28.291653 
L 82.290625 27.901136 
L 85.342188 27.519807 
L 88.39375 27.147667 
L 91.445313 26.784716 
L 92.277557 26.688235 
L 94.496875 26.447552 
L 97.548438 26.125209 
L 100.6 25.811461 
L 103.651563 25.506309 
L 106.703125 25.209753 
L 109.754688 24.921793 
L 112.80625 24.642429 
L 115.857813 24.37166 
L 118.909375 24.109488 
L 119.943803 24.023529 
L 121.960938 23.86607 
L 125.0125 23.635936 
L 128.064063 23.413877 
L 131.115625 23.199893 
L 134.167188 22.993984 
L 137.21875 22.79615 
L 140.270313 22.60639 
L 143.321875 22.424706 
L 146.373438 22.251096 
L 149.425 22.085561 
L 152.476563 21.928102 
L 155.528125 21.778717 
L 158.579688 21.637406 
L 161.63125 21.504171 
L 164.682813 21.379011 
L 165.208944 21.358824 
L 167.734375 21.267462 
L 170.785938 21.164681 
L 173.8375 21.069513 
L 176.889063 20.981958 
L 179.940625 20.902017 
L 182.992188 20.829689 
L 186.04375 20.764975 
L 189.095313 20.707874 
L 192.146875 20.658387 
L 195.198438 20.616513 
L 198.25 20.582252 
L 201.301563 20.555605 
L 204.353125 20.536571 
L 207.404688 20.525151 
L 210.45625 20.521345 
L 213.507813 20.525151 
L 216.559375 20.536571 
L 219.610938 20.555605 
L 222.6625 20.582252 
L 225.714063 20.616513 
L 228.765625 20.658387 
L 231.817188 20.707874 
L 234.86875 20.764975 
L 237.920313 20.829689 
" style="fill:none;stroke:#1f77b4;stroke-width:1.5;"/>
   </g>
   <g id="LineCollection_3">
    <path clip-path="url(#p806930add3)" d="M 237.920313 122.924398 
L 234.86875 122.977073 
L 231.817188 123.02355 
L 228.765625 123.06383 
L 225.714063 123.097914 
L 222.6625 123.1258 
L 219.610938 123.14749 
L 216.559375 123.162982 
L 213.507813 123.172278 
L 210.45625 123.175376 
L 207.404688 123.172278 
L 204.353125 123.162982 
L 201.301563 123.14749 
L 198.25 123.1258 
L 195.198438 123.097914 
L 192.146875 123.06383 
L 189.095313 123.02355 
L 186.04375 122.977073 
L 182.992188 122.924398 
L 179.940625 122.865527 
L 176.889063 122.800458 
L 173.8375 122.729193 
L 170.785938 122.651731 
L 169.542708 122.617647 
L 167.734375 122.565653 
L 164.682813 122.471413 
L 161.63125 122.370674 
L 158.579688 122.263436 
L 155.528125 122.149699 
L 152.476563 122.029462 
L 149.425 121.902726 
L 146.373438 121.769491 
L 143.321875 121.629756 
L 140.270313 121.483522 
L 137.21875 121.330789 
L 134.167188 121.171557 
L 131.115625 121.005825 
L 128.064063 120.833594 
L 125.0125 120.654864 
L 121.960938 120.469634 
L 118.909375 120.277905 
L 115.857813 120.079677 
L 113.96875 119.952941 
L 112.80625 119.87095 
L 109.754688 119.648891 
L 106.703125 119.42 
L 103.651563 119.184276 
L 100.6 118.941719 
L 97.548438 118.69233 
L 94.496875 118.436109 
L 91.445313 118.173054 
L 88.39375 117.903167 
L 85.342188 117.626448 
L 82.290625 117.342896 
L 81.716213 117.288235 
L 79.239063 117.039769 
L 76.1875 116.726486 
L 73.135938 116.406002 
L 70.084375 116.078315 
L 67.032813 115.743426 
L 63.98125 115.401335 
L 60.929688 115.052043 
L 57.878125 114.695548 
L 57.273855 114.623529 
L 54.826563 114.315185 
L 51.775 113.923092 
L 48.723438 113.523387 
L 45.671875 113.116067 
L 42.620313 112.701134 
" style="fill:none;stroke:#1f77b4;stroke-width:1.5;"/>
    <path clip-path="url(#p806930add3)" d="M 42.620313 20.616513 
L 45.671875 20.20158 
L 48.723438 19.794261 
L 51.775 19.394555 
L 54.826563 19.002462 
L 57.273855 18.694118 
L 57.878125 18.622099 
L 60.929688 18.265604 
L 63.98125 17.916312 
L 67.032813 17.574221 
L 70.084375 17.239332 
L 73.135938 16.911645 
L 76.1875 16.591161 
L 79.239063 16.277878 
L 81.716213 16.029412 
L 82.290625 15.974751 
L 85.342188 15.691199 
L 88.39375 15.41448 
L 91.445313 15.144593 
L 94.496875 14.881538 
L 97.548438 14.625317 
L 100.6 14.375928 
L 103.651563 14.133371 
L 106.703125 13.897647 
L 109.754688 13.668756 
L 112.80625 13.446697 
L 113.96875 13.364706 
L 115.857813 13.23797 
L 118.909375 13.039742 
L 121.960938 12.848013 
L 125.0125 12.662783 
L 128.064063 12.484053 
L 131.115625 12.311822 
L 134.167188 12.14609 
L 137.21875 11.986858 
L 140.270313 11.834125 
L 143.321875 11.687891 
L 146.373438 11.548156 
L 149.425 11.414921 
L 152.476563 11.288185 
L 155.528125 11.167948 
L 158.579688 11.054211 
L 161.63125 10.946973 
L 164.682813 10.846234 
L 167.734375 10.751994 
L 169.542708 10.7 
" style="fill:none;stroke:#1f77b4;stroke-width:1.5;"/>
   </g>
   <g id="LineCollection_4">
    <path clip-path="url(#p806930add3)" d="M 237.920313 131.696681 
L 234.86875 131.742905 
L 231.817188 131.783691 
L 228.765625 131.81904 
L 225.714063 131.84895 
L 222.6625 131.873421 
L 219.610938 131.892455 
L 216.559375 131.90605 
L 213.507813 131.914208 
L 210.45625 131.916927 
L 207.404688 131.914208 
L 204.353125 131.90605 
L 201.301563 131.892455 
L 198.25 131.873421 
L 195.198438 131.84895 
L 192.146875 131.81904 
L 189.095313 131.783691 
L 186.04375 131.742905 
L 182.992188 131.696681 
L 179.940625 131.645018 
L 176.889063 131.587917 
L 173.8375 131.525378 
L 170.785938 131.457401 
L 167.734375 131.383986 
L 164.682813 131.305132 
L 161.63125 131.22084 
L 158.579688 131.13111 
L 155.528125 131.035942 
L 152.476563 130.935336 
L 149.425 130.829292 
L 146.373438 130.717809 
L 143.605741 130.611765 
L 143.321875 130.600426 
L 140.270313 130.47286 
L 137.21875 130.339625 
L 134.167188 130.20072 
L 131.115625 130.056145 
L 128.064063 129.905901 
L 125.0125 129.749987 
L 121.960938 129.588404 
L 118.909375 129.421151 
L 115.857813 129.248229 
L 112.80625 129.069637 
L 109.754688 128.885375 
L 106.703125 128.695444 
L 103.651563 128.499844 
L 100.6 128.298573 
L 97.548438 128.091633 
L 95.473375 127.947059 
L 94.496875 127.876 
L 91.445313 127.64802 
L 88.39375 127.414118 
L 85.342188 127.174294 
L 82.290625 126.928549 
L 79.239063 126.676882 
L 76.1875 126.419294 
L 73.135938 126.155784 
L 70.084375 125.886353 
L 67.032813 125.611 
L 63.98125 125.329725 
L 63.477899 125.282353 
L 60.929688 125.031375 
L 57.878125 124.724624 
L 54.826563 124.411676 
L 51.775 124.092531 
L 48.723438 123.767189 
L 45.671875 123.43565 
L 42.620313 123.097914 
" style="fill:none;stroke:#1f77b4;stroke-width:1.5;"/>
   </g>
   <g id="LineCollection_5">
    <path clip-path="url(#p806930add3)" d="M 237.920313 139.427096 
L 234.86875 139.468278 
L 231.817188 139.504615 
L 228.765625 139.536107 
L 225.714063 139.562754 
L 222.6625 139.584556 
L 219.610938 139.601513 
L 216.559375 139.613626 
L 213.507813 139.620893 
L 210.45625 139.623316 
L 207.404688 139.620893 
L 204.353125 139.613626 
L 201.301563 139.601513 
L 198.25 139.584556 
L 195.198438 139.562754 
L 192.146875 139.536107 
L 189.095313 139.504615 
L 186.04375 139.468278 
L 182.992188 139.427096 
L 179.940625 139.38107 
L 176.889063 139.330198 
L 173.8375 139.274481 
L 170.785938 139.21392 
L 167.734375 139.148513 
L 164.682813 139.078262 
L 161.63125 139.003166 
L 158.579688 138.923225 
L 155.528125 138.838439 
L 152.476563 138.748807 
L 149.425 138.654332 
L 147.936433 138.605882 
L 146.373438 138.553091 
L 143.321875 138.444994 
L 140.270313 138.33187 
L 137.21875 138.213718 
L 134.167188 138.090538 
L 131.115625 137.962331 
L 128.064063 137.829095 
L 125.0125 137.690832 
L 121.960938 137.547542 
L 118.909375 137.399223 
L 115.857813 137.245877 
L 112.80625 137.087503 
L 109.754688 136.924101 
L 106.703125 136.755671 
L 103.651563 136.582214 
L 100.6 136.403729 
L 97.548438 136.220216 
L 94.496875 136.031676 
L 93.07017 135.941176 
L 91.445313 135.834066 
L 88.39375 135.627682 
L 85.342188 135.416073 
L 82.290625 135.199239 
L 79.239063 134.97718 
L 76.1875 134.749896 
L 73.135938 134.517388 
L 70.084375 134.279654 
L 67.032813 134.036696 
L 63.98125 133.788512 
L 60.929688 133.535104 
L 57.878125 133.276471 
L 57.878125 133.276471 
L 54.826563 133.001843 
L 51.775 132.721777 
L 48.723438 132.436273 
L 45.671875 132.14533 
L 42.620313 131.84895 
" style="fill:none;stroke:#1f77b4;stroke-width:1.5;"/>
   </g>
   <g id="LineCollection_6">
    <path clip-path="url(#p806930add3)" d="M 210.45625 146.6 
L 207.404688 146.597742 
L 204.353125 146.590967 
L 201.301563 146.579676 
L 198.25 146.563868 
L 195.198438 146.543544 
L 192.146875 146.518704 
L 189.095313 146.489347 
L 186.04375 146.455474 
L 182.992188 146.417084 
L 179.940625 146.374177 
L 176.889063 146.326755 
L 173.8375 146.274816 
L 170.785938 146.21836 
L 167.734375 146.157388 
L 164.682813 146.091899 
L 161.63125 146.021894 
L 158.579688 145.947373 
L 155.528125 145.868335 
L 152.476563 145.784781 
L 149.425 145.69671 
L 146.373438 145.604123 
L 143.321875 145.507019 
L 140.270313 145.405399 
L 137.21875 145.299262 
L 134.167188 145.188609 
L 131.115625 145.07344 
L 128.064063 144.953754 
L 125.0125 144.829551 
L 121.960938 144.700833 
L 118.909375 144.567597 
L 115.857813 144.429845 
L 112.80625 144.287577 
L 109.754688 144.140793 
L 106.703125 143.989492 
L 105.641712 143.935294 
L 103.651563 143.830108 
L 100.6 143.664149 
L 97.548438 143.493514 
L 94.496875 143.318204 
L 91.445313 143.13822 
L 88.39375 142.95356 
L 85.342188 142.764226 
L 82.290625 142.570217 
L 79.239063 142.371533 
L 76.1875 142.168173 
L 73.135938 141.960139 
L 70.084375 141.74743 
L 67.032813 141.530046 
L 63.98125 141.307988 
L 63.477899 141.270588 
L 60.929688 141.074369 
L 57.878125 140.834545 
L 54.826563 140.589877 
L 51.775 140.340364 
L 48.723438 140.086005 
L 45.671875 139.826802 
L 42.620313 139.562754 
" style="fill:none;stroke:#1f77b4;stroke-width:1.5;"/>
    <path clip-path="url(#p806930add3)" d="M 237.920313 146.417084 
L 234.86875 146.455474 
L 231.817188 146.489347 
L 228.765625 146.518704 
L 225.714063 146.543544 
L 222.6625 146.563868 
L 219.610938 146.579676 
L 216.559375 146.590967 
L 213.507813 146.597742 
L 210.45625 146.6 
" style="fill:none;stroke:#1f77b4;stroke-width:1.5;"/>
   </g>
   <g id="LineCollection_7">
    <path clip-path="url(#p806930add3)" d="M 43.320212 146.6 
L 42.620313 146.543544 
" style="fill:none;stroke:#1f77b4;stroke-width:1.5;"/>
   </g>
   <g id="line2d_10">
    <path clip-path="url(#p806930add3)" d="M 57.878125 119.952941 
L 70.084375 34.682353 
L 81.314125 85.844706 
L 91.645495 55.147294 
L 101.150355 73.565741 
L 109.894827 62.514673 
L 117.939741 69.145314 
L 125.341062 65.166929 
L 132.150277 67.55396 
L 138.414754 66.121742 
L 144.178074 66.981073 
L 149.480328 66.465474 
L 154.358402 66.774833 
L 158.84623 66.589218 
L 162.975031 66.700587 
L 166.773529 66.633765 
L 170.268147 66.673858 
L 173.483195 66.649803 
L 176.441039 66.664236 
L 179.162256 66.655576 
L 181.665776 66.660772 
" style="fill:none;stroke:#ff7f0e;stroke-linecap:square;stroke-width:1.5;"/>
    <defs>
     <path d="M 0 3 
C 0.795609 3 1.55874 2.683901 2.12132 2.12132 
C 2.683901 1.55874 3 0.795609 3 0 
C 3 -0.795609 2.683901 -1.55874 2.12132 -2.12132 
C 1.55874 -2.683901 0.795609 -3 0 -3 
C -0.795609 -3 -1.55874 -2.683901 -2.12132 -2.12132 
C -2.683901 -1.55874 -3 -0.795609 -3 0 
C -3 0.795609 -2.683901 1.55874 -2.12132 2.12132 
C -1.55874 2.683901 -0.795609 3 0 3 
z
" id="m66e4fa6db0" style="stroke:#ff7f0e;"/>
    </defs>
    <g clip-path="url(#p806930add3)">
     <use style="fill:#ff7f0e;stroke:#ff7f0e;" x="57.878125" xlink:href="#m66e4fa6db0" y="119.952941"/>
     <use style="fill:#ff7f0e;stroke:#ff7f0e;" x="70.084375" xlink:href="#m66e4fa6db0" y="34.682353"/>
     <use style="fill:#ff7f0e;stroke:#ff7f0e;" x="81.314125" xlink:href="#m66e4fa6db0" y="85.844706"/>
     <use style="fill:#ff7f0e;stroke:#ff7f0e;" x="91.645495" xlink:href="#m66e4fa6db0" y="55.147294"/>
     <use style="fill:#ff7f0e;stroke:#ff7f0e;" x="101.150355" xlink:href="#m66e4fa6db0" y="73.565741"/>
     <use style="fill:#ff7f0e;stroke:#ff7f0e;" x="109.894827" xlink:href="#m66e4fa6db0" y="62.514673"/>
     <use style="fill:#ff7f0e;stroke:#ff7f0e;" x="117.939741" xlink:href="#m66e4fa6db0" y="69.145314"/>
     <use style="fill:#ff7f0e;stroke:#ff7f0e;" x="125.341062" xlink:href="#m66e4fa6db0" y="65.166929"/>
     <use style="fill:#ff7f0e;stroke:#ff7f0e;" x="132.150277" xlink:href="#m66e4fa6db0" y="67.55396"/>
     <use style="fill:#ff7f0e;stroke:#ff7f0e;" x="138.414754" xlink:href="#m66e4fa6db0" y="66.121742"/>
     <use style="fill:#ff7f0e;stroke:#ff7f0e;" x="144.178074" xlink:href="#m66e4fa6db0" y="66.981073"/>
     <use style="fill:#ff7f0e;stroke:#ff7f0e;" x="149.480328" xlink:href="#m66e4fa6db0" y="66.465474"/>
     <use style="fill:#ff7f0e;stroke:#ff7f0e;" x="154.358402" xlink:href="#m66e4fa6db0" y="66.774833"/>
     <use style="fill:#ff7f0e;stroke:#ff7f0e;" x="158.84623" xlink:href="#m66e4fa6db0" y="66.589218"/>
     <use style="fill:#ff7f0e;stroke:#ff7f0e;" x="162.975031" xlink:href="#m66e4fa6db0" y="66.700587"/>
     <use style="fill:#ff7f0e;stroke:#ff7f0e;" x="166.773529" xlink:href="#m66e4fa6db0" y="66.633765"/>
     <use style="fill:#ff7f0e;stroke:#ff7f0e;" x="170.268147" xlink:href="#m66e4fa6db0" y="66.673858"/>
     <use style="fill:#ff7f0e;stroke:#ff7f0e;" x="173.483195" xlink:href="#m66e4fa6db0" y="66.649803"/>
     <use style="fill:#ff7f0e;stroke:#ff7f0e;" x="176.441039" xlink:href="#m66e4fa6db0" y="66.664236"/>
     <use style="fill:#ff7f0e;stroke:#ff7f0e;" x="179.162256" xlink:href="#m66e4fa6db0" y="66.655576"/>
     <use style="fill:#ff7f0e;stroke:#ff7f0e;" x="181.665776" xlink:href="#m66e4fa6db0" y="66.660772"/>
    </g>
   </g>
   <g id="patch_3">
    <path d="M 42.620312 146.6 
L 42.620312 10.7 
" style="fill:none;stroke:#000000;stroke-linecap:square;stroke-linejoin:miter;stroke-width:0.8;"/>
   </g>
   <g id="patch_4">
    <path d="M 237.920313 146.6 
L 237.920313 10.7 
" style="fill:none;stroke:#000000;stroke-linecap:square;stroke-linejoin:miter;stroke-width:0.8;"/>
   </g>
   <g id="patch_5">
    <path d="M 42.620313 146.6 
L 237.920313 146.6 
" style="fill:none;stroke:#000000;stroke-linecap:square;stroke-linejoin:miter;stroke-width:0.8;"/>
   </g>
   <g id="patch_6">
    <path d="M 42.620313 10.7 
L 237.920313 10.7 
" style="fill:none;stroke:#000000;stroke-linecap:square;stroke-linejoin:miter;stroke-width:0.8;"/>
   </g>
  </g>
 </g>
 <defs>
  <clipPath id="p806930add3">
   <rect height="135.9" width="195.3" x="42.620312" y="10.7"/>
  </clipPath>
 </defs>
</svg>
